<?xml version="1.0" encoding="UTF-8"?>
<svg xmlns="http://www.w3.org/2000/svg" xmlns:xlink="http://www.w3.org/1999/xlink" version="1.2" >
<font id="Weissenhof Grotesk">
<font-face  font-family="Weissenhof Grotesk" units-per-em="1000" ascent="750" descent="-250" font-style="normal" font-weight="400" font-stretch="normal" cap-height="700" x-height="500" underline-position="-50" underline-thickness="50" />
<missing-glyph  horiz-adv-x="230" d="" />
<glyph glyph-name="CR" unicode="&#xd;" d="" />
<glyph glyph-name="space" unicode="&#x20;" horiz-adv-x="230" d="" />
<glyph glyph-name="exclam" unicode="&#x21;" horiz-adv-x="234" d="M95 183 L137 183 C146 183 154 189 154 199 L154 683 C154 692 146 700 137 700 L95 700 C85 700 78 692 78 683 L78 199 C78 189 85 183 95 183 L95 183 Z M117 109 C83 109 59 85 59 51 C59 16 83 -6 117 -6 C152 -6 175 16 175 51 C175 85 152 109 117 109 L117 109 Z " />
<glyph glyph-name="quotedbl" unicode="&#x22;" horiz-adv-x="385" d="M99 448 L113 448 C123 448 129 454 130 464 L144 574 C145 587 145 591 145 601 L145 683 C145 692 138 700 128 700 L84 700 C74 700 67 692 67 683 L67 601 C67 591 67 586 69 574 L82 464 C84 454 89 448 99 448 L99 448 Z M272 448 L285 448 C295 448 301 454 303 464 L317 574 C318 587 318 591 318 601 L318 683 C318 692 310 700 300 700 L256 700 C247 700 240 692 240 683 L240 601 C240 591 240 586 241 574 L255 464 C256 454 262 448 272 448 L272 448 Z " />
<glyph glyph-name="numbersign" unicode="&#x23;" horiz-adv-x="727" d="M396 0 L432 0 C443 0 449 8 451 16 L482 180 L592 180 C602 180 610 187 610 197 L610 230 C610 240 602 247 592 247 L494 247 L529 433 L639 433 C649 433 656 439 656 449 L656 483 C656 492 649 500 639 500 L541 500 L571 656 C572 662 572 665 572 669 C572 675 568 680 561 680 L525 680 C514 680 509 674 507 666 L476 500 L310 500 L340 656 C341 662 341 666 341 669 C341 675 337 680 330 680 L294 680 C283 680 278 674 276 666 L245 500 L134 500 C124 500 118 492 118 483 L118 449 C118 439 124 433 134 433 L232 433 L197 247 L88 247 C78 247 71 240 71 230 L71 197 C71 187 78 180 88 180 L184 180 L156 29 C154 20 154 16 154 11 C154 5 159 0 165 0 L201 0 C212 0 218 7 220 16 L251 180 L415 180 L387 28 C386 21 385 16 385 12 C385 5 390 0 396 0 L396 0 Z M263 247 L298 433 L463 433 L428 247 L263 247 Z " />
<glyph glyph-name="dollar" unicode="&#x24;" horiz-adv-x="594" d="M544 185 C544 441 147 320 147 516 C147 608 210 632 301 632 C417 632 446 577 451 517 C452 507 458 501 467 501 L509 501 C519 501 526 508 526 518 C526 586 486 685 336 699 L336 786 C336 794 330 801 321 801 L286 801 C277 801 272 794 272 786 L272 699 C152 691 71 634 71 516 C71 248 468 365 468 185 C468 92 397 58 303 58 C156 58 127 161 125 205 C124 214 118 222 108 222 L65 222 C56 222 49 214 49 204 C49 127 107 5 272 -9 L272 -92 C272 -102 278 -108 288 -108 L319 -108 C329 -108 336 -102 336 -92 L336 -9 C443 1 544 55 544 185 L544 185 Z " />
<glyph glyph-name="percent" unicode="&#x25;" horiz-adv-x="860" d="M37 540 L37 501 C37 395 97 336 195 336 C293 336 353 395 353 501 L353 540 C353 646 294 707 195 707 C97 707 37 646 37 540 L37 540 Z M221 0 L265 0 C275 0 279 8 283 14 L644 674 C647 679 649 684 649 689 C649 695 644 700 638 700 L595 700 C584 700 581 694 577 688 L215 25 C212 19 210 15 210 11 C210 5 215 0 221 0 L221 0 Z M104 501 L104 540 C104 609 135 646 195 646 C257 646 287 609 287 540 L287 501 C287 433 256 396 195 396 C134 396 104 432 104 501 L104 501 Z M507 198 L507 159 C507 53 567 -7 665 -7 C763 -7 823 53 823 159 L823 198 C823 304 764 364 665 364 C567 364 507 304 507 198 L507 198 Z M574 158 L574 198 C574 266 604 303 665 303 C726 303 757 266 757 198 L757 158 C757 90 726 53 665 53 C604 53 574 89 574 158 L574 158 Z " />
<glyph glyph-name="ampersand" unicode="&#x26;" horiz-adv-x="630" d="M467 63 L517 7 C521 3 526 0 532 0 L588 0 C595 0 599 5 599 11 C599 18 595 22 590 27 L509 118 C554 200 560 298 560 340 C560 350 553 358 543 358 L505 358 C495 358 488 350 488 340 C488 301 484 234 458 176 L294 360 C377 406 461 453 461 550 C461 637 397 710 290 710 C207 710 107 669 107 547 C107 471 158 415 191 374 C119 329 58 275 58 178 C58 95 114 -10 284 -10 C365 -10 423 19 467 63 L467 63 Z M251 408 C200 464 180 499 180 547 C180 597 205 643 290 643 C343 643 388 616 388 549 C388 482 322 447 251 408 L251 408 Z M420 116 C387 82 345 60 284 60 C170 60 131 121 131 181 C131 248 176 288 235 325 L420 116 Z " />
<glyph glyph-name="quotesingle" unicode="&#x27;" horiz-adv-x="213" d="M99 448 L113 448 C123 448 129 454 130 464 L144 574 C145 587 145 591 145 601 L145 683 C145 692 138 700 128 700 L84 700 C74 700 67 692 67 683 L67 601 C67 591 67 586 69 574 L82 464 C84 454 89 448 99 448 L99 448 Z " />
<glyph glyph-name="parenleft" unicode="&#x28;" horiz-adv-x="302" d="M270 803 C142 768 68 673 68 503 L68 180 C68 10 139 -84 270 -118 C273 -119 277 -120 279 -120 C286 -120 291 -115 291 -109 L291 -63 C291 -53 283 -49 273 -46 C186 -17 142 55 142 180 L142 502 C142 628 180 695 273 730 C286 734 291 737 291 746 L291 793 C291 800 286 804 279 804 C278 804 274 804 270 803 L270 803 Z " />
<glyph glyph-name="parenright" unicode="&#x29;" horiz-adv-x="302" d="M234 503 C234 673 160 768 32 803 C28 804 24 804 23 804 C16 804 11 800 11 793 L11 746 C11 737 16 734 29 730 C123 695 160 628 160 502 L160 180 C160 55 116 -17 29 -46 C19 -49 11 -53 11 -63 L11 -109 C11 -115 16 -120 23 -120 C25 -120 29 -119 32 -118 C163 -84 234 10 234 180 L234 503 Z " />
<glyph glyph-name="asterisk" unicode="&#x2a;" horiz-adv-x="440" d="M347 386 L271 494 L391 539 C399 542 401 548 398 554 L384 593 C381 601 378 603 370 600 L253 557 L253 688 C253 695 248 700 241 700 L200 700 C193 700 188 695 188 688 L188 559 L74 600 C68 602 62 602 59 593 L45 553 C42 547 43 543 51 540 L170 495 L95 386 C91 380 92 373 98 369 L132 345 C138 341 144 343 148 348 L221 453 L294 348 C298 343 304 341 310 345 L344 369 C350 373 351 380 347 386 L347 386 Z " />
<glyph glyph-name="plus" unicode="&#x2b;" horiz-adv-x="622" d="M290 100 L331 100 C341 100 349 107 349 117 L349 315 L538 315 C548 315 556 322 556 332 L556 369 C556 379 548 386 538 386 L349 386 L349 583 C349 592 341 600 331 600 L290 600 C280 600 273 592 273 583 L273 386 L82 386 C73 386 66 379 66 369 L66 332 C66 322 73 315 82 315 L273 315 L273 117 C273 107 280 100 290 100 L290 100 Z " />
<glyph glyph-name="comma" unicode="&#x2c;" horiz-adv-x="219" d="M109 109 C75 109 51 85 51 52 C51 16 74 -4 106 -6 C101 -43 91 -67 63 -87 C54 -92 52 -94 52 -105 L52 -138 C52 -147 56 -149 60 -149 C76 -149 170 -106 170 31 C170 85 145 109 109 109 L109 109 Z " />
<glyph glyph-name="hyphen" unicode="&#x2d;" horiz-adv-x="403" d="M343 281 L343 319 C343 329 336 337 326 337 L77 337 C67 337 60 329 60 319 L60 281 C60 271 67 264 77 264 L326 264 C336 264 343 271 343 281 L343 281 Z " />
<glyph glyph-name="period" unicode="&#x2e;" horiz-adv-x="219" d="M109 109 C75 109 51 85 51 51 C51 16 75 -6 109 -6 C144 -6 167 16 167 51 C167 85 144 109 109 109 L109 109 Z " />
<glyph glyph-name="slash" unicode="&#x2f;" horiz-adv-x="424" d="M35 0 L83 0 C93 0 98 8 101 14 L396 676 C399 682 400 685 400 689 C400 695 395 700 389 700 L341 700 C331 700 326 694 324 688 L28 25 C25 19 24 15 24 11 C24 5 29 0 35 0 L35 0 Z " />
<glyph glyph-name="zero" unicode="0" horiz-adv-x="585" d="M67 427 L67 263 C67 96 141 -10 292 -10 C442 -10 518 96 518 263 L518 427 C518 594 443 700 292 700 C142 700 67 594 67 427 L67 427 Z M140 261 L140 428 C140 556 186 630 292 630 C399 630 445 556 445 428 L445 261 C445 134 398 60 292 60 C186 60 140 132 140 261 L140 261 Z " />
<glyph glyph-name="one" unicode="1" horiz-adv-x="411" d="M391 17 L391 51 C391 61 384 68 374 68 L254 68 L254 673 C254 682 246 690 236 690 L201 690 C195 690 186 689 180 673 C170 640 151 592 54 592 C44 592 37 585 37 575 L37 546 C37 533 48 529 54 529 L181 529 L181 68 L54 68 C44 68 37 61 37 51 L37 17 C37 7 44 0 54 0 L374 0 C384 0 391 7 391 17 L391 17 Z " />
<glyph glyph-name="two" unicode="2" horiz-adv-x="515" d="M378 330 L139 72 L447 72 C457 72 464 64 464 54 L464 17 C464 7 457 0 447 0 L65 0 C55 0 48 7 48 17 L48 54 C48 73 57 84 66 94 L313 364 C359 415 379 462 379 508 C379 588 328 632 254 632 C184 632 126 590 126 521 C126 511 118 504 109 504 L70 504 C60 504 53 511 53 521 C53 554 75 700 255 700 C398 700 455 596 455 508 C455 419 401 354 378 330 L378 330 Z " />
<glyph glyph-name="three" unicode="3" horiz-adv-x="546" d="M383 360 C443 394 475 444 475 515 C475 608 406 700 268 700 C104 700 58 579 55 524 C55 514 62 508 72 508 L111 508 C120 508 127 515 128 524 C135 596 197 632 265 632 C336 632 401 595 401 511 C401 438 343 391 277 391 L231 391 C221 391 215 384 215 374 L215 338 C215 329 221 322 231 322 L277 322 C357 322 410 278 410 191 C410 113 358 58 265 58 C198 58 135 92 121 165 C119 174 113 182 103 182 L65 182 C55 182 48 174 48 164 C50 113 100 -10 264 -10 C418 -10 484 95 484 185 C484 266 450 326 383 360 L383 360 Z " />
<glyph glyph-name="four" unicode="4" horiz-adv-x="541" d="M513 148 L513 180 C513 190 505 198 496 198 L416 198 L416 673 C416 682 409 690 399 690 L347 690 C339 690 333 686 325 675 L32 212 C24 201 24 193 24 183 L24 148 C24 138 30 132 40 132 L345 132 L345 17 C345 7 352 0 362 0 L399 0 C409 0 416 7 416 17 L416 132 L496 132 C505 132 513 138 513 148 L513 148 Z M345 589 L345 198 L100 198 L345 589 Z " />
<glyph glyph-name="five" unicode="5" horiz-adv-x="549" d="M496 228 C496 103 429 -10 276 -10 C106 -10 67 127 62 163 C62 171 67 176 74 176 L117 176 C128 176 132 168 137 159 C158 98 201 57 277 57 C374 57 422 126 422 228 L422 240 C422 330 359 390 284 390 C218 390 173 359 143 323 C131 308 127 299 113 299 L86 299 C76 299 69 306 70 316 L97 673 C98 685 104 690 113 690 L445 690 C455 690 462 682 462 673 L462 635 C462 625 455 618 445 618 L161 618 L143 404 C181 437 232 458 290 458 C388 458 496 393 496 240 L496 228 Z " />
<glyph glyph-name="six" unicode="6" horiz-adv-x="576" d="M70 221 C70 83 154 -10 294 -10 C432 -10 518 86 518 221 L518 225 C518 344 437 442 297 442 C227 442 167 406 143 367 L143 434 C143 562 196 632 294 632 C366 632 425 595 430 526 C431 519 435 515 443 515 L486 515 C494 515 501 521 501 529 C501 605 434 700 296 700 C149 700 70 596 70 431 L70 221 Z M143 226 C143 314 210 374 294 374 C378 374 445 314 445 226 L445 221 C445 110 378 58 294 58 C210 58 143 110 143 221 L143 226 Z " />
<glyph glyph-name="seven" unicode="7" horiz-adv-x="471" d="M423 690 L37 690 C28 690 21 682 21 673 L21 638 C21 628 28 622 37 622 L360 622 L98 22 C96 18 94 15 94 11 C94 5 99 0 106 0 L153 0 C167 0 173 10 176 18 L429 609 C433 620 440 637 440 649 L440 673 C440 682 432 690 423 690 L423 690 Z " />
<glyph glyph-name="eight" unicode="8" horiz-adv-x="585" d="M77 519 L77 512 C77 443 113 385 168 362 C109 336 62 282 62 199 L62 188 C62 55 166 -10 293 -10 C419 -10 523 55 523 188 L523 199 C523 281 479 334 418 361 C472 386 508 432 508 512 L508 519 C508 608 448 700 293 700 C138 700 77 608 77 519 L77 519 Z M151 509 L151 516 C151 596 210 633 293 633 C382 633 434 596 434 516 L434 509 C434 430 377 393 293 393 C210 393 151 430 151 509 L151 509 Z M135 186 L135 202 C135 280 207 326 293 326 C376 325 450 287 450 202 L450 186 C450 100 378 57 293 57 C209 57 135 100 135 186 L135 186 Z " />
<glyph glyph-name="nine" unicode="9" horiz-adv-x="576" d="M433 323 L433 256 C433 128 381 58 282 58 C211 58 152 95 146 164 C146 171 141 175 133 175 L91 175 C83 175 76 169 76 161 C76 85 141 -10 281 -10 C428 -10 506 94 506 259 L506 469 C506 607 422 700 282 700 C145 700 59 604 59 469 L59 465 C59 346 140 248 280 248 C349 248 409 284 433 323 L433 323 Z M433 464 C433 376 366 316 282 316 C198 316 132 376 132 464 L132 469 C132 580 198 632 282 632 C366 632 433 580 433 469 L433 464 Z " />
<glyph glyph-name="colon" unicode="&#x3a;" horiz-adv-x="226" d="M113 506 C78 506 55 483 55 448 C55 414 78 391 113 391 C147 391 171 414 171 448 C171 483 147 506 113 506 L113 506 Z M113 109 C78 109 55 85 55 51 C55 16 78 -6 113 -6 C147 -6 171 16 171 51 C171 85 147 109 113 109 L113 109 Z " />
<glyph glyph-name="semicolon" unicode="&#x3b;" horiz-adv-x="228" d="M117 506 C82 506 59 483 59 448 C59 414 82 391 117 391 C151 391 174 414 174 448 C174 483 151 506 117 506 L117 506 Z M113 109 C78 109 55 85 55 52 C55 16 78 -4 109 -6 C104 -43 94 -67 67 -87 C58 -92 56 -94 56 -105 L56 -138 C56 -147 59 -149 64 -149 C80 -149 173 -106 173 31 C173 85 149 109 113 109 L113 109 Z " />
<glyph glyph-name="less" unicode="&#x3c;" horiz-adv-x="539" d="M139 351 L476 543 C484 547 487 552 487 558 L487 610 C487 616 483 621 476 621 C473 621 470 619 466 617 L57 390 C50 386 47 382 47 375 L47 326 C47 319 52 314 58 311 L464 92 C468 90 472 88 476 88 C483 88 487 93 487 99 L487 153 C487 160 484 164 477 168 L139 351 Z " />
<glyph glyph-name="equal" unicode="&#x3d;" horiz-adv-x="622" d="M556 439 L556 477 C556 486 548 494 538 494 L82 494 C73 494 66 486 66 477 L66 439 C66 430 73 423 82 423 L538 423 C548 423 556 430 556 439 L556 439 Z M556 216 L556 253 C556 263 548 270 538 270 L82 270 C73 270 66 263 66 253 L66 216 C66 206 73 199 82 199 L538 199 C548 199 556 206 556 216 L556 216 Z " />
<glyph glyph-name="greater" unicode="&#x3e;" horiz-adv-x="539" d="M400 351 L62 543 C55 547 51 552 51 558 L51 610 C51 616 56 621 63 621 C66 621 69 619 73 617 L481 390 C488 386 491 382 491 375 L491 326 C491 319 486 314 481 311 L75 92 C71 90 66 88 63 88 C56 88 51 93 51 99 L51 153 C51 160 55 164 62 168 L400 351 Z " />
<glyph glyph-name="question" unicode="&#x3f;" horiz-adv-x="505" d="M258 183 L217 183 C207 183 201 189 201 199 L201 220 C201 402 380 410 380 536 C380 617 313 641 247 641 C123 641 112 564 102 520 C100 510 94 507 86 507 L47 507 C40 507 32 512 33 521 C36 558 61 710 247 710 C378 710 456 645 456 536 C456 378 275 361 275 220 L275 199 C275 189 268 183 258 183 L258 183 Z M239 109 C204 109 181 85 181 51 C181 16 204 -6 239 -6 C273 -6 297 16 297 51 C297 85 273 109 239 109 L239 109 Z " />
<glyph glyph-name="at" unicode="&#x40;" horiz-adv-x="966" d="M724 -126 L724 -91 C724 -83 719 -80 713 -80 C709 -80 705 -81 700 -83 C657 -106 591 -130 485 -130 C296 -130 125 -22 125 239 L125 281 C125 511 272 646 492 646 C734 646 837 467 837 310 L837 277 C837 137 785 87 732 87 C696 87 660 103 660 185 L660 468 C660 478 652 486 643 486 L601 486 C591 486 584 478 584 468 L584 427 C568 454 532 493 462 493 C373 493 288 426 288 288 L288 216 C288 78 376 15 469 15 C528 15 580 43 608 95 C628 47 672 22 729 22 C799 22 908 64 908 275 L908 308 C908 537 748 710 492 710 C229 710 55 549 55 281 L55 241 C55 -51 241 -194 485 -194 C607 -194 693 -158 717 -142 C723 -139 724 -134 724 -126 L724 -126 Z M584 300 L584 201 C584 108 532 80 475 80 C413 80 364 124 364 216 L364 292 C364 384 413 428 475 428 C538 428 584 392 584 300 L584 300 Z " />
<glyph glyph-name="A" unicode="A" horiz-adv-x="632" d="M603 26 L361 685 C358 693 353 700 343 700 L286 700 C276 700 271 693 268 684 L31 32 C27 23 24 16 24 11 C24 5 29 0 36 0 L86 0 C91 0 97 2 100 11 L162 187 L466 187 L529 11 C531 5 536 0 545 0 L596 0 C603 0 608 5 608 11 C608 15 605 22 603 26 L603 26 Z M188 256 L313 612 L441 256 L188 256 Z " />
<glyph glyph-name="B" unicode="B" horiz-adv-x="630" d="M466 364 C527 393 558 440 558 508 L558 523 C558 648 467 700 338 700 L102 700 C92 700 85 692 85 683 L85 17 C85 7 92 0 102 0 L341 0 C462 0 577 43 577 187 L577 200 C577 273 537 336 466 364 L466 364 Z M161 629 L335 629 C411 629 482 609 482 521 L482 506 C482 420 417 398 343 398 L161 398 L161 629 Z M501 190 C501 93 423 71 345 71 L161 71 L161 327 L345 327 C425 327 501 297 501 201 L501 190 Z " />
<glyph glyph-name="C" unicode="C" horiz-adv-x="626" d="M559 236 L505 236 C498 236 494 230 493 223 C481 128 418 61 319 61 C219 61 138 135 138 263 L138 437 C138 565 218 639 318 639 C418 639 478 569 491 487 C493 475 498 472 504 472 L555 472 C564 472 570 476 569 487 C554 609 463 710 318 710 C173 710 62 604 62 437 L62 263 C62 97 174 -10 319 -10 C464 -10 563 99 570 223 C570 231 565 236 559 236 L559 236 Z " />
<glyph glyph-name="D" unicode="D" horiz-adv-x="640" d="M102 0 L321 0 C466 0 579 106 579 273 L579 428 C579 595 466 700 321 700 L102 700 C92 700 85 692 85 683 L85 17 C85 7 92 0 102 0 L102 0 Z M161 629 L321 629 C420 629 501 555 501 427 L501 273 C501 146 420 71 321 71 L161 71 L161 629 Z " />
<glyph glyph-name="E" unicode="E" horiz-adv-x="563" d="M517 645 L517 683 C517 692 510 700 500 700 L102 700 C92 700 85 692 85 683 L85 17 C85 7 92 0 102 0 L500 0 C510 0 517 7 517 17 L517 54 C517 64 510 71 500 71 L161 71 L161 319 L433 319 C442 319 450 325 450 335 L450 373 C450 382 442 390 433 390 L161 390 L161 629 L500 629 C510 629 517 636 517 645 L517 645 Z " />
<glyph glyph-name="F" unicode="F" horiz-adv-x="548" d="M517 645 L517 683 C517 692 510 700 500 700 L102 700 C92 700 85 692 85 683 L85 17 C85 7 92 0 102 0 L144 0 C154 0 161 7 161 17 L161 296 L433 296 C442 296 450 303 450 313 L450 350 C450 360 442 368 433 368 L161 368 L161 629 L500 629 C510 629 517 636 517 645 L517 645 Z " />
<glyph glyph-name="G" unicode="G" horiz-adv-x="649" d="M325 286 L497 286 L497 234 C497 166 445 61 320 61 C220 61 138 135 138 263 L138 435 C138 564 219 639 319 639 C426 639 484 560 494 487 C495 476 499 472 507 472 L560 472 C567 472 571 476 571 482 C571 486 571 490 569 498 C549 613 465 710 319 710 C173 710 62 603 62 437 L62 263 C62 114 156 -10 317 -10 C397 -10 468 27 501 87 L501 17 C501 7 508 0 518 0 L553 0 C563 0 571 7 571 17 L571 339 C571 348 563 356 553 356 L325 356 C315 356 308 348 308 339 L308 303 C308 293 315 286 325 286 L325 286 Z " />
<glyph glyph-name="H" unicode="H" horiz-adv-x="661" d="M517 0 L559 0 C569 0 576 7 576 17 L576 683 C576 692 569 700 559 700 L517 700 C507 700 500 692 500 683 L500 395 L161 395 L161 683 C161 692 154 700 144 700 L102 700 C92 700 85 692 85 683 L85 17 C85 7 92 0 102 0 L144 0 C154 0 161 7 161 17 L161 323 L500 323 L500 17 C500 7 507 0 517 0 L517 0 Z " />
<glyph glyph-name="I" unicode="I" horiz-adv-x="246" d="M102 0 L144 0 C154 0 161 7 161 17 L161 683 C161 692 154 700 144 700 L102 700 C92 700 85 692 85 683 L85 17 C85 7 92 0 102 0 L102 0 Z " />
<glyph glyph-name="J" unicode="J" horiz-adv-x="487" d="M400 700 L358 700 C348 700 341 692 341 683 L341 203 C341 107 281 61 216 61 C150 61 91 107 91 203 L91 227 C91 237 83 245 74 245 L32 245 C23 245 16 237 16 227 L16 205 C16 68 113 -10 216 -10 C324 -10 417 68 417 205 L417 683 C417 692 410 700 400 700 L400 700 Z " />
<glyph glyph-name="K" unicode="K" horiz-adv-x="612" d="M333 410 L570 668 C577 675 583 681 583 689 C583 695 578 700 572 700 L517 700 C507 700 500 693 490 682 L161 322 L161 683 C161 692 154 700 144 700 L102 700 C92 700 85 692 85 683 L85 17 C85 7 92 0 102 0 L144 0 C154 0 161 7 161 17 L161 225 L279 354 L493 14 C497 7 503 0 513 0 L571 0 C578 0 582 5 582 11 C582 16 579 21 574 29 L333 410 Z " />
<glyph glyph-name="L" unicode="L" horiz-adv-x="552" d="M524 17 L524 54 C524 64 517 71 507 71 L161 71 L161 683 C161 692 154 700 144 700 L102 700 C92 700 85 692 85 683 L85 17 C85 7 92 0 102 0 L507 0 C517 0 524 7 524 17 L524 17 Z " />
<glyph glyph-name="M" unicode="M" horiz-adv-x="836" d="M733 700 L656 700 C649 700 645 696 642 689 L418 105 L197 690 C195 696 190 700 182 700 L102 700 C92 700 85 692 85 683 L85 17 C85 7 92 0 102 0 L142 0 C151 0 159 7 159 17 L159 593 L382 11 C385 5 388 0 398 0 L437 0 C445 0 450 4 454 12 L676 593 L676 17 C676 7 683 0 693 0 L733 0 C743 0 750 7 750 17 L750 683 C750 692 743 700 733 700 L733 700 Z " />
<glyph glyph-name="N" unicode="N" horiz-adv-x="674" d="M572 700 L531 700 C521 700 514 692 514 683 L514 144 L171 686 C168 692 162 700 152 700 L102 700 C92 700 85 692 85 683 L85 17 C85 7 92 0 102 0 L143 0 C152 0 160 7 160 17 L160 573 L510 19 C522 1 530 0 538 0 L572 0 C581 0 589 7 589 17 L589 683 C589 692 581 700 572 700 L572 700 Z " />
<glyph glyph-name="O" unicode="O" horiz-adv-x="637" d="M62 437 L62 263 C62 97 174 -10 319 -10 C464 -10 576 97 576 263 L576 437 C576 603 463 710 318 710 C173 710 62 603 62 437 L62 437 Z M138 263 L138 435 C138 564 218 639 318 639 C418 639 499 564 499 435 L499 263 C499 135 418 61 319 61 C219 61 138 135 138 263 L138 263 Z " />
<glyph glyph-name="P" unicode="P" horiz-adv-x="597" d="M341 263 L161 263 L161 17 C161 7 154 0 144 0 L102 0 C92 0 85 7 85 17 L85 683 C85 692 92 700 102 700 L341 700 C469 700 557 629 557 497 L557 477 C557 344 469 263 341 263 L341 263 Z M161 629 L161 334 L337 334 C412 334 481 376 481 475 L481 496 C481 595 412 629 337 629 L161 629 Z " />
<glyph glyph-name="Q" unicode="Q" horiz-adv-x="637" d="M604 53 L537 110 C562 152 576 204 576 263 L576 437 C576 603 463 710 318 710 C173 710 62 603 62 437 L62 263 C62 97 174 -10 319 -10 C390 -10 453 15 498 61 L561 8 C567 3 571 0 576 0 C581 0 585 2 589 6 L607 28 C610 32 611 35 611 40 C611 42 610 48 604 53 L604 53 Z M319 61 C219 61 138 135 138 263 L138 435 C138 564 218 639 318 639 C418 639 499 564 499 435 L499 263 C499 223 491 189 477 160 L361 258 C356 262 352 264 348 264 C343 264 338 263 332 255 L318 237 C314 234 313 229 313 225 C313 221 315 217 319 213 L441 109 C409 78 366 61 319 61 L319 61 Z " />
<glyph glyph-name="R" unicode="R" horiz-adv-x="610" d="M161 17 L161 284 L329 284 L470 14 C474 6 478 0 488 0 L544 0 C550 0 555 5 555 11 C555 15 554 19 550 26 L407 295 C509 323 557 396 557 484 L557 499 C557 632 469 700 341 700 L102 700 C92 700 85 692 85 683 L85 17 C85 7 92 0 102 0 L144 0 C154 0 161 7 161 17 L161 17 Z M161 355 L161 629 L337 629 C412 629 481 598 481 499 L481 482 C481 396 412 355 337 355 L161 355 Z " />
<glyph glyph-name="S" unicode="S" horiz-adv-x="594" d="M467 511 L509 511 C519 511 526 518 526 528 C526 601 480 710 302 710 C167 710 71 654 71 526 C71 250 468 371 468 185 C468 92 397 58 303 58 C156 58 127 161 125 205 C124 214 118 222 108 222 L65 222 C56 222 49 214 49 204 C49 122 114 -10 303 -10 C421 -10 544 41 544 185 C544 449 147 324 147 526 C147 618 210 642 301 642 C417 642 446 587 451 527 C452 517 458 511 467 511 L467 511 Z " />
<glyph glyph-name="T" unicode="T" horiz-adv-x="572" d="M21 645 L21 683 C21 692 28 700 37 700 L534 700 C544 700 551 692 551 683 L551 645 C551 636 544 629 534 629 L324 629 L324 17 C324 7 316 0 307 0 L265 0 C255 0 248 7 248 17 L248 629 L37 629 C28 629 21 636 21 645 L21 645 Z " />
<glyph glyph-name="U" unicode="U" horiz-adv-x="643" d="M508 700 L550 700 C560 700 568 692 568 683 L568 260 C568 94 466 -10 322 -10 C178 -10 75 94 75 260 L75 683 C75 692 82 700 92 700 L134 700 C144 700 151 692 151 683 L151 260 C151 133 222 61 322 61 C420 61 492 133 492 260 L492 683 C492 692 499 700 508 700 L508 700 Z " />
<glyph glyph-name="V" unicode="V" horiz-adv-x="624" d="M592 700 L542 700 C533 700 529 694 525 684 L313 94 L103 680 C98 694 92 700 82 700 L31 700 C25 700 20 695 20 689 C20 685 23 677 24 675 L268 12 C271 3 276 0 284 0 L339 0 C348 0 353 5 356 12 L598 669 C600 675 603 685 603 689 C603 695 598 700 592 700 L592 700 Z " />
<glyph glyph-name="W" unicode="W" horiz-adv-x="914" d="M877 700 L827 700 C816 700 812 691 810 683 L657 107 L502 683 C499 695 492 700 484 700 L433 700 C424 700 419 694 416 683 L261 107 L107 683 C104 697 95 700 89 700 L37 700 C30 700 26 695 26 689 C26 685 28 679 29 673 L214 12 C217 4 223 0 231 0 L289 0 C298 0 305 6 306 12 L458 582 L610 12 C612 5 618 0 626 0 L684 0 C693 0 699 6 701 12 L885 673 C888 682 889 686 889 689 C889 695 884 700 877 700 L877 700 Z " />
<glyph glyph-name="X" unicode="X" horiz-adv-x="582" d="M548 30 L336 353 L546 672 C548 675 553 683 553 689 C553 695 549 700 542 700 L492 700 C482 700 477 695 470 685 L292 414 L115 685 C110 694 104 700 93 700 L39 700 C32 700 27 695 27 689 C27 682 33 675 37 668 L244 351 L32 26 C28 20 26 16 26 11 C26 5 31 0 37 0 L85 0 C97 0 103 7 108 14 L288 291 L468 14 C473 7 479 0 493 0 L545 0 C551 0 556 5 556 11 C556 17 551 23 548 30 L548 30 Z " />
<glyph glyph-name="Y" unicode="Y" horiz-adv-x="601" d="M570 700 L515 700 C508 700 504 696 500 689 L303 366 L103 689 C99 696 94 700 88 700 L31 700 C25 700 20 695 20 689 C20 683 26 674 29 670 L263 295 L263 17 C263 7 270 0 279 0 L321 0 C331 0 339 7 339 17 L339 295 L573 671 C577 677 581 684 581 689 C581 695 576 700 570 700 L570 700 Z " />
<glyph glyph-name="Z" unicode="Z" horiz-adv-x="562" d="M518 656 L518 683 C518 692 510 700 501 700 L60 700 C50 700 44 692 44 683 L44 646 C44 636 50 629 60 629 L423 629 L56 78 C49 69 44 61 44 45 L44 17 C44 7 50 0 60 0 L501 0 C510 0 518 7 518 17 L518 54 C518 63 510 71 501 71 L140 71 L503 618 C512 632 518 640 518 656 L518 656 Z " />
<glyph glyph-name="bracketleft" unicode="&#x5b;" horiz-adv-x="310" d="M291 748 L291 782 C291 791 284 799 274 799 L95 799 C85 799 78 791 78 782 L78 -101 C78 -111 85 -118 95 -118 L274 -118 C284 -118 291 -111 291 -101 L291 -68 C291 -58 284 -50 274 -50 L151 -50 L151 732 L274 732 C284 732 291 738 291 748 L291 748 Z " />
<glyph glyph-name="backslash" unicode="&#x5c;" horiz-adv-x="424" d="M389 0 L341 0 C330 0 326 8 323 14 L27 676 C25 682 24 685 24 689 C24 695 29 700 35 700 L82 700 C93 700 97 694 100 688 L396 25 C398 19 400 15 400 11 C400 5 395 0 389 0 L389 0 Z " />
<glyph glyph-name="bracketright" unicode="&#x5d;" horiz-adv-x="310" d="M19 748 C19 738 26 732 36 732 L159 732 L159 -50 L36 -50 C26 -50 19 -58 19 -68 L19 -101 C19 -111 26 -118 36 -118 L215 -118 C225 -118 232 -111 232 -101 L232 782 C232 791 225 799 215 799 L36 799 C26 799 19 791 19 782 L19 748 Z " />
<glyph glyph-name="asciicircum" unicode="&#x5e;" horiz-adv-x="516" d="M261 603 L114 241 C111 234 104 230 98 230 L47 230 C41 230 36 235 36 241 C36 245 37 248 38 251 L221 690 C224 697 228 700 236 700 L284 700 C292 700 297 695 299 689 L477 252 C479 248 481 244 481 241 C481 235 476 230 469 230 L417 230 C410 230 405 233 402 241 L261 603 Z " />
<glyph glyph-name="underscore" unicode="&#x5f;" horiz-adv-x="622" d="M556 -56 L556 -17 C556 -8 548 0 539 0 L82 0 C73 0 66 -8 66 -17 L66 -56 C66 -66 73 -72 82 -72 L539 -72 C548 -72 556 -66 556 -56 L556 -56 Z " />
<glyph glyph-name="grave" unicode="&#x60;" horiz-adv-x="298" d="M33 700 L91 700 C97 700 104 697 108 689 L171 578 C173 575 178 568 178 564 C178 560 175 556 169 556 L122 556 C117 556 112 558 108 565 L28 681 C26 685 24 688 24 691 C24 696 28 700 33 700 L33 700 Z " />
<glyph glyph-name="a" unicode="a" horiz-adv-x="504" d="M432 17 L432 316 C432 403 415 510 244 510 C110 510 76 439 66 378 C66 376 65 373 65 372 C65 363 71 357 80 357 L123 357 C133 357 136 364 138 370 C146 412 165 443 244 443 C348 443 359 381 359 318 L359 284 L225 284 C133 284 41 255 41 137 C41 38 111 -10 202 -10 L222 -10 C280 -10 338 16 359 64 L359 17 C359 7 366 0 376 0 L415 0 C424 0 432 7 432 17 L432 17 Z M227 222 L359 222 L359 190 C359 131 337 55 232 55 L212 55 C158 55 113 81 113 137 C113 197 145 222 227 222 L227 222 Z " />
<glyph glyph-name="b" unicode="b" horiz-adv-x="540" d="M154 17 L154 64 C181 20 229 -10 298 -10 C408 -10 487 68 487 214 L487 288 C487 432 409 510 298 510 C227 510 179 478 154 436 L154 683 C154 692 146 700 137 700 L95 700 C85 700 78 692 78 683 L78 17 C78 7 85 0 95 0 L137 0 C146 0 154 7 154 17 L154 17 Z M154 207 L154 298 C154 387 206 443 283 443 C363 443 411 385 411 292 L411 207 C411 114 362 57 283 57 C204 57 154 115 154 207 L154 207 Z " />
<glyph glyph-name="c" unicode="c" horiz-adv-x="503" d="M127 207 L127 293 C127 389 182 443 257 443 C326 443 363 404 379 341 C380 335 384 328 393 328 L441 328 C447 328 452 333 452 340 C452 341 451 343 451 346 C436 424 376 510 257 510 C141 510 53 428 53 288 L53 212 C53 72 142 -10 257 -10 C382 -10 439 85 450 147 C451 152 451 157 451 159 C451 166 447 171 440 171 L392 171 C385 171 381 168 379 159 C359 86 318 57 257 57 C183 57 127 110 127 207 L127 207 Z " />
<glyph glyph-name="d" unicode="d" horiz-adv-x="540" d="M386 17 L386 64 C359 20 311 -10 243 -10 C133 -10 53 68 53 214 L53 288 C53 432 131 510 243 510 C313 510 361 478 386 436 L386 683 C386 692 393 700 403 700 L445 700 C455 700 462 692 462 683 L462 17 C462 7 455 0 445 0 L403 0 C393 0 386 7 386 17 L386 17 Z M386 207 L386 298 C386 387 334 443 257 443 C177 443 129 385 129 292 L129 207 C129 114 178 57 257 57 C335 57 386 115 386 207 L386 207 Z " />
<glyph glyph-name="e" unicode="e" horiz-adv-x="515" d="M129 201 L129 223 L444 223 C454 223 462 229 462 239 L462 289 C462 426 373 510 258 510 C142 510 53 428 53 288 L53 212 C53 72 143 -10 259 -10 C328 -10 418 23 451 127 C453 134 455 138 455 142 C455 149 450 154 443 154 L397 154 C387 154 383 147 381 142 C351 65 297 57 259 57 C185 57 129 112 129 201 L129 201 Z M387 283 L129 283 L129 297 C129 390 184 443 258 443 C333 443 387 390 387 297 L387 283 Z " />
<glyph glyph-name="f" unicode="f" horiz-adv-x="337" d="M299 448 L299 483 C299 492 291 500 282 500 L169 500 L169 515 C169 613 183 630 263 630 L282 630 C291 630 299 637 299 647 L299 683 C299 692 291 700 282 700 L263 700 C125 700 94 643 94 515 L94 500 L17 500 C7 500 0 492 0 483 L0 448 C0 438 7 432 17 432 L94 432 L94 17 C94 7 100 0 110 0 L152 0 C162 0 169 7 169 17 L169 432 L282 432 C291 432 299 438 299 448 L299 448 Z " />
<glyph glyph-name="g" unicode="g" horiz-adv-x="516" d="M324 83 L195 83 C145 83 124 95 124 128 C124 160 145 174 179 174 L283 174 C393 174 465 244 465 342 L465 543 C465 553 457 560 447 560 L411 560 C402 560 395 553 395 543 L395 468 C360 498 319 510 278 510 L251 510 C143 510 69 439 69 342 C69 291 85 253 132 217 C78 207 55 171 55 129 C55 94 70 65 107 49 C66 24 45 -14 45 -65 C45 -145 103 -210 213 -210 L324 -210 C434 -210 492 -146 492 -65 C492 18 434 83 324 83 L324 83 Z M256 448 L278 448 C350 448 391 401 391 341 C391 282 349 236 278 236 L256 236 C184 236 142 283 142 342 C142 401 184 448 256 448 L256 448 Z M314 -147 L223 -147 C147 -147 119 -115 119 -65 C119 -15 147 21 223 21 L314 21 C390 21 418 -15 418 -65 C418 -115 390 -147 314 -147 L314 -147 Z " />
<glyph glyph-name="h" unicode="h" horiz-adv-x="553" d="M95 0 L137 0 C146 0 154 7 154 17 L154 293 C154 389 205 443 279 443 C354 443 406 389 406 293 L406 17 C406 7 412 0 422 0 L464 0 C474 0 481 7 481 17 L481 288 C481 420 417 510 294 510 C220 510 178 475 154 435 L154 683 C154 692 146 700 137 700 L95 700 C85 700 78 692 78 683 L78 17 C78 7 85 0 95 0 L95 0 Z " />
<glyph glyph-name="i" unicode="i" horiz-adv-x="239" d="M119 703 C89 703 69 682 69 652 C69 622 89 601 119 601 C149 601 170 622 170 652 C170 682 149 703 119 703 L119 703 Z M98 0 L140 0 C150 0 157 7 157 17 L157 483 C157 492 150 500 140 500 L98 500 C88 500 82 492 82 483 L82 17 C82 7 88 0 98 0 L98 0 Z " />
<glyph glyph-name="j" unicode="j" horiz-adv-x="239" d="M119 703 C89 703 69 682 69 652 C69 622 89 601 119 601 C149 601 170 622 170 652 C170 682 149 703 119 703 L119 703 Z M140 500 L98 500 C88 500 82 492 82 483 L82 3 C82 -94 50 -128 -21 -128 C-31 -128 -38 -136 -38 -146 L-38 -183 C-38 -193 -31 -200 -21 -200 C95 -200 157 -143 157 3 L157 483 C157 492 150 500 140 500 L140 500 Z " />
<glyph glyph-name="k" unicode="k" horiz-adv-x="511" d="M481 31 L297 277 L462 470 C469 478 473 483 473 489 C473 495 469 500 462 500 L410 500 C396 500 389 494 380 482 L154 214 L154 683 C154 692 146 700 137 700 L95 700 C85 700 78 692 78 683 L78 17 C78 7 85 0 95 0 L137 0 C146 0 154 7 154 17 L154 118 L244 224 L400 14 C405 7 412 0 421 0 L479 0 C486 0 490 5 490 11 C490 17 485 24 481 31 L481 31 Z " />
<glyph glyph-name="l" unicode="l" horiz-adv-x="232" d="M95 0 L137 0 C146 0 154 7 154 17 L154 683 C154 692 146 700 137 700 L95 700 C85 700 78 692 78 683 L78 17 C78 7 85 0 95 0 L95 0 Z " />
<glyph glyph-name="m" unicode="m" horiz-adv-x="847" d="M596 510 C522 510 471 477 440 417 C411 478 358 510 285 510 C211 510 172 470 152 435 L152 483 C152 492 145 500 135 500 L93 500 C83 500 77 492 77 483 L77 17 C77 7 83 0 93 0 L135 0 C145 0 152 7 152 17 L152 282 C152 375 178 443 272 443 C361 443 388 386 388 283 L388 17 C388 7 395 0 405 0 L447 0 C457 0 464 7 464 17 L464 283 C464 384 493 443 583 443 C679 443 700 377 700 283 L700 17 C700 7 707 0 716 0 L758 0 C768 0 776 7 776 17 L776 278 C776 422 738 510 596 510 L596 510 Z " />
<glyph glyph-name="n" unicode="n" horiz-adv-x="552" d="M93 0 L135 0 C145 0 152 7 152 17 L152 293 C152 390 204 443 278 443 C353 443 404 390 404 293 L404 17 C404 7 411 0 421 0 L463 0 C473 0 480 7 480 17 L480 288 C480 420 416 510 293 510 C218 510 177 475 152 434 L152 483 C152 492 145 500 135 500 L93 500 C83 500 77 492 77 483 L77 17 C77 7 83 0 93 0 L93 0 Z " />
<glyph glyph-name="o" unicode="o" horiz-adv-x="514" d="M53 288 L53 212 C53 72 141 -10 257 -10 C372 -10 461 72 461 212 L461 288 C461 428 372 510 257 510 C141 510 53 428 53 288 L53 288 Z M129 207 L129 293 C129 390 183 443 257 443 C332 443 386 390 386 293 L386 207 C386 110 332 57 257 57 C183 57 129 110 129 207 L129 207 Z " />
<glyph glyph-name="p" unicode="p" horiz-adv-x="539" d="M152 -183 L152 64 C180 20 228 -10 296 -10 C406 -10 486 68 486 214 L486 288 C486 432 408 510 296 510 C226 510 178 478 152 436 L152 483 C152 492 145 500 135 500 L93 500 C83 500 77 492 77 483 L77 -183 C77 -193 83 -200 93 -200 L135 -200 C145 -200 152 -193 152 -183 L152 -183 Z M152 207 L152 298 C152 387 204 443 282 443 C362 443 410 385 410 292 L410 207 C410 114 361 57 282 57 C203 57 152 115 152 207 L152 207 Z " />
<glyph glyph-name="q" unicode="q" horiz-adv-x="540" d="M387 -183 L387 64 C360 20 311 -10 243 -10 C133 -10 53 68 53 214 L53 288 C53 432 131 510 243 510 C313 510 362 478 387 436 L387 483 C387 492 394 500 404 500 L446 500 C455 500 463 492 463 483 L463 -183 C463 -193 455 -200 446 -200 L404 -200 C394 -200 387 -193 387 -183 L387 -183 Z M387 207 L387 298 C387 387 334 443 257 443 C177 443 129 385 129 292 L129 207 C129 114 178 57 257 57 C336 57 387 115 387 207 L387 207 Z " />
<glyph glyph-name="r" unicode="r" horiz-adv-x="360" d="M93 0 L135 0 C144 0 152 7 152 17 L152 260 C152 342 189 426 289 426 L304 426 C314 426 321 432 321 442 L321 483 C321 492 314 500 304 500 L289 500 C215 500 171 461 149 416 L149 483 C149 492 141 500 131 500 L93 500 C83 500 77 492 77 483 L77 17 C77 7 83 0 93 0 L93 0 Z " />
<glyph glyph-name="s" unicode="s" horiz-adv-x="475" d="M237 -10 C339 -10 425 29 425 136 C425 340 130 238 130 374 C130 429 185 445 230 445 C319 445 335 401 342 370 C345 361 348 357 357 357 L400 357 C406 357 413 362 414 370 C414 373 413 376 413 377 C406 404 386 510 232 510 C148 510 57 472 57 372 C57 161 352 265 352 135 C352 76 302 55 238 55 C163 55 129 97 120 134 C117 142 114 146 105 146 L62 146 C55 146 51 142 49 136 C48 133 49 129 49 126 C59 56 123 -10 237 -10 L237 -10 Z " />
<glyph glyph-name="t" unicode="t" horiz-adv-x="337" d="M253 0 L282 0 C291 0 299 7 299 17 L299 53 C299 63 291 70 282 70 L262 70 C179 70 169 94 169 184 L169 432 L282 432 C291 432 299 438 299 448 L299 483 C299 492 291 500 282 500 L169 500 L169 613 C169 622 161 630 151 630 L112 630 C102 630 95 622 95 613 L95 575 C95 512 70 500 17 500 C7 500 0 492 0 483 L0 448 C0 438 7 432 17 432 L94 432 L94 176 C94 59 116 0 253 0 L253 0 Z " />
<glyph glyph-name="u" unicode="u" horiz-adv-x="538" d="M444 500 L402 500 C392 500 386 492 386 483 L386 207 C386 110 336 57 262 57 C188 57 147 110 147 207 L147 483 C147 492 140 500 130 500 L88 500 C78 500 72 492 72 483 L72 212 C72 72 133 -10 247 -10 C324 -10 364 25 386 61 L386 17 C386 7 392 0 402 0 L444 0 C454 0 461 7 461 17 L461 483 C461 492 454 500 444 500 L444 500 Z " />
<glyph glyph-name="v" unicode="v" horiz-adv-x="488" d="M459 500 L409 500 C402 500 396 497 393 489 L248 86 L97 489 C94 497 88 500 80 500 L30 500 C24 500 19 495 19 489 C19 484 21 478 23 473 L205 11 C208 3 213 0 220 0 L271 0 C279 0 285 4 287 11 L465 472 C467 478 470 484 470 489 C470 495 465 500 459 500 L459 500 Z " />
<glyph glyph-name="w" unicode="w" horiz-adv-x="725" d="M697 500 L647 500 C637 500 633 494 630 483 L521 99 L403 483 C400 494 394 500 385 500 L342 500 C331 500 326 493 323 483 L211 97 L95 483 C92 495 85 500 77 500 L29 500 C22 500 17 495 17 489 C17 484 19 477 22 470 L170 12 C172 4 178 0 186 0 L232 0 C242 0 247 6 249 12 L363 398 L480 14 C482 7 486 0 497 0 L542 0 C550 0 556 4 559 12 L703 470 C705 477 708 484 708 489 C708 495 703 500 697 500 L697 500 Z " />
<glyph glyph-name="x" unicode="x" horiz-adv-x="439" d="M30 0 L76 0 C88 0 94 7 98 14 L219 198 L337 14 C341 8 347 0 362 0 L409 0 C416 0 420 5 420 11 C420 18 416 23 409 34 L265 254 L408 472 C412 478 416 484 416 489 C416 495 412 500 405 500 L361 500 C350 500 342 495 335 485 L222 307 L108 485 C101 496 93 500 82 500 L34 500 C27 500 23 495 23 489 C23 483 27 476 32 470 L177 252 L29 31 C24 24 19 17 19 11 C19 5 24 0 30 0 L30 0 Z " />
<glyph glyph-name="y" unicode="y" horiz-adv-x="493" d="M464 500 L413 500 C406 500 400 497 396 487 L252 97 L101 485 C97 496 89 500 83 500 L32 500 C26 500 21 495 21 489 C21 484 23 478 27 469 L212 6 L191 -52 C175 -96 153 -128 89 -128 L50 -128 C41 -128 34 -136 34 -146 L34 -183 C34 -193 41 -200 50 -200 L92 -200 C194 -200 224 -156 259 -66 L470 471 C473 478 475 485 475 489 C475 495 471 500 464 500 L464 500 Z " />
<glyph glyph-name="z" unicode="z" horiz-adv-x="439" d="M403 453 L403 483 C403 492 395 500 385 500 L54 500 C44 500 37 492 37 483 L37 448 C37 439 44 432 54 432 L311 432 L51 76 C42 64 37 58 37 44 L37 17 C37 7 44 0 54 0 L385 0 C395 0 403 7 403 17 L403 51 C403 61 395 68 385 68 L130 68 L390 422 C398 431 403 439 403 453 L403 453 Z " />
<glyph glyph-name="braceleft" unicode="&#x7b;" horiz-adv-x="355" d="M336 -100 L336 -65 C336 -55 329 -47 319 -47 C211 -47 204 4 204 119 L204 210 C204 274 172 320 122 343 C172 363 204 409 204 473 L204 564 C204 678 211 732 319 732 C329 732 336 738 336 748 L336 784 C336 793 329 801 319 801 C162 801 129 719 129 565 L129 479 C129 421 93 377 42 377 C32 377 26 370 26 360 L26 321 C26 312 32 305 42 305 C93 305 129 256 129 204 L129 119 C129 -36 163 -117 319 -117 C329 -117 336 -110 336 -100 L336 -100 Z " />
<glyph glyph-name="bar" unicode="&#x7c;" horiz-adv-x="232" d="M95 -142 L137 -142 C146 -142 154 -135 154 -125 L154 823 C154 832 146 840 137 840 L95 840 C85 840 78 832 78 823 L78 -125 C78 -135 85 -142 95 -142 L95 -142 Z " />
<glyph glyph-name="braceright" unicode="&#x7d;" horiz-adv-x="355" d="M19 -100 C19 -110 26 -117 36 -117 C192 -117 226 -36 226 119 L226 204 C226 256 261 305 313 305 C322 305 329 312 329 321 L329 360 C329 370 322 377 313 377 C261 377 226 421 226 479 L226 565 C226 719 192 801 36 801 C26 801 19 793 19 784 L19 748 C19 738 26 732 36 732 C144 732 151 678 151 564 L151 473 C151 409 183 363 233 343 C183 320 151 274 151 210 L151 119 C151 4 144 -47 36 -47 C26 -47 19 -55 19 -65 L19 -100 Z " />
<glyph glyph-name="asciitilde" unicode="&#x7e;" horiz-adv-x="636" d="M91 268 L122 268 C132 268 138 275 139 283 C141 317 151 359 210 359 C280 359 341 268 431 268 C524 268 562 340 562 409 C562 419 555 426 545 426 L515 426 C505 426 498 419 498 409 C498 375 482 334 431 334 C367 334 309 427 212 427 C118 427 74 359 74 284 C74 275 81 268 91 268 L91 268 Z " />
<glyph glyph-name="uni00A0" unicode="&#xa0;" horiz-adv-x="230" d="" />
<glyph glyph-name="exclamdown" unicode="&#xa1;" horiz-adv-x="234" d="M117 391 C152 391 175 415 175 449 C175 484 152 506 117 506 C83 506 59 484 59 449 C59 415 83 391 117 391 L117 391 Z M97 -200 L139 -200 C149 -200 156 -192 156 -183 L156 301 C156 311 149 317 139 317 L97 317 C88 317 80 311 80 301 L80 -183 C80 -192 88 -200 97 -200 L97 -200 Z " />
<glyph glyph-name="cent" unicode="&#xa2;" horiz-adv-x="502" d="M440 271 L392 271 C385 271 381 268 379 259 C360 186 318 157 257 157 C183 157 127 210 127 307 L127 383 C127 479 182 533 257 533 C326 533 363 494 379 431 C380 425 384 418 393 418 L441 418 C447 418 452 423 452 430 C452 431 451 433 451 436 C437 506 387 584 289 598 L289 675 C289 683 283 690 274 690 L241 690 C232 690 226 683 226 675 L226 598 C126 585 53 505 53 378 L53 312 C53 185 127 106 226 92 L226 17 C226 7 233 0 243 0 L272 0 C282 0 289 7 289 17 L289 92 C392 107 440 190 450 247 C451 252 451 257 451 259 C451 266 447 271 440 271 L440 271 Z " />
<glyph glyph-name="sterling" unicode="&#xa3;" horiz-adv-x="600" d="M544 192 L505 192 C496 192 490 185 489 177 C487 121 472 58 397 58 C334 58 270 107 195 120 C201 138 204 158 204 180 C204 234 196 276 186 317 L394 317 C402 317 409 323 409 331 L409 361 C409 370 402 376 394 376 L172 376 C165 410 159 446 159 490 C159 595 228 632 309 632 C410 632 453 577 457 517 C458 507 464 501 474 501 L516 501 C525 501 533 508 533 518 C533 591 473 700 309 700 C173 700 84 621 84 490 C84 444 88 408 95 376 L32 376 C23 376 16 369 16 359 L16 333 C16 323 23 317 32 317 L109 317 C119 276 129 236 129 180 C129 114 99 78 39 56 C30 53 27 47 27 42 C27 39 29 35 31 31 L42 2 C45 -7 51 -9 59 -9 C85 -9 130 11 165 58 C248 44 300 -10 397 -10 C528 -10 562 105 562 176 C562 185 554 192 544 192 L544 192 Z " />
<glyph glyph-name="currency" unicode="&#xa4;" horiz-adv-x="571" d="M517 166 L456 228 C483 263 499 307 499 356 C499 404 483 447 456 481 L518 543 C523 549 524 559 518 565 L496 587 C490 593 481 592 475 586 L412 523 C376 549 332 564 285 564 C238 564 194 549 159 524 L95 587 C90 593 81 594 75 587 L53 566 C47 560 47 551 53 545 L116 482 C89 447 73 404 73 356 C73 306 89 262 116 227 L54 165 C47 158 47 148 54 142 L73 123 C79 116 90 115 97 122 L159 185 C194 159 238 145 285 145 C332 145 376 160 412 186 L474 123 C481 116 492 116 499 123 L518 142 C524 149 524 160 517 166 L517 166 Z M285 210 C210 210 143 270 143 356 C143 439 210 499 285 499 C361 499 428 439 428 356 C428 270 361 210 285 210 L285 210 Z " />
<glyph glyph-name="yen" unicode="&#xa5;" horiz-adv-x="601" d="M575 679 C575 685 570 690 564 690 L510 690 C502 690 498 686 494 679 L303 366 L109 679 C105 686 99 690 94 690 L37 690 C31 690 26 685 26 679 C26 673 32 664 34 660 L166 449 L71 449 C61 449 54 441 54 431 L54 406 C54 396 61 389 71 389 L204 389 L262 296 L71 296 C61 296 54 288 54 279 L54 253 C54 243 61 236 71 236 L263 236 L263 17 C263 7 270 0 279 0 L321 0 C331 0 339 7 339 17 L339 236 L530 236 C538 236 545 242 545 251 L545 280 C545 289 538 296 530 296 L339 296 L398 389 L530 389 C538 389 545 395 545 404 L545 433 C545 442 538 449 530 449 L435 449 L568 661 C571 667 575 674 575 679 L575 679 Z " />
<glyph glyph-name="brokenbar" unicode="&#xa6;" horiz-adv-x="232" d="M78 823 L78 451 C78 442 85 434 95 434 L137 434 C146 434 154 442 154 451 L154 823 C154 832 146 840 137 840 L95 840 C85 840 78 832 78 823 L78 823 Z M78 259 L78 -125 C78 -135 85 -142 95 -142 L137 -142 C146 -142 154 -135 154 -125 L154 259 C154 268 146 276 137 276 L95 276 C85 276 78 268 78 259 L78 259 Z " />
<glyph glyph-name="section" unicode="&#xa7;" horiz-adv-x="506" d="M431 238 C463 259 484 290 484 335 C484 523 105 429 105 558 C105 620 181 638 248 638 C371 638 396 595 404 563 C406 554 409 550 418 550 L462 550 C468 550 475 555 476 563 C476 566 475 568 475 570 C468 597 442 703 250 703 C146 703 31 663 31 557 C31 510 52 479 84 458 C48 437 26 406 26 363 C26 163 415 258 415 142 C415 77 345 54 255 54 C146 54 96 96 87 134 C84 142 81 146 72 146 L29 146 C22 146 18 142 16 136 C15 133 15 129 16 126 C26 56 110 -10 254 -10 C382 -10 489 31 489 144 C489 189 466 218 431 238 L431 238 Z M100 366 C100 397 118 417 146 430 C257 396 411 408 411 334 C411 300 395 277 365 263 C251 292 100 286 100 366 L100 366 Z " />
<glyph glyph-name="dieresis" unicode="&#xa8;" horiz-adv-x="352" d="M90 680 C61 680 43 660 43 632 C43 603 61 583 90 583 C119 583 138 603 138 632 C138 660 119 680 90 680 L90 680 Z M264 680 C235 680 217 660 217 632 C217 603 235 583 264 583 C293 583 312 603 312 632 C312 660 293 680 264 680 L264 680 Z " />
<glyph glyph-name="copyright" unicode="&#xa9;" horiz-adv-x="815" d="M59 345 C59 112 218 -12 407 -12 C597 -12 756 112 756 345 C756 582 597 712 407 712 C218 712 59 582 59 345 L59 345 Z M692 345 C692 146 561 46 407 46 C254 46 123 145 123 345 C123 547 254 654 407 654 C561 654 692 547 692 345 L692 345 Z M320 321 L320 383 C320 452 357 489 407 489 C459 489 483 461 494 415 C496 409 499 405 506 405 L550 405 C555 405 559 407 558 415 C550 472 508 548 408 548 C322 548 257 487 257 384 L257 320 C257 217 323 156 409 156 C505 156 548 228 557 284 C560 295 557 300 550 300 L506 300 C498 300 496 296 494 288 C480 235 453 215 408 215 C357 215 320 252 320 321 L320 321 Z " />
<glyph glyph-name="ordfeminine" unicode="&#xaa;" horiz-adv-x="420" d="M73 573 L112 573 C120 573 125 578 126 585 C127 621 149 646 213 646 C282 646 306 615 306 557 L306 522 L192 522 C106 522 46 483 46 400 C46 318 105 278 174 278 L195 278 C243 278 288 298 306 344 L306 301 C306 292 312 286 321 286 L358 286 C367 286 374 292 374 301 L374 553 C374 641 338 706 213 706 C115 706 63 659 59 586 C59 578 64 573 73 573 L73 573 Z M193 468 L306 468 L306 448 C306 371 261 336 209 336 L186 336 C139 336 114 360 114 401 C114 448 139 468 193 468 L193 468 Z " />
<glyph glyph-name="guillemotleft" unicode="&#xab;" horiz-adv-x="564" d="M258 444 C255 444 249 440 246 438 L54 307 C46 301 43 294 43 289 L43 239 C43 234 46 226 54 221 L245 90 C250 86 254 84 258 84 C263 84 267 87 267 93 L267 153 C267 158 264 163 258 167 L112 266 L258 366 C264 370 267 375 267 381 L267 435 C267 441 263 444 258 444 L258 444 Z M506 381 L506 435 C506 441 503 444 498 444 C494 444 488 440 485 438 L306 305 C299 299 295 293 295 288 L295 241 C295 235 299 228 306 222 L484 90 C490 86 494 84 498 84 C503 84 506 87 506 93 L506 153 C506 158 504 163 497 167 L360 266 L497 366 C504 371 506 375 506 381 L506 381 Z " />
<glyph glyph-name="logicalnot" unicode="&#xac;" horiz-adv-x="622" d="M82 315 L481 315 L481 145 C481 135 488 128 498 128 L538 128 C548 128 556 135 556 145 L556 370 C556 379 548 387 538 387 L82 387 C73 387 66 379 66 370 L66 331 C66 321 73 315 82 315 L82 315 Z " />
<glyph glyph-name="uni00AD" unicode="&#xad;" d="" />
<glyph glyph-name="registered" unicode="&#xae;" horiz-adv-x="597" d="M297 821 C153 821 34 724 34 547 C34 369 153 276 297 276 C443 276 562 369 562 547 C562 724 443 821 297 821 L297 821 Z M297 326 C183 326 90 399 90 547 C90 692 183 771 297 771 C414 771 507 692 507 547 C507 400 414 326 297 326 L297 326 Z M328 700 L213 700 C205 700 201 696 201 689 L201 419 C201 412 204 408 210 408 L244 408 C251 408 254 412 254 419 L254 518 L305 518 L356 416 C359 409 363 407 367 407 L408 407 C412 407 415 410 415 414 C415 416 415 419 412 423 L358 529 C406 545 417 578 417 608 L417 613 C417 671 380 700 328 700 L328 700 Z M364 607 C364 578 343 563 317 563 L254 563 L254 653 L317 653 C343 653 364 645 364 612 L364 607 Z " />
<glyph glyph-name="macron" unicode="&#xaf;" horiz-adv-x="437" d="M345 661 C354 661 362 654 362 644 L362 613 C362 603 354 596 345 596 L92 596 C82 596 75 603 75 613 L75 644 C75 654 82 661 92 661 L345 661 Z " />
<glyph glyph-name="degree" unicode="&#xb0;" horiz-adv-x="330" d="M37 574 C37 501 94 447 165 447 C235 447 293 501 293 574 C293 646 235 700 165 700 C94 700 37 646 37 574 L37 574 Z M237 574 C237 529 204 496 165 496 C125 496 93 529 93 574 C93 618 125 651 165 651 C204 651 237 618 237 574 L237 574 Z " />
<glyph glyph-name="plusminus" unicode="&#xb1;" horiz-adv-x="622" d="M290 164 L331 164 C341 164 349 171 349 183 L349 379 L538 379 C548 379 556 386 556 399 L556 433 C556 443 548 450 538 450 L349 450 L349 647 C349 656 341 664 331 664 L290 664 C280 664 273 656 273 647 L273 450 L82 450 C73 450 66 443 66 433 L66 399 C66 386 73 379 82 379 L273 379 L273 183 C273 171 280 164 290 164 L290 164 Z M82 71 L538 71 C548 71 556 64 556 54 L556 17 C556 7 548 0 538 0 L82 0 C73 0 66 7 66 17 L66 54 C66 64 73 71 82 71 L82 71 Z " />
<glyph glyph-name="uni00B2" unicode="&#xb2;" horiz-adv-x="400" d="M335 348 L148 348 L285 475 C325 510 344 544 344 587 C344 646 300 706 200 706 C110 706 53 652 53 589 C53 581 59 575 68 575 L104 575 C112 575 119 581 119 589 C119 623 152 645 198 645 C246 645 274 622 274 583 C274 555 261 536 227 505 L65 356 C58 351 51 343 51 329 L51 300 C51 292 57 286 65 286 L335 286 C344 286 350 292 350 300 L350 333 C350 342 344 348 335 348 L335 348 Z " />
<glyph glyph-name="uni00B3" unicode="&#xb3;" horiz-adv-x="400" d="M291 500 C332 521 350 552 350 591 C350 643 308 706 202 706 C88 706 51 639 48 594 C46 586 54 579 62 579 L96 579 C106 579 110 584 113 595 C119 630 153 645 198 645 C246 645 281 628 281 587 C281 550 249 527 205 527 L175 527 C166 527 160 521 160 513 L160 482 C160 475 166 468 175 468 L205 468 C258 468 288 448 288 404 C288 367 257 340 198 340 C153 340 118 355 110 391 C107 401 101 406 92 406 L59 406 C50 406 44 399 44 391 C47 347 87 280 198 280 C302 280 357 340 357 402 C357 445 337 481 291 500 L291 500 Z " />
<glyph glyph-name="acute" unicode="&#xb4;" horiz-adv-x="298" d="M264 700 L207 700 C201 700 193 697 189 689 L126 578 C125 575 120 568 120 564 C120 560 123 556 129 556 L176 556 C181 556 186 558 190 565 L270 681 C272 685 274 688 274 691 C274 696 269 700 264 700 L264 700 Z " />
<glyph glyph-name="uni00B5" unicode="&#xb5;" horiz-adv-x="539" d="M446 500 L404 500 C394 500 387 492 387 483 L387 207 C387 110 337 57 263 57 C188 57 147 110 147 207 L147 483 C147 492 140 500 130 500 L88 500 C78 500 72 492 72 483 L72 -183 C72 -193 78 -200 88 -200 L127 -200 C137 -200 145 -193 145 -183 L145 27 C170 3 206 -10 248 -10 C325 -10 365 25 387 61 L387 17 C387 7 394 0 404 0 L446 0 C455 0 463 7 463 17 L463 483 C463 492 455 500 446 500 L446 500 Z " />
<glyph glyph-name="paragraph" unicode="&#xb6;" horiz-adv-x="575" d="M301 632 L418 632 L418 17 C418 7 425 0 435 0 L473 0 C483 0 490 7 490 17 L490 683 C490 692 483 700 473 700 L229 700 C125 700 46 636 46 524 L46 500 C46 388 125 316 229 316 L229 17 C229 7 236 0 245 0 L283 0 C293 0 301 7 301 17 L301 632 Z " />
<glyph glyph-name="periodcentered" unicode="&#xb7;" horiz-adv-x="219" d="M121 465 C86 465 63 441 63 407 C63 372 86 350 121 350 C155 350 179 372 179 407 C179 441 155 465 121 465 L121 465 Z " />
<glyph glyph-name="cedilla" unicode="&#xb8;" horiz-adv-x="257" d="M129 -45 C123 -45 117 -46 111 -48 L130 5 C132 10 133 13 133 16 C133 20 130 23 126 23 L93 25 C89 25 87 23 85 18 L51 -75 C45 -90 47 -94 55 -98 L71 -104 C74 -105 78 -106 80 -106 C85 -106 87 -103 91 -101 C102 -94 111 -91 123 -91 C139 -91 157 -99 157 -121 L157 -124 C157 -153 134 -159 122 -159 C103 -159 90 -154 79 -144 C72 -137 66 -136 61 -142 L46 -160 C42 -165 40 -171 47 -178 C62 -195 89 -206 121 -206 C189 -206 210 -161 210 -125 L210 -120 C210 -64 161 -45 129 -45 L129 -45 Z " />
<glyph glyph-name="uni00B9" unicode="&#xb9;" horiz-adv-x="400" d="M328 300 L328 330 C328 339 322 346 313 346 L238 346 L238 685 C238 693 231 700 222 700 L191 700 C183 700 176 698 170 687 C160 667 146 644 86 644 C78 644 72 637 72 629 L72 602 C72 593 80 588 86 588 L170 588 L170 346 L86 346 C78 346 72 339 72 330 L72 300 C72 292 78 286 86 286 L313 286 C322 286 328 292 328 300 L328 300 Z " />
<glyph glyph-name="ordmasculine" unicode="&#xba;" horiz-adv-x="426" d="M47 519 L47 465 C47 356 95 280 213 280 C331 280 379 356 379 467 L379 521 C379 630 330 706 212 706 C94 706 47 630 47 519 L47 519 Z M116 467 L116 521 C116 598 137 643 212 643 C282 643 309 603 309 520 L309 466 C309 388 292 343 213 343 C143 343 116 387 116 467 L116 467 Z " />
<glyph glyph-name="guillemotright" unicode="&#xbb;" horiz-adv-x="566" d="M260 305 L82 437 C76 441 72 444 69 444 C64 444 60 441 60 435 L60 375 C60 369 62 365 69 360 L207 262 L69 161 C63 157 60 152 60 147 L60 93 C60 87 64 84 69 84 C72 84 78 88 81 90 L260 222 C268 228 271 235 271 240 L271 287 C271 293 268 299 260 305 L260 305 Z M512 307 L322 437 C316 441 312 444 308 444 C303 444 300 441 300 435 L300 375 C300 369 302 365 309 360 L455 262 L309 161 C302 157 300 152 300 147 L300 93 C300 87 303 84 308 84 C312 84 318 88 321 90 L512 221 C520 226 523 233 523 239 L523 288 C523 294 520 301 512 307 L512 307 Z " />
<glyph glyph-name="onequarter" unicode="&#xbc;" horiz-adv-x="916" d="M313 300 L313 330 C313 339 307 346 298 346 L223 346 L223 685 C223 693 216 700 207 700 L175 700 C168 700 161 698 155 687 C144 667 130 644 71 644 C63 644 56 637 56 629 L56 602 C56 593 65 588 71 588 L155 588 L155 346 L71 346 C63 346 56 339 56 330 L56 300 C56 292 63 286 71 286 L298 286 C307 286 313 292 313 300 L313 300 Z M254 0 L297 0 C308 0 312 8 316 14 L677 674 C679 679 682 684 682 689 C682 695 677 700 671 700 L627 700 C617 700 614 694 610 688 L247 25 C244 19 243 15 243 11 C243 5 248 0 254 0 L254 0 Z M860 95 L860 122 C860 130 854 137 845 137 L791 137 L791 399 C791 407 784 414 775 414 L728 414 C718 414 714 410 706 400 L516 147 C509 138 508 134 508 124 L508 95 C508 86 515 80 523 80 L725 80 L725 14 C725 6 731 0 740 0 L775 0 C784 0 791 6 791 14 L791 80 L845 80 C854 80 860 86 860 95 L860 95 Z M726 335 L726 137 L579 137 L726 335 Z " />
<glyph glyph-name="onehalf" unicode="&#xbd;" horiz-adv-x="916" d="M313 300 L313 330 C313 339 307 346 298 346 L223 346 L223 685 C223 693 216 700 207 700 L175 700 C168 700 161 698 155 687 C144 667 130 644 71 644 C63 644 56 637 56 629 L56 602 C56 593 65 588 71 588 L155 588 L155 346 L71 346 C63 346 56 339 56 330 L56 300 C56 292 63 286 71 286 L298 286 C307 286 313 292 313 300 L313 300 Z M679 689 C679 695 674 700 668 700 L625 700 C614 700 611 694 607 688 L245 25 C242 19 240 15 240 11 C240 5 245 0 251 0 L295 0 C305 0 309 8 313 14 L674 674 C676 679 679 684 679 689 L679 689 Z M851 62 L664 62 L801 189 C840 224 860 258 860 301 C860 360 816 420 715 420 C625 420 569 366 569 303 C569 295 575 289 583 289 L620 289 C628 289 635 295 635 303 C635 337 668 359 714 359 C762 359 790 336 790 297 C790 269 777 250 742 219 L580 70 C573 65 566 57 566 43 L566 14 C566 6 572 0 581 0 L851 0 C859 0 866 6 866 14 L866 47 C866 56 859 62 851 62 L851 62 Z " />
<glyph glyph-name="threequarters" unicode="&#xbe;" horiz-adv-x="916" d="M349 402 C349 445 329 481 283 500 C325 521 342 551 342 591 C342 643 300 706 194 706 C80 706 43 639 40 594 C39 586 46 579 55 579 L88 579 C98 579 102 584 105 595 C111 630 146 645 191 645 C238 645 273 628 273 587 C274 550 241 527 197 527 L167 527 C158 527 152 521 152 513 L152 482 C152 475 158 468 167 468 L197 468 C250 468 280 448 280 404 C280 367 249 340 191 340 C145 340 110 355 102 391 C99 401 94 406 84 406 L51 406 C43 406 36 399 36 391 C39 347 79 280 190 280 C294 280 349 340 349 402 L349 402 Z M682 689 C682 695 677 700 671 700 L627 700 C617 700 614 694 610 688 L247 25 C244 19 243 15 243 11 C243 5 248 0 254 0 L297 0 C308 0 312 8 316 14 L677 674 C679 679 682 684 682 689 L682 689 Z M845 137 L791 137 L791 399 C791 407 784 414 775 414 L728 414 C718 414 714 410 706 400 L516 147 C509 138 508 134 508 124 L508 95 C508 86 515 80 523 80 L725 80 L725 14 C725 6 731 0 740 0 L775 0 C784 0 791 6 791 14 L791 80 L845 80 C854 80 860 86 860 95 L860 122 C860 130 854 137 845 137 L845 137 Z M726 137 L579 137 L726 335 L726 137 Z " />
<glyph glyph-name="questiondown" unicode="&#xbf;" horiz-adv-x="505" d="M249 391 C284 391 307 415 307 449 C307 484 284 506 249 506 C215 506 191 484 191 449 C191 415 215 391 249 391 L249 391 Z M230 317 L271 317 C281 317 288 311 288 301 L288 280 C288 98 108 90 108 -36 C108 -117 175 -141 241 -141 C365 -141 377 -64 386 -20 C388 -10 394 -7 402 -7 L441 -7 C448 -7 456 -12 455 -21 C452 -58 428 -210 242 -210 C110 -210 33 -145 33 -36 C33 122 213 139 213 280 L213 301 C213 311 220 317 230 317 L230 317 Z " />
<glyph glyph-name="Agrave" unicode="&#xc0;" horiz-adv-x="632" d="M278 765 C282 758 287 756 292 756 L339 756 C345 756 348 760 348 764 C348 768 343 775 342 778 L279 889 C274 897 267 900 261 900 L203 900 C198 900 194 896 194 891 C194 888 196 885 198 881 L278 765 Z M603 26 L361 685 C358 693 353 700 343 700 L286 700 C276 700 271 693 268 684 L31 32 C27 23 24 16 24 11 C24 5 29 0 36 0 L86 0 C91 0 97 2 100 11 L162 187 L466 187 L529 11 C531 5 536 0 545 0 L596 0 C603 0 608 5 608 11 C608 15 605 22 603 26 L603 26 Z M188 256 L313 612 L441 256 L188 256 Z " />
<glyph glyph-name="Aacute" unicode="&#xc1;" horiz-adv-x="632" d="M299 756 L346 756 C351 756 356 758 360 765 L440 881 C442 885 444 888 444 891 C444 896 440 900 434 900 L377 900 C371 900 363 897 359 889 L296 778 C295 775 290 768 290 764 C290 760 293 756 299 756 L299 756 Z M603 26 L361 685 C358 693 353 700 343 700 L286 700 C276 700 271 693 268 684 L31 32 C27 23 24 16 24 11 C24 5 29 0 36 0 L86 0 C91 0 97 2 100 11 L162 187 L466 187 L529 11 C531 5 536 0 545 0 L596 0 C603 0 608 5 608 11 C608 15 605 22 603 26 L603 26 Z M188 256 L313 612 L441 256 L188 256 Z " />
<glyph glyph-name="Acircumflex" unicode="&#xc2;" horiz-adv-x="632" d="M205 756 L250 756 C256 756 260 758 265 765 L319 844 L373 765 C378 758 382 756 387 756 L433 756 C439 756 442 760 442 764 C442 768 437 775 436 777 L365 889 C361 896 353 900 348 900 L292 900 C286 900 277 897 272 889 L202 778 C201 775 196 768 196 764 C196 760 199 756 205 756 L205 756 Z M603 26 L361 685 C358 693 353 700 343 700 L286 700 C276 700 271 693 268 684 L31 32 C27 23 24 16 24 11 C24 5 29 0 36 0 L86 0 C91 0 97 2 100 11 L162 187 L466 187 L529 11 C531 5 536 0 545 0 L596 0 C603 0 608 5 608 11 C608 15 605 22 603 26 L603 26 Z M188 256 L313 612 L441 256 L188 256 Z " />
<glyph glyph-name="Atilde" unicode="&#xc3;" horiz-adv-x="632" d="M189 766 L221 766 C230 766 235 772 235 778 C236 800 244 814 263 814 C296 814 319 767 379 767 C437 767 462 809 462 865 C462 873 456 879 448 879 L417 879 C409 879 404 873 404 865 C404 840 394 829 377 829 C346 829 316 878 260 878 C213 878 176 840 176 779 C176 771 181 766 189 766 L189 766 Z M603 26 L361 685 C358 693 353 700 343 700 L286 700 C276 700 271 693 268 684 L31 32 C27 23 24 16 24 11 C24 5 29 0 36 0 L86 0 C91 0 97 2 100 11 L162 187 L466 187 L529 11 C531 5 536 0 545 0 L596 0 C603 0 608 5 608 11 C608 15 605 22 603 26 L603 26 Z M188 256 L313 612 L441 256 L188 256 Z " />
<glyph glyph-name="Adieresis" unicode="&#xc4;" horiz-adv-x="632" d="M233 783 C262 783 281 803 281 832 C281 860 262 880 233 880 C204 880 185 860 185 832 C185 803 204 783 233 783 L233 783 Z M407 783 C436 783 455 803 455 832 C455 860 436 880 407 880 C378 880 359 860 359 832 C359 803 378 783 407 783 L407 783 Z M603 26 L361 685 C358 693 353 700 343 700 L286 700 C276 700 271 693 268 684 L31 32 C27 23 24 16 24 11 C24 5 29 0 36 0 L86 0 C91 0 97 2 100 11 L162 187 L466 187 L529 11 C531 5 536 0 545 0 L596 0 C603 0 608 5 608 11 C608 15 605 22 603 26 L603 26 Z M188 256 L313 612 L441 256 L188 256 Z " />
<glyph glyph-name="Aring" unicode="&#xc5;" horiz-adv-x="632" d="M318 737 C380 737 428 783 428 843 C428 903 380 950 318 950 C257 950 210 902 210 843 C210 783 257 737 318 737 L318 737 Z M318 897 C347 897 371 873 371 843 C371 811 347 789 318 789 C290 789 266 811 266 843 C266 873 290 897 318 897 L318 897 Z M603 26 L361 685 C358 693 353 700 343 700 L286 700 C276 700 271 693 268 684 L31 32 C27 23 24 16 24 11 C24 5 29 0 36 0 L86 0 C91 0 97 2 100 11 L162 187 L466 187 L529 11 C531 5 536 0 545 0 L596 0 C603 0 608 5 608 11 C608 15 605 22 603 26 L603 26 Z M188 256 L313 612 L441 256 L188 256 Z " />
<glyph glyph-name="AE" unicode="&#xc6;" horiz-adv-x="859" d="M796 629 C806 629 813 636 813 645 L813 683 C813 692 806 700 796 700 L451 700 L293 700 C284 700 278 693 275 684 L14 32 C10 23 7 16 7 11 C7 5 12 0 19 0 L70 0 C75 0 81 2 84 11 L154 187 L423 187 L423 17 C423 7 430 0 440 0 L796 0 C806 0 813 7 813 17 L813 54 C813 64 806 71 796 71 L499 71 L499 319 L729 319 C739 319 746 325 746 335 L746 373 C746 382 739 390 729 390 L499 390 L499 629 L796 629 Z M181 256 L328 629 L423 629 L423 256 L181 256 Z " />
<glyph glyph-name="Ccedilla" unicode="&#xc7;" horiz-adv-x="626" d="M559 236 L505 236 C498 236 494 230 493 223 C481 128 418 61 319 61 C219 61 138 135 138 263 L138 437 C138 565 218 639 318 639 C418 639 478 569 491 487 C493 475 498 472 504 472 L555 472 C564 472 570 476 569 487 C554 609 463 710 318 710 C173 710 62 604 62 437 L62 263 C62 110 158 6 287 -8 L262 -76 C257 -90 258 -94 267 -98 L282 -104 C288 -106 292 -107 299 -103 C310 -97 317 -91 335 -91 C350 -91 368 -99 368 -121 L368 -124 C368 -153 345 -159 333 -159 C314 -159 302 -154 291 -144 C283 -137 278 -136 273 -142 L257 -160 C254 -165 252 -171 258 -178 C274 -195 302 -206 334 -206 C404 -206 425 -161 425 -124 L425 -120 C425 -64 376 -45 345 -45 C337 -45 331 -46 324 -48 L338 -9 C472 -1 563 105 570 223 C570 231 565 236 559 236 L559 236 Z " />
<glyph glyph-name="Egrave" unicode="&#xc8;" horiz-adv-x="563" d="M166 900 L223 900 C229 900 237 897 241 889 L304 778 C305 775 310 768 310 764 C310 760 307 756 302 756 L255 756 C249 756 245 758 240 765 L160 881 C158 885 156 888 156 891 C156 896 161 900 166 900 L166 900 Z M517 645 L517 683 C517 692 510 700 500 700 L102 700 C92 700 85 692 85 683 L85 17 C85 7 92 0 102 0 L500 0 C510 0 517 7 517 17 L517 54 C517 64 510 71 500 71 L161 71 L161 319 L433 319 C442 319 450 325 450 335 L450 373 C450 382 442 390 433 390 L161 390 L161 629 L500 629 C510 629 517 636 517 645 L517 645 Z " />
<glyph glyph-name="Eacute" unicode="&#xc9;" horiz-adv-x="563" d="M397 900 L340 900 C334 900 326 897 322 889 L259 778 C258 775 253 768 253 764 C253 760 256 756 261 756 L308 756 C314 756 318 758 323 765 L402 881 C405 885 406 888 406 891 C406 896 402 900 397 900 L397 900 Z M517 645 L517 683 C517 692 510 700 500 700 L102 700 C92 700 85 692 85 683 L85 17 C85 7 92 0 102 0 L500 0 C510 0 517 7 517 17 L517 54 C517 64 510 71 500 71 L161 71 L161 319 L433 319 C442 319 450 325 450 335 L450 373 C450 382 442 390 433 390 L161 390 L161 629 L500 629 C510 629 517 636 517 645 L517 645 Z " />
<glyph glyph-name="Ecircumflex" unicode="&#xca;" horiz-adv-x="563" d="M167 756 L213 756 C218 756 223 758 227 765 L281 844 L335 765 C340 758 345 756 350 756 L395 756 C401 756 404 760 404 764 C404 768 400 775 398 777 L328 889 C323 896 316 900 310 900 L254 900 C248 900 240 897 235 889 L165 778 C163 775 159 768 159 764 C159 760 162 756 167 756 L167 756 Z M500 629 C510 629 517 636 517 645 L517 683 C517 692 510 700 500 700 L102 700 C92 700 85 692 85 683 L85 17 C85 7 92 0 102 0 L500 0 C510 0 517 7 517 17 L517 54 C517 64 510 71 500 71 L161 71 L161 319 L433 319 C442 319 450 325 450 335 L450 373 C450 382 442 390 433 390 L161 390 L161 629 L500 629 Z " />
<glyph glyph-name="Edieresis" unicode="&#xcb;" horiz-adv-x="563" d="M196 880 C167 880 148 860 148 832 C148 803 167 783 196 783 C224 783 244 803 244 832 C244 860 224 880 196 880 L196 880 Z M369 880 C341 880 322 860 322 832 C322 803 341 783 369 783 C398 783 418 803 418 832 C418 860 398 880 369 880 L369 880 Z M517 645 L517 683 C517 692 510 700 500 700 L102 700 C92 700 85 692 85 683 L85 17 C85 7 92 0 102 0 L500 0 C510 0 517 7 517 17 L517 54 C517 64 510 71 500 71 L161 71 L161 319 L433 319 C442 319 450 325 450 335 L450 373 C450 382 442 390 433 390 L161 390 L161 629 L500 629 C510 629 517 636 517 645 L517 645 Z " />
<glyph glyph-name="Igrave" unicode="&#xcc;" horiz-adv-x="246" d="M8 900 L65 900 C71 900 79 897 83 889 L146 778 C147 775 152 768 152 764 C152 760 149 756 143 756 L96 756 C91 756 86 758 82 765 L2 881 C0 885 -2 888 -2 891 C-2 896 3 900 8 900 L8 900 Z M102 0 L144 0 C154 0 161 7 161 17 L161 683 C161 692 154 700 144 700 L102 700 C92 700 85 692 85 683 L85 17 C85 7 92 0 102 0 L102 0 Z " />
<glyph glyph-name="Iacute" unicode="&#xcd;" horiz-adv-x="246" d="M239 900 L181 900 C175 900 168 897 164 889 L101 778 C99 775 94 768 94 764 C94 760 97 756 103 756 L150 756 C155 756 160 758 164 765 L244 881 C246 885 248 888 248 891 C248 896 244 900 239 900 L239 900 Z M102 0 L144 0 C154 0 161 7 161 17 L161 683 C161 692 154 700 144 700 L102 700 C92 700 85 692 85 683 L85 17 C85 7 92 0 102 0 L102 0 Z " />
<glyph glyph-name="Icircumflex" unicode="&#xce;" horiz-adv-x="246" d="M240 777 L170 889 C165 896 157 900 152 900 L96 900 C90 900 82 897 77 889 L7 778 C5 775 0 768 0 764 C0 760 3 756 9 756 L55 756 C60 756 65 758 69 765 L123 844 L177 765 C182 758 186 756 192 756 L237 756 C243 756 246 760 246 764 C246 768 241 775 240 777 L240 777 Z M144 700 L102 700 C92 700 85 692 85 683 L85 17 C85 7 92 0 102 0 L144 0 C154 0 161 7 161 17 L161 683 C161 692 154 700 144 700 L144 700 Z " />
<glyph glyph-name="Idieresis" unicode="&#xcf;" horiz-adv-x="246" d="M37 880 C9 880 -10 860 -10 832 C-10 803 9 783 37 783 C66 783 85 803 85 832 C85 860 66 880 37 880 L37 880 Z M211 880 C183 880 164 860 164 832 C164 803 183 783 211 783 C240 783 259 803 259 832 C259 860 240 880 211 880 L211 880 Z M102 0 L144 0 C154 0 161 7 161 17 L161 683 C161 692 154 700 144 700 L102 700 C92 700 85 692 85 683 L85 17 C85 7 92 0 102 0 L102 0 Z " />
<glyph glyph-name="Eth" unicode="&#xd0;" horiz-adv-x="640" d="M321 700 L102 700 C92 700 85 692 85 683 L85 380 L9 380 C-1 380 -8 373 -8 363 L-8 337 C-8 328 -1 321 9 321 L85 321 L85 17 C85 7 92 0 102 0 L321 0 C466 0 579 106 579 273 L579 428 C579 595 466 700 321 700 L321 700 Z M501 273 C501 146 420 71 321 71 L161 71 L161 321 L286 321 C294 321 301 327 301 335 L301 365 C301 374 294 380 286 380 L161 380 L161 629 L321 629 C420 629 501 555 501 427 L501 273 Z " />
<glyph glyph-name="Ntilde" unicode="&#xd1;" horiz-adv-x="674" d="M207 766 L239 766 C248 766 253 772 253 778 C254 800 262 814 281 814 C314 814 337 767 397 767 C455 767 480 809 480 865 C480 873 474 879 466 879 L435 879 C427 879 422 873 422 865 C422 840 412 829 395 829 C364 829 334 878 278 878 C231 878 194 840 194 779 C194 771 199 766 207 766 L207 766 Z M572 700 L531 700 C521 700 514 692 514 683 L514 144 L171 686 C168 692 162 700 152 700 L102 700 C92 700 85 692 85 683 L85 17 C85 7 92 0 102 0 L143 0 C152 0 160 7 160 17 L160 573 L510 19 C522 1 530 0 538 0 L572 0 C581 0 589 7 589 17 L589 683 C589 692 581 700 572 700 L572 700 Z " />
<glyph glyph-name="Ograve" unicode="&#xd2;" horiz-adv-x="637" d="M203 900 L261 900 C267 900 274 897 278 889 L341 778 C343 775 347 768 347 764 C347 760 344 756 339 756 L292 756 C287 756 282 758 277 765 L198 881 C195 885 194 888 194 891 C194 896 198 900 203 900 L203 900 Z M62 437 L62 263 C62 97 174 -10 319 -10 C464 -10 576 97 576 263 L576 437 C576 603 463 710 318 710 C173 710 62 603 62 437 L62 437 Z M138 263 L138 435 C138 564 218 639 318 639 C418 639 499 564 499 435 L499 263 C499 135 418 61 319 61 C219 61 138 135 138 263 L138 263 Z " />
<glyph glyph-name="Oacute" unicode="&#xd3;" horiz-adv-x="637" d="M434 900 L377 900 C371 900 363 897 359 889 L296 778 C295 775 290 768 290 764 C290 760 293 756 299 756 L345 756 C351 756 355 758 360 765 L440 881 C442 885 444 888 444 891 C444 896 439 900 434 900 L434 900 Z M62 437 L62 263 C62 97 174 -10 319 -10 C464 -10 576 97 576 263 L576 437 C576 603 463 710 318 710 C173 710 62 603 62 437 L62 437 Z M138 263 L138 435 C138 564 218 639 318 639 C418 639 499 564 499 435 L499 263 C499 135 418 61 319 61 C219 61 138 135 138 263 L138 263 Z " />
<glyph glyph-name="Ocircumflex" unicode="&#xd4;" horiz-adv-x="637" d="M205 756 L250 756 C256 756 260 758 265 765 L319 844 L373 765 C378 758 382 756 387 756 L433 756 C438 756 441 760 441 764 C441 768 437 775 436 777 L365 889 C361 896 353 900 347 900 L291 900 C286 900 277 897 272 889 L202 778 C201 775 196 768 196 764 C196 760 199 756 205 756 L205 756 Z M318 710 C173 710 62 603 62 437 L62 263 C62 97 174 -10 319 -10 C464 -10 576 97 576 263 L576 437 C576 603 463 710 318 710 L318 710 Z M499 263 C499 135 418 61 319 61 C219 61 138 135 138 263 L138 435 C138 564 218 639 318 639 C418 639 499 564 499 435 L499 263 Z " />
<glyph glyph-name="Otilde" unicode="&#xd5;" horiz-adv-x="637" d="M189 766 L221 766 C230 766 235 772 235 778 C236 800 243 814 262 814 C296 814 319 767 378 767 C437 767 462 809 462 865 C462 873 456 879 447 879 L417 879 C409 879 403 873 403 865 C403 840 394 829 377 829 C346 829 316 878 260 878 C213 878 176 840 176 779 C176 771 181 766 189 766 L189 766 Z M62 437 L62 263 C62 97 174 -10 319 -10 C464 -10 576 97 576 263 L576 437 C576 603 463 710 318 710 C173 710 62 603 62 437 L62 437 Z M138 263 L138 435 C138 564 218 639 318 639 C418 639 499 564 499 435 L499 263 C499 135 418 61 319 61 C219 61 138 135 138 263 L138 263 Z " />
<glyph glyph-name="Odieresis" unicode="&#xd6;" horiz-adv-x="637" d="M233 880 C204 880 185 860 185 832 C185 803 204 783 233 783 C261 783 281 803 281 832 C281 860 261 880 233 880 L233 880 Z M407 880 C378 880 359 860 359 832 C359 803 378 783 407 783 C435 783 455 803 455 832 C455 860 435 880 407 880 L407 880 Z M62 437 L62 263 C62 97 174 -10 319 -10 C464 -10 576 97 576 263 L576 437 C576 603 463 710 318 710 C173 710 62 603 62 437 L62 437 Z M138 263 L138 435 C138 564 218 639 318 639 C418 639 499 564 499 435 L499 263 C499 135 418 61 319 61 C219 61 138 135 138 263 L138 263 Z " />
<glyph glyph-name="multiply" unicode="&#xd7;" horiz-adv-x="622" d="M101 167 L128 141 C135 134 145 134 152 141 L312 300 L466 145 C473 138 484 138 491 145 L517 171 C524 178 524 189 517 196 L361 351 L520 508 C527 515 527 526 520 533 L494 559 C487 566 477 566 470 559 L311 401 L156 557 C149 564 139 563 132 556 L105 530 C98 523 98 513 105 506 L261 350 L101 190 C94 183 94 174 101 167 L101 167 Z " />
<glyph glyph-name="Oslash" unicode="&#xd8;" horiz-adv-x="637" d="M575 679 C583 690 578 700 566 700 L528 700 C518 700 513 697 506 686 L483 652 C439 689 382 710 318 710 C173 710 62 603 62 437 L62 263 C62 196 80 138 112 94 L64 21 C56 11 61 0 73 0 L111 0 C121 0 126 3 133 14 L155 47 C199 10 256 -10 319 -10 C464 -10 576 97 576 263 L576 437 C576 504 558 561 527 605 L575 679 Z M138 263 L138 435 C138 564 218 639 318 639 C366 639 409 622 442 590 L158 164 C145 192 138 225 138 263 L138 263 Z M499 435 L499 263 C499 135 418 61 319 61 C272 61 229 78 196 109 L480 535 C492 507 499 473 499 435 L499 435 Z " />
<glyph glyph-name="Ugrave" unicode="&#xd9;" horiz-adv-x="643" d="M206 900 L263 900 C269 900 277 897 281 889 L344 778 C345 775 350 768 350 764 C350 760 347 756 342 756 L295 756 C289 756 285 758 280 765 L200 881 C198 885 196 888 196 891 C196 896 201 900 206 900 L206 900 Z M508 700 L550 700 C560 700 568 692 568 683 L568 260 C568 94 466 -10 322 -10 C178 -10 75 94 75 260 L75 683 C75 692 82 700 92 700 L134 700 C144 700 151 692 151 683 L151 260 C151 133 222 61 322 61 C420 61 492 133 492 260 L492 683 C492 692 499 700 508 700 L508 700 Z " />
<glyph glyph-name="Uacute" unicode="&#xda;" horiz-adv-x="643" d="M437 900 L380 900 C374 900 366 897 362 889 L299 778 C298 775 293 768 293 764 C293 760 296 756 301 756 L348 756 C354 756 358 758 363 765 L442 881 C445 885 446 888 446 891 C446 896 442 900 437 900 L437 900 Z M508 700 L550 700 C560 700 568 692 568 683 L568 260 C568 94 466 -10 322 -10 C178 -10 75 94 75 260 L75 683 C75 692 82 700 92 700 L134 700 C144 700 151 692 151 683 L151 260 C151 133 222 61 322 61 C420 61 492 133 492 260 L492 683 C492 692 499 700 508 700 L508 700 Z " />
<glyph glyph-name="Ucircumflex" unicode="&#xdb;" horiz-adv-x="643" d="M208 756 L253 756 C258 756 263 758 268 765 L322 844 L375 765 C380 758 385 756 390 756 L435 756 C441 756 444 760 444 764 C444 768 440 775 438 777 L368 889 C363 896 356 900 350 900 L294 900 C288 900 280 897 275 889 L205 778 C203 775 199 768 199 764 C199 760 202 756 208 756 L208 756 Z M550 700 L508 700 C499 700 492 692 492 683 L492 260 C492 133 420 61 322 61 C222 61 151 133 151 260 L151 683 C151 692 144 700 134 700 L92 700 C82 700 75 692 75 683 L75 260 C75 94 178 -10 322 -10 C466 -10 568 94 568 260 L568 683 C568 692 560 700 550 700 L550 700 Z " />
<glyph glyph-name="Udieresis" unicode="&#xdc;" horiz-adv-x="643" d="M236 880 C207 880 188 860 188 832 C188 803 207 783 236 783 C264 783 284 803 284 832 C284 860 264 880 236 880 L236 880 Z M410 880 C381 880 362 860 362 832 C362 803 381 783 410 783 C438 783 458 803 458 832 C458 860 438 880 410 880 L410 880 Z M508 700 L550 700 C560 700 568 692 568 683 L568 260 C568 94 466 -10 322 -10 C178 -10 75 94 75 260 L75 683 C75 692 82 700 92 700 L134 700 C144 700 151 692 151 683 L151 260 C151 133 222 61 322 61 C420 61 492 133 492 260 L492 683 C492 692 499 700 508 700 L508 700 Z " />
<glyph glyph-name="Yacute" unicode="&#xdd;" horiz-adv-x="601" d="M280 756 L327 756 C333 756 337 758 342 765 L421 881 C424 885 425 888 425 891 C425 896 421 900 416 900 L359 900 C352 900 345 897 341 889 L278 778 C277 775 272 768 272 764 C272 760 275 756 280 756 L280 756 Z M570 700 L515 700 C508 700 504 696 500 689 L303 366 L103 689 C99 696 94 700 88 700 L31 700 C25 700 20 695 20 689 C20 683 26 674 29 670 L263 295 L263 17 C263 7 270 0 279 0 L321 0 C331 0 339 7 339 17 L339 295 L573 671 C577 677 581 684 581 689 C581 695 576 700 570 700 L570 700 Z " />
<glyph glyph-name="Thorn" unicode="&#xde;" horiz-adv-x="597" d="M341 568 L161 568 L161 683 C161 693 154 700 144 700 L102 700 C92 700 85 693 85 683 L85 17 C85 7 92 0 102 0 L144 0 C154 0 161 7 161 17 L161 142 L341 142 C469 142 557 221 557 350 L557 370 C557 499 469 568 341 568 L341 568 Z M481 348 C481 253 412 214 337 214 L161 214 L161 497 L337 497 C412 497 481 465 481 369 L481 348 Z " />
<glyph glyph-name="germandbls" unicode="&#xdf;" horiz-adv-x="574" d="M292 400 L314 400 C379 400 412 434 412 508 C412 588 360 630 289 630 C218 630 166 585 166 488 L166 17 C166 7 158 0 148 0 L106 0 C97 0 90 4 90 14 L90 433 L32 433 C23 433 16 440 16 450 L16 483 C16 492 23 500 32 500 L90 500 C92 605 150 700 289 700 C421 700 485 616 485 512 C485 448 466 392 415 369 C475 343 523 286 523 192 C523 47 441 -10 320 -10 C300 -10 267 -8 243 -1 C229 3 228 11 228 20 L228 58 C228 64 232 69 239 69 C253 69 271 59 320 59 C429 59 449 134 449 198 C449 280 402 333 314 333 L292 333 C282 333 275 339 275 349 L275 383 C275 393 282 400 292 400 L292 400 Z " />
<glyph glyph-name="agrave" unicode="&#xe0;" horiz-adv-x="504" d="M138 700 L195 700 C201 700 209 697 213 689 L276 578 C277 575 282 568 282 564 C282 560 279 556 273 556 L226 556 C221 556 216 558 212 565 L132 681 C130 685 128 688 128 691 C128 696 133 700 138 700 L138 700 Z M432 17 L432 316 C432 403 415 510 244 510 C110 510 76 439 66 378 C66 376 65 373 65 372 C65 363 71 357 80 357 L123 357 C133 357 136 364 138 370 C146 412 165 443 244 443 C348 443 359 381 359 318 L359 284 L225 284 C133 284 41 255 41 137 C41 38 111 -10 202 -10 L222 -10 C280 -10 338 16 359 64 L359 17 C359 7 366 0 376 0 L415 0 C424 0 432 7 432 17 L432 17 Z M227 222 L359 222 L359 190 C359 131 337 55 232 55 L212 55 C158 55 113 81 113 137 C113 197 145 222 227 222 L227 222 Z " />
<glyph glyph-name="aacute" unicode="&#xe1;" horiz-adv-x="504" d="M369 700 L311 700 C305 700 298 697 294 689 L231 578 C229 575 224 568 224 564 C224 560 227 556 233 556 L280 556 C285 556 290 558 294 565 L374 681 C376 685 378 688 378 691 C378 696 374 700 369 700 L369 700 Z M432 17 L432 316 C432 403 415 510 244 510 C110 510 76 439 66 378 C66 376 65 373 65 372 C65 363 71 357 80 357 L123 357 C133 357 136 364 138 370 C146 412 165 443 244 443 C348 443 359 381 359 318 L359 284 L225 284 C133 284 41 255 41 137 C41 38 111 -10 202 -10 L222 -10 C280 -10 338 16 359 64 L359 17 C359 7 366 0 376 0 L415 0 C424 0 432 7 432 17 L432 17 Z M227 222 L359 222 L359 190 C359 131 337 55 232 55 L212 55 C158 55 113 81 113 137 C113 197 145 222 227 222 L227 222 Z " />
<glyph glyph-name="acircumflex" unicode="&#xe2;" horiz-adv-x="504" d="M139 556 L185 556 C190 556 195 558 199 565 L253 644 L307 565 C312 558 316 556 322 556 L367 556 C373 556 376 560 376 564 C376 568 371 575 370 577 L300 689 C295 696 287 700 282 700 L226 700 C220 700 212 697 207 689 L137 578 C135 575 131 568 131 564 C131 560 134 556 139 556 L139 556 Z M244 510 C110 510 76 439 66 378 C66 376 65 373 65 372 C65 363 71 357 80 357 L123 357 C133 357 136 364 138 370 C146 412 165 443 244 443 C348 443 359 381 359 318 L359 284 L225 284 C133 284 41 255 41 137 C41 38 111 -10 202 -10 L222 -10 C280 -10 338 16 359 64 L359 17 C359 7 366 0 376 0 L415 0 C424 0 432 7 432 17 L432 316 C432 403 415 510 244 510 L244 510 Z M359 190 C359 131 337 55 232 55 L212 55 C158 55 113 81 113 137 C113 197 145 222 227 222 L359 222 L359 190 Z " />
<glyph glyph-name="atilde" unicode="&#xe3;" horiz-adv-x="504" d="M124 566 L155 566 C164 566 169 572 169 578 C170 600 178 614 197 614 C230 614 254 567 313 567 C371 567 396 609 396 665 C396 673 390 679 382 679 L351 679 C344 679 338 673 338 665 C338 640 328 629 311 629 C280 629 251 678 194 678 C147 678 110 640 110 579 C110 571 116 566 124 566 L124 566 Z M432 17 L432 316 C432 403 415 510 244 510 C110 510 76 439 66 378 C66 376 65 373 65 372 C65 363 71 357 80 357 L123 357 C133 357 136 364 138 370 C146 412 165 443 244 443 C348 443 359 381 359 318 L359 284 L225 284 C133 284 41 255 41 137 C41 38 111 -10 202 -10 L222 -10 C280 -10 338 16 359 64 L359 17 C359 7 366 0 376 0 L415 0 C424 0 432 7 432 17 L432 17 Z M227 222 L359 222 L359 190 C359 131 337 55 232 55 L212 55 C158 55 113 81 113 137 C113 197 145 222 227 222 L227 222 Z " />
<glyph glyph-name="adieresis" unicode="&#xe4;" horiz-adv-x="504" d="M167 680 C139 680 120 660 120 632 C120 603 139 583 167 583 C196 583 215 603 215 632 C215 660 196 680 167 680 L167 680 Z M341 680 C313 680 294 660 294 632 C294 603 313 583 341 583 C370 583 389 603 389 632 C389 660 370 680 341 680 L341 680 Z M432 17 L432 316 C432 403 415 510 244 510 C110 510 76 439 66 378 C66 376 65 373 65 372 C65 363 71 357 80 357 L123 357 C133 357 136 364 138 370 C146 412 165 443 244 443 C348 443 359 381 359 318 L359 284 L225 284 C133 284 41 255 41 137 C41 38 111 -10 202 -10 L222 -10 C280 -10 338 16 359 64 L359 17 C359 7 366 0 376 0 L415 0 C424 0 432 7 432 17 L432 17 Z M227 222 L359 222 L359 190 C359 131 337 55 232 55 L212 55 C158 55 113 81 113 137 C113 197 145 222 227 222 L227 222 Z " />
<glyph glyph-name="aring" unicode="&#xe5;" horiz-adv-x="504" d="M253 750 C191 750 145 702 145 643 C145 583 191 537 253 537 C314 537 362 583 362 643 C362 703 314 750 253 750 L253 750 Z M253 589 C224 589 201 611 201 643 C201 673 224 697 253 697 C281 697 305 673 305 643 C305 611 281 589 253 589 L253 589 Z M432 17 L432 316 C432 403 415 510 244 510 C110 510 76 439 66 378 C66 376 65 373 65 372 C65 363 71 357 80 357 L123 357 C133 357 136 364 138 370 C146 412 165 443 244 443 C348 443 359 381 359 318 L359 284 L225 284 C133 284 41 255 41 137 C41 38 111 -10 202 -10 L222 -10 C280 -10 338 16 359 64 L359 17 C359 7 366 0 376 0 L415 0 C424 0 432 7 432 17 L432 17 Z M227 222 L359 222 L359 190 C359 131 337 55 232 55 L212 55 C158 55 113 81 113 137 C113 197 145 222 227 222 L227 222 Z " />
<glyph glyph-name="ae" unicode="&#xe6;" horiz-adv-x="809" d="M558 510 C496 510 440 480 405 428 C382 475 334 510 244 510 C110 510 76 439 66 378 C66 376 65 373 65 372 C65 363 71 357 80 357 L123 357 C133 357 136 364 138 370 C146 412 165 443 244 443 C347 443 358 381 358 318 L358 283 L222 283 C104 283 41 240 41 137 C41 38 116 -10 208 -10 L227 -10 C289 -10 361 20 396 87 C428 23 490 -10 560 -10 C626 -10 713 24 745 127 C747 134 749 138 749 142 C749 149 744 154 738 154 L691 154 C682 154 678 147 675 142 C646 66 595 57 560 57 C488 57 434 112 434 201 L434 223 L739 223 C748 223 756 230 756 239 L756 289 C756 426 670 510 558 510 L558 510 Z M682 283 L434 283 L434 297 C434 389 487 443 558 443 C630 443 682 390 682 297 L682 283 Z M232 55 L212 55 C158 55 113 81 113 137 C113 195 143 222 224 222 L358 222 L358 196 C358 126 328 55 232 55 L232 55 Z " />
<glyph glyph-name="ccedilla" unicode="&#xe7;" horiz-adv-x="503" d="M440 171 L392 171 C385 171 381 168 379 159 C359 86 318 57 257 57 C183 57 127 110 127 207 L127 293 C127 389 182 443 257 443 C326 443 363 404 379 341 C380 335 384 328 393 328 L441 328 C447 328 452 333 452 340 C452 341 451 343 451 346 C436 424 376 510 257 510 C141 510 53 427 53 288 L53 212 C53 91 119 14 211 -5 L185 -76 C180 -90 181 -94 189 -98 L205 -104 C211 -106 215 -107 222 -103 C233 -97 240 -91 257 -91 C273 -91 291 -99 291 -121 L291 -124 C291 -153 268 -159 256 -159 C237 -159 225 -154 213 -144 C206 -137 200 -136 195 -142 L180 -160 C176 -165 175 -171 181 -178 C197 -195 224 -206 257 -206 C326 -206 348 -161 348 -124 L348 -120 C348 -64 299 -45 267 -45 C260 -45 253 -46 247 -48 L260 -10 C383 -8 439 85 450 147 C451 152 451 157 451 159 C451 166 447 171 440 171 L440 171 Z " />
<glyph glyph-name="egrave" unicode="&#xe8;" horiz-adv-x="515" d="M142 700 L199 700 C205 700 213 697 217 689 L280 578 C281 575 286 568 286 564 C286 560 283 556 277 556 L231 556 C225 556 221 558 216 565 L136 681 C134 685 132 688 132 691 C132 696 137 700 142 700 L142 700 Z M129 201 L129 223 L444 223 C454 223 462 229 462 239 L462 289 C462 426 373 510 258 510 C142 510 53 428 53 288 L53 212 C53 72 143 -10 259 -10 C328 -10 418 23 451 127 C453 134 455 138 455 142 C455 149 450 154 443 154 L397 154 C387 154 383 147 381 142 C351 65 297 57 259 57 C185 57 129 112 129 201 L129 201 Z M387 283 L129 283 L129 297 C129 390 184 443 258 443 C333 443 387 390 387 297 L387 283 Z " />
<glyph glyph-name="eacute" unicode="&#xe9;" horiz-adv-x="515" d="M373 700 L315 700 C309 700 302 697 298 689 L235 578 C233 575 229 568 229 564 C229 560 231 556 237 556 L284 556 C289 556 294 558 299 565 L378 681 C381 685 382 688 382 691 C382 696 378 700 373 700 L373 700 Z M129 201 L129 223 L444 223 C454 223 462 229 462 239 L462 289 C462 426 373 510 258 510 C142 510 53 428 53 288 L53 212 C53 72 143 -10 259 -10 C328 -10 418 23 451 127 C453 134 455 138 455 142 C455 149 450 154 443 154 L397 154 C387 154 383 147 381 142 C351 65 297 57 259 57 C185 57 129 112 129 201 L129 201 Z M387 283 L129 283 L129 297 C129 390 184 443 258 443 C333 443 387 390 387 297 L387 283 Z " />
<glyph glyph-name="ecircumflex" unicode="&#xea;" horiz-adv-x="515" d="M143 556 L189 556 C194 556 199 558 203 565 L257 644 L311 565 C316 558 320 556 326 556 L371 556 C377 556 380 560 380 564 C380 568 375 575 374 577 L304 689 C299 696 291 700 286 700 L230 700 C224 700 216 697 211 689 L141 578 C139 575 135 568 135 564 C135 560 138 556 143 556 L143 556 Z M258 510 C142 510 53 428 53 288 L53 212 C53 72 143 -10 259 -10 C328 -10 418 23 451 127 C453 134 455 138 455 142 C455 149 450 154 443 154 L397 154 C387 154 383 147 381 142 C351 65 297 57 259 57 C185 57 129 112 129 201 L129 223 L444 223 C454 223 462 229 462 239 L462 289 C462 426 373 510 258 510 L258 510 Z M387 283 L129 283 L129 297 C129 390 184 443 258 443 C333 443 387 390 387 297 L387 283 Z " />
<glyph glyph-name="edieresis" unicode="&#xeb;" horiz-adv-x="515" d="M171 680 C143 680 124 660 124 632 C124 603 143 583 171 583 C200 583 220 603 220 632 C220 660 200 680 171 680 L171 680 Z M345 680 C317 680 298 660 298 632 C298 603 317 583 345 583 C374 583 394 603 394 632 C394 660 374 680 345 680 L345 680 Z M129 201 L129 223 L444 223 C454 223 462 229 462 239 L462 289 C462 426 373 510 258 510 C142 510 53 428 53 288 L53 212 C53 72 143 -10 259 -10 C328 -10 418 23 451 127 C453 134 455 138 455 142 C455 149 450 154 443 154 L397 154 C387 154 383 147 381 142 C351 65 297 57 259 57 C185 57 129 112 129 201 L129 201 Z M387 283 L129 283 L129 297 C129 390 184 443 258 443 C333 443 387 390 387 297 L387 283 Z " />
<glyph glyph-name="igrave" unicode="&#xec;" horiz-adv-x="239" d="M4 700 L61 700 C68 700 75 697 79 689 L142 578 C143 575 148 568 148 564 C148 560 145 556 140 556 L93 556 C87 556 83 558 78 565 L-1 681 C-4 685 -5 688 -5 691 C-5 696 -1 700 4 700 L4 700 Z M98 0 L140 0 C150 0 157 7 157 17 L157 483 C157 492 150 500 140 500 L98 500 C88 500 82 492 82 483 L82 17 C82 7 88 0 98 0 L98 0 Z " />
<glyph glyph-name="iacute" unicode="&#xed;" horiz-adv-x="239" d="M235 700 L178 700 C172 700 164 697 160 689 L97 578 C96 575 91 568 91 564 C91 560 94 556 99 556 L146 556 C152 556 156 558 161 565 L241 681 C243 685 245 688 245 691 C245 696 240 700 235 700 L235 700 Z M98 0 L140 0 C150 0 157 7 157 17 L157 483 C157 492 150 500 140 500 L98 500 C88 500 82 492 82 483 L82 17 C82 7 88 0 98 0 L98 0 Z " />
<glyph glyph-name="icircumflex" unicode="&#xee;" horiz-adv-x="239" d="M236 577 L166 689 C161 696 154 700 148 700 L92 700 C86 700 78 697 73 689 L3 578 C1 575 -3 568 -3 564 C-3 560 0 556 6 556 L51 556 C56 556 61 558 66 565 L120 644 L174 565 C178 558 183 556 188 556 L234 556 C239 556 242 560 242 564 C242 568 238 575 236 577 L236 577 Z M140 500 L98 500 C88 500 82 492 82 483 L82 17 C82 7 88 0 98 0 L140 0 C150 0 157 7 157 17 L157 483 C157 492 150 500 140 500 L140 500 Z " />
<glyph glyph-name="idieresis" unicode="&#xef;" horiz-adv-x="239" d="M34 680 C5 680 -14 660 -14 632 C-14 603 5 583 34 583 C62 583 82 603 82 632 C82 660 62 680 34 680 L34 680 Z M208 680 C179 680 160 660 160 632 C160 603 179 583 208 583 C236 583 256 603 256 632 C256 660 236 680 208 680 L208 680 Z M98 0 L140 0 C150 0 157 7 157 17 L157 483 C157 492 150 500 140 500 L98 500 C88 500 82 492 82 483 L82 17 C82 7 88 0 98 0 L98 0 Z " />
<glyph glyph-name="eth" unicode="&#xf0;" horiz-adv-x="514" d="M402 623 L443 660 C453 670 454 679 448 686 L431 703 C423 711 413 711 404 702 L359 660 C318 686 265 700 200 700 L188 700 C181 700 176 695 176 689 L176 652 C176 643 180 636 194 636 C239 636 277 627 307 611 L251 559 C242 550 242 543 249 535 L266 518 C273 511 282 511 290 519 L350 574 C375 542 388 497 388 440 L388 416 C352 451 303 468 258 468 C138 468 53 386 53 252 L53 206 C53 70 141 -10 257 -10 C372 -10 461 72 461 212 L461 428 C461 511 442 577 402 623 L402 623 Z M386 207 C386 110 332 57 257 57 C183 57 129 110 129 207 L129 251 C129 348 183 401 257 401 C332 401 386 350 386 251 L386 207 Z " />
<glyph glyph-name="ntilde" unicode="&#xf1;" horiz-adv-x="552" d="M146 566 L178 566 C187 566 192 572 192 578 C193 600 200 614 219 614 C253 614 276 567 335 567 C394 567 419 609 419 665 C419 673 413 679 405 679 L374 679 C366 679 361 673 361 665 C361 640 351 629 334 629 C303 629 273 678 217 678 C170 678 133 640 133 579 C133 571 138 566 146 566 L146 566 Z M93 0 L135 0 C145 0 152 7 152 17 L152 293 C152 390 204 443 278 443 C353 443 404 390 404 293 L404 17 C404 7 411 0 421 0 L463 0 C473 0 480 7 480 17 L480 288 C480 420 416 510 293 510 C218 510 177 475 152 434 L152 483 C152 492 145 500 135 500 L93 500 C83 500 77 492 77 483 L77 17 C77 7 83 0 93 0 L93 0 Z " />
<glyph glyph-name="ograve" unicode="&#xf2;" horiz-adv-x="514" d="M142 700 L199 700 C205 700 213 697 217 689 L280 578 C281 575 286 568 286 564 C286 560 283 556 277 556 L230 556 C225 556 221 558 216 565 L136 681 C134 685 132 688 132 691 C132 696 137 700 142 700 L142 700 Z M53 288 L53 212 C53 72 141 -10 257 -10 C372 -10 461 72 461 212 L461 288 C461 428 372 510 257 510 C141 510 53 428 53 288 L53 288 Z M129 207 L129 293 C129 390 183 443 257 443 C332 443 386 390 386 293 L386 207 C386 110 332 57 257 57 C183 57 129 110 129 207 L129 207 Z " />
<glyph glyph-name="oacute" unicode="&#xf3;" horiz-adv-x="514" d="M373 700 L315 700 C309 700 302 697 298 689 L235 578 C233 575 228 568 228 564 C228 560 231 556 237 556 L284 556 C289 556 294 558 299 565 L378 681 C381 685 382 688 382 691 C382 696 378 700 373 700 L373 700 Z M53 288 L53 212 C53 72 141 -10 257 -10 C372 -10 461 72 461 212 L461 288 C461 428 372 510 257 510 C141 510 53 428 53 288 L53 288 Z M129 207 L129 293 C129 390 183 443 257 443 C332 443 386 390 386 293 L386 207 C386 110 332 57 257 57 C183 57 129 110 129 207 L129 207 Z " />
<glyph glyph-name="ocircumflex" unicode="&#xf4;" horiz-adv-x="514" d="M143 556 L189 556 C194 556 199 558 203 565 L257 644 L311 565 C316 558 320 556 326 556 L371 556 C377 556 380 560 380 564 C380 568 375 575 374 577 L304 689 C299 696 291 700 286 700 L230 700 C224 700 216 697 211 689 L141 578 C139 575 135 568 135 564 C135 560 138 556 143 556 L143 556 Z M257 510 C141 510 53 428 53 288 L53 212 C53 72 141 -10 257 -10 C372 -10 461 72 461 212 L461 288 C461 428 372 510 257 510 L257 510 Z M386 207 C386 110 332 57 257 57 C183 57 129 110 129 207 L129 293 C129 390 183 443 257 443 C332 443 386 390 386 293 L386 207 Z " />
<glyph glyph-name="otilde" unicode="&#xf5;" horiz-adv-x="514" d="M128 566 L159 566 C168 566 173 572 173 578 C174 600 182 614 201 614 C234 614 258 567 317 567 C375 567 400 609 400 665 C400 673 394 679 386 679 L355 679 C348 679 342 673 342 665 C342 640 332 629 315 629 C285 629 255 678 198 678 C151 678 114 640 114 579 C114 571 120 566 128 566 L128 566 Z M53 288 L53 212 C53 72 141 -10 257 -10 C372 -10 461 72 461 212 L461 288 C461 428 372 510 257 510 C141 510 53 428 53 288 L53 288 Z M129 207 L129 293 C129 390 183 443 257 443 C332 443 386 390 386 293 L386 207 C386 110 332 57 257 57 C183 57 129 110 129 207 L129 207 Z " />
<glyph glyph-name="odieresis" unicode="&#xf6;" horiz-adv-x="514" d="M171 680 C143 680 124 660 124 632 C124 603 143 583 171 583 C200 583 220 603 220 632 C220 660 200 680 171 680 L171 680 Z M345 680 C317 680 298 660 298 632 C298 603 317 583 345 583 C374 583 394 603 394 632 C394 660 374 680 345 680 L345 680 Z M53 288 L53 212 C53 72 141 -10 257 -10 C372 -10 461 72 461 212 L461 288 C461 428 372 510 257 510 C141 510 53 428 53 288 L53 288 Z M129 207 L129 293 C129 390 183 443 257 443 C332 443 386 390 386 293 L386 207 C386 110 332 57 257 57 C183 57 129 110 129 207 L129 207 Z " />
<glyph glyph-name="divide" unicode="&#xf7;" horiz-adv-x="622" d="M313 625 C279 625 256 602 256 568 C256 535 279 513 313 513 C346 513 369 535 369 568 C369 602 346 625 313 625 L313 625 Z M82 386 L538 386 C548 386 556 379 556 369 L556 332 C556 322 548 315 538 315 L82 315 C73 315 66 322 66 332 L66 369 C66 379 73 386 82 386 L82 386 Z M313 189 C279 189 256 166 256 132 C256 99 279 77 313 77 C346 77 369 99 369 132 C369 166 346 189 313 189 L313 189 Z " />
<glyph glyph-name="oslash" unicode="&#xf8;" horiz-adv-x="514" d="M459 479 C467 490 462 500 450 500 L412 500 C402 500 398 497 390 486 L379 472 C346 497 303 510 257 510 C141 510 53 428 53 288 L53 212 C53 156 67 109 92 73 L54 21 C46 10 51 0 63 0 L101 0 C111 0 115 3 123 14 L134 29 C168 3 210 -10 257 -10 C372 -10 461 72 461 212 L461 288 C461 344 447 391 422 427 L459 479 Z M128 207 L128 293 C128 390 182 443 257 443 C289 443 317 434 339 415 L139 139 C132 158 128 181 128 207 L128 207 Z M386 293 L386 207 C386 110 333 57 257 57 C225 57 197 67 175 85 L375 362 C382 343 386 319 386 293 L386 293 Z " />
<glyph glyph-name="ugrave" unicode="&#xf9;" horiz-adv-x="538" d="M154 700 L212 700 C218 700 225 697 229 689 L292 578 C294 575 298 568 298 564 C298 560 295 556 290 556 L243 556 C238 556 233 558 228 565 L149 681 C146 685 145 688 145 691 C145 696 149 700 154 700 L154 700 Z M444 500 L402 500 C392 500 386 492 386 483 L386 207 C386 110 336 57 262 57 C188 57 147 110 147 207 L147 483 C147 492 140 500 130 500 L88 500 C78 500 72 492 72 483 L72 212 C72 72 133 -10 247 -10 C324 -10 364 25 386 61 L386 17 C386 7 392 0 402 0 L444 0 C454 0 461 7 461 17 L461 483 C461 492 454 500 444 500 L444 500 Z " />
<glyph glyph-name="uacute" unicode="&#xfa;" horiz-adv-x="538" d="M385 700 L328 700 C322 700 314 697 310 689 L247 578 C246 575 241 568 241 564 C241 560 244 556 250 556 L296 556 C302 556 306 558 311 565 L391 681 C393 685 395 688 395 691 C395 696 390 700 385 700 L385 700 Z M444 500 L402 500 C392 500 386 492 386 483 L386 207 C386 110 336 57 262 57 C188 57 147 110 147 207 L147 483 C147 492 140 500 130 500 L88 500 C78 500 72 492 72 483 L72 212 C72 72 133 -10 247 -10 C324 -10 364 25 386 61 L386 17 C386 7 392 0 402 0 L444 0 C454 0 461 7 461 17 L461 483 C461 492 454 500 444 500 L444 500 Z " />
<glyph glyph-name="ucircumflex" unicode="&#xfb;" horiz-adv-x="538" d="M156 556 L201 556 C207 556 211 558 216 565 L270 644 L324 565 C329 558 333 556 338 556 L384 556 C389 556 392 560 392 564 C392 568 388 575 387 577 L316 689 C312 696 304 700 298 700 L242 700 C237 700 228 697 223 689 L153 578 C152 575 147 568 147 564 C147 560 150 556 156 556 L156 556 Z M444 500 L402 500 C392 500 386 492 386 483 L386 207 C386 110 336 57 262 57 C188 57 147 110 147 207 L147 483 C147 492 140 500 130 500 L88 500 C78 500 72 492 72 483 L72 212 C72 72 133 -10 247 -10 C324 -10 364 25 386 61 L386 17 C386 7 392 0 402 0 L444 0 C454 0 461 7 461 17 L461 483 C461 492 454 500 444 500 L444 500 Z " />
<glyph glyph-name="udieresis" unicode="&#xfc;" horiz-adv-x="538" d="M184 680 C155 680 136 660 136 632 C136 603 155 583 184 583 C212 583 232 603 232 632 C232 660 212 680 184 680 L184 680 Z M358 680 C329 680 310 660 310 632 C310 603 329 583 358 583 C386 583 406 603 406 632 C406 660 386 680 358 680 L358 680 Z M444 500 L402 500 C392 500 386 492 386 483 L386 207 C386 110 336 57 262 57 C188 57 147 110 147 207 L147 483 C147 492 140 500 130 500 L88 500 C78 500 72 492 72 483 L72 212 C72 72 133 -10 247 -10 C324 -10 364 25 386 61 L386 17 C386 7 392 0 402 0 L444 0 C454 0 461 7 461 17 L461 483 C461 492 454 500 444 500 L444 500 Z " />
<glyph glyph-name="yacute" unicode="&#xfd;" horiz-adv-x="493" d="M226 556 L273 556 C278 556 283 558 288 565 L367 681 C370 685 371 688 371 691 C371 696 367 700 362 700 L304 700 C298 700 291 697 287 689 L224 578 C222 575 218 568 218 564 C218 560 221 556 226 556 L226 556 Z M464 500 L413 500 C406 500 400 497 396 487 L252 97 L101 485 C97 496 89 500 83 500 L32 500 C26 500 21 495 21 489 C21 484 23 478 27 469 L212 6 L191 -52 C175 -96 153 -128 89 -128 L50 -128 C41 -128 34 -136 34 -146 L34 -183 C34 -193 41 -200 50 -200 L92 -200 C194 -200 224 -156 259 -66 L470 471 C473 478 475 485 475 489 C475 495 471 500 464 500 L464 500 Z " />
<glyph glyph-name="thorn" unicode="&#xfe;" horiz-adv-x="539" d="M152 -183 L152 64 C180 20 228 -10 296 -10 C406 -10 486 68 486 214 L486 288 C486 432 408 510 296 510 C226 510 178 478 152 436 L152 683 C152 692 145 700 135 700 L93 700 C83 700 77 692 77 683 L77 -183 C77 -193 83 -200 93 -200 L135 -200 C145 -200 152 -193 152 -183 L152 -183 Z M152 207 L152 298 C152 387 204 443 282 443 C362 443 410 385 410 292 L410 207 C410 114 361 57 282 57 C203 57 152 115 152 207 L152 207 Z " />
<glyph glyph-name="ydieresis" unicode="&#xff;" horiz-adv-x="493" d="M160 583 C189 583 209 603 209 632 C209 660 189 680 160 680 C132 680 113 660 113 632 C113 603 132 583 160 583 L160 583 Z M334 583 C363 583 383 603 383 632 C383 660 363 680 334 680 C306 680 287 660 287 632 C287 603 306 583 334 583 L334 583 Z M464 500 L413 500 C406 500 400 497 396 487 L252 97 L101 485 C97 496 89 500 83 500 L32 500 C26 500 21 495 21 489 C21 484 23 478 27 469 L212 6 L191 -52 C175 -96 153 -128 89 -128 L50 -128 C41 -128 34 -136 34 -146 L34 -183 C34 -193 41 -200 50 -200 L92 -200 C194 -200 224 -156 259 -66 L470 471 C473 478 475 485 475 489 C475 495 471 500 464 500 L464 500 Z " />
<glyph glyph-name="Amacron" unicode="&#x100;" horiz-adv-x="632" d="M192 796 L445 796 C455 796 462 803 462 813 L462 844 C462 854 455 861 445 861 L192 861 C182 861 175 854 175 844 L175 813 C175 803 182 796 192 796 L192 796 Z M603 26 L361 685 C358 693 353 700 343 700 L286 700 C276 700 271 693 268 684 L31 32 C27 23 24 16 24 11 C24 5 29 0 36 0 L86 0 C91 0 97 2 100 11 L162 187 L466 187 L529 11 C531 5 536 0 545 0 L596 0 C603 0 608 5 608 11 C608 15 605 22 603 26 L603 26 Z M188 256 L313 612 L441 256 L188 256 Z " />
<glyph glyph-name="amacron" unicode="&#x101;" horiz-adv-x="504" d="M379 661 C389 661 397 654 397 644 L397 613 C397 603 389 596 379 596 L126 596 C117 596 110 603 110 613 L110 644 C110 654 117 661 126 661 L379 661 Z M432 17 L432 316 C432 403 415 510 244 510 C110 510 76 439 66 378 C66 376 65 373 65 372 C65 363 71 357 80 357 L123 357 C133 357 136 364 138 370 C146 412 165 443 244 443 C348 443 359 381 359 318 L359 284 L225 284 C133 284 41 255 41 137 C41 38 111 -10 202 -10 L222 -10 C280 -10 338 16 359 64 L359 17 C359 7 366 0 376 0 L415 0 C424 0 432 7 432 17 L432 17 Z M227 222 L359 222 L359 190 C359 131 337 55 232 55 L212 55 C158 55 113 81 113 137 C113 197 145 222 227 222 L227 222 Z " />
<glyph glyph-name="Abreve" unicode="&#x102;" horiz-adv-x="632" d="M318 765 C395 765 445 823 445 885 C445 894 439 900 430 900 L395 900 C386 900 381 894 381 885 C381 857 362 827 318 827 C276 827 257 857 257 885 C257 894 251 900 242 900 L207 900 C199 900 193 894 193 885 C193 823 242 765 318 765 L318 765 Z M603 26 L361 685 C358 693 353 700 343 700 L286 700 C276 700 271 693 268 684 L31 32 C27 23 24 16 24 11 C24 5 29 0 36 0 L86 0 C91 0 97 2 100 11 L162 187 L466 187 L529 11 C531 5 536 0 545 0 L596 0 C603 0 608 5 608 11 C608 15 605 22 603 26 L603 26 Z M188 256 L313 612 L441 256 L188 256 Z " />
<glyph glyph-name="abreve" unicode="&#x103;" horiz-adv-x="504" d="M364 700 L329 700 C321 700 315 694 315 685 C315 657 296 627 253 627 C210 627 191 657 191 685 C191 694 185 700 177 700 L142 700 C133 700 127 694 127 685 C127 623 177 565 253 565 C329 565 379 623 379 685 C379 694 373 700 364 700 L364 700 Z M432 17 L432 316 C432 403 415 510 244 510 C110 510 76 439 66 378 C66 376 65 373 65 372 C65 363 71 357 80 357 L123 357 C133 357 136 364 138 370 C146 412 165 443 244 443 C348 443 359 381 359 318 L359 284 L225 284 C133 284 41 255 41 137 C41 38 111 -10 202 -10 L222 -10 C280 -10 338 16 359 64 L359 17 C359 7 366 0 376 0 L415 0 C424 0 432 7 432 17 L432 17 Z M227 222 L359 222 L359 190 C359 131 337 55 232 55 L212 55 C158 55 113 81 113 137 C113 197 145 222 227 222 L227 222 Z " />
<glyph glyph-name="Aogonek" unicode="&#x104;" horiz-adv-x="632" d="M634 -162 L628 -151 C619 -137 614 -136 609 -138 C591 -151 581 -154 566 -154 C539 -154 520 -138 520 -111 C520 -77 534 -48 594 -1 L596 0 C603 0 608 5 608 11 C608 15 605 22 603 26 L361 685 C358 693 353 700 343 700 L286 700 C276 700 271 693 268 684 L31 32 C27 23 24 16 24 11 C24 5 29 0 36 0 L86 0 C91 0 97 2 100 11 L162 187 L466 187 L529 11 L532 5 C474 -43 457 -77 457 -114 C457 -170 500 -206 558 -206 C590 -206 616 -194 634 -179 C638 -174 639 -168 634 -162 L634 -162 Z M188 256 L313 612 L441 256 L188 256 Z " />
<glyph glyph-name="aogonek" unicode="&#x105;" horiz-adv-x="504" d="M456 -162 L449 -151 C440 -137 435 -136 431 -138 C413 -151 403 -154 388 -154 C361 -154 342 -138 342 -111 C342 -77 356 -48 416 -1 L418 0 C426 1 432 8 432 17 L432 316 C432 403 415 510 244 510 C110 510 76 439 66 378 C66 376 65 373 65 372 C65 363 71 357 80 357 L123 357 C133 357 136 364 138 370 C146 412 165 443 244 443 C348 443 359 381 359 318 L359 284 L225 284 C133 284 41 255 41 137 C41 38 111 -10 202 -10 L222 -10 C280 -10 338 16 359 64 L359 17 C359 14 360 11 361 9 C298 -42 279 -76 279 -114 C279 -170 321 -206 380 -206 C411 -206 438 -194 455 -179 C460 -174 460 -168 456 -162 L456 -162 Z M359 190 C359 131 337 55 232 55 L212 55 C158 55 113 81 113 137 C113 197 145 222 227 222 L359 222 L359 190 Z " />
<glyph glyph-name="Cacute" unicode="&#x106;" horiz-adv-x="626" d="M429 900 L371 900 C365 900 358 897 354 889 L291 778 C289 775 284 768 284 764 C284 760 287 756 293 756 L340 756 C345 756 350 758 355 765 L434 881 C437 885 438 888 438 891 C438 896 434 900 429 900 L429 900 Z M559 236 L505 236 C498 236 494 230 493 223 C481 128 418 61 319 61 C219 61 138 135 138 263 L138 437 C138 565 218 639 318 639 C418 639 478 569 491 487 C493 475 498 472 504 472 L555 472 C564 472 570 476 569 487 C554 609 463 710 318 710 C173 710 62 604 62 437 L62 263 C62 97 174 -10 319 -10 C464 -10 563 99 570 223 C570 231 565 236 559 236 L559 236 Z " />
<glyph glyph-name="cacute" unicode="&#x107;" horiz-adv-x="503" d="M367 700 L310 700 C304 700 296 697 292 689 L229 578 C228 575 223 568 223 564 C223 560 226 556 231 556 L278 556 C284 556 288 558 293 565 L373 681 C375 685 377 688 377 691 C377 696 372 700 367 700 L367 700 Z M127 207 L127 293 C127 389 182 443 257 443 C326 443 363 404 379 341 C380 335 384 328 393 328 L441 328 C447 328 452 333 452 340 C452 341 451 343 451 346 C436 424 376 510 257 510 C141 510 53 428 53 288 L53 212 C53 72 142 -10 257 -10 C382 -10 439 85 450 147 C451 152 451 157 451 159 C451 166 447 171 440 171 L392 171 C385 171 381 168 379 159 C359 86 318 57 257 57 C183 57 127 110 127 207 L127 207 Z " />
<glyph glyph-name="Ccircumflex" unicode="&#x108;" horiz-adv-x="626" d="M199 756 L245 756 C250 756 255 758 259 765 L313 844 L367 765 C372 758 376 756 382 756 L427 756 C433 756 436 760 436 764 C436 768 431 775 430 777 L360 889 C355 896 347 900 342 900 L286 900 C280 900 272 897 267 889 L197 778 C195 775 191 768 191 764 C191 760 194 756 199 756 L199 756 Z M559 236 L505 236 C498 236 494 230 493 223 C481 128 418 61 319 61 C219 61 138 135 138 263 L138 437 C138 565 218 639 318 639 C418 639 478 569 491 487 C493 475 498 472 504 472 L555 472 C564 472 570 476 569 487 C554 609 463 710 318 710 C173 710 62 604 62 437 L62 263 C62 97 174 -10 319 -10 C464 -10 563 99 570 223 C570 231 565 236 559 236 L559 236 Z " />
<glyph glyph-name="ccircumflex" unicode="&#x109;" horiz-adv-x="503" d="M138 556 L183 556 C188 556 193 558 198 565 L252 644 L306 565 C310 558 315 556 320 556 L366 556 C371 556 374 560 374 564 C374 568 370 575 368 577 L298 689 C293 696 286 700 280 700 L224 700 C218 700 210 697 205 689 L135 578 C134 575 129 568 129 564 C129 560 132 556 138 556 L138 556 Z M440 171 L392 171 C385 171 381 168 379 159 C359 86 318 57 257 57 C183 57 127 110 127 207 L127 293 C127 389 182 443 257 443 C326 443 363 404 379 341 C380 335 384 328 393 328 L441 328 C447 328 452 333 452 340 C452 341 451 343 451 346 C436 424 376 510 257 510 C141 510 53 428 53 288 L53 212 C53 72 142 -10 257 -10 C382 -10 439 85 450 147 C451 152 451 157 451 159 C451 166 447 171 440 171 L440 171 Z " />
<glyph glyph-name="Cdotaccent" unicode="&#x10a;" horiz-adv-x="626" d="M313 881 C283 881 263 860 263 830 C263 800 283 779 313 779 C343 779 364 800 364 830 C364 860 343 881 313 881 L313 881 Z M559 236 L505 236 C498 236 494 230 493 223 C481 128 418 61 319 61 C219 61 138 135 138 263 L138 437 C138 565 218 639 318 639 C418 639 478 569 491 487 C493 475 498 472 504 472 L555 472 C564 472 570 476 569 487 C554 609 463 710 318 710 C173 710 62 604 62 437 L62 263 C62 97 174 -10 319 -10 C464 -10 563 99 570 223 C570 231 565 236 559 236 L559 236 Z " />
<glyph glyph-name="cdotaccent" unicode="&#x10b;" horiz-adv-x="503" d="M251 681 C221 681 201 660 201 630 C201 600 221 579 251 579 C281 579 302 600 302 630 C302 660 281 681 251 681 L251 681 Z M127 207 L127 293 C127 389 182 443 257 443 C326 443 363 404 379 341 C380 335 384 328 393 328 L441 328 C447 328 452 333 452 340 C452 341 451 343 451 346 C436 424 376 510 257 510 C141 510 53 428 53 288 L53 212 C53 72 142 -10 257 -10 C382 -10 439 85 450 147 C451 152 451 157 451 159 C451 166 447 171 440 171 L392 171 C385 171 381 168 379 159 C359 86 318 57 257 57 C183 57 127 110 127 207 L127 207 Z " />
<glyph glyph-name="Ccaron" unicode="&#x10c;" horiz-adv-x="626" d="M267 767 C272 759 278 756 284 756 L342 756 C347 756 355 760 360 767 L430 879 C431 881 436 888 436 892 C436 896 433 900 427 900 L382 900 C376 900 372 898 367 891 L313 810 L259 891 C255 898 250 900 245 900 L199 900 C194 900 191 896 191 892 C191 888 195 881 197 878 L267 767 Z M559 236 L505 236 C498 236 494 230 493 223 C481 128 418 61 319 61 C219 61 138 135 138 263 L138 437 C138 565 218 639 318 639 C418 639 478 569 491 487 C493 475 498 472 504 472 L555 472 C564 472 570 476 569 487 C554 609 463 710 318 710 C173 710 62 604 62 437 L62 263 C62 97 174 -10 319 -10 C464 -10 563 99 570 223 C570 231 565 236 559 236 L559 236 Z " />
<glyph glyph-name="ccaron" unicode="&#x10d;" horiz-adv-x="503" d="M205 567 C210 559 216 556 222 556 L280 556 C286 556 293 560 298 567 L368 679 C370 681 374 688 374 692 C374 696 371 700 366 700 L320 700 C315 700 310 698 306 691 L252 610 L198 691 C193 698 188 700 183 700 L138 700 C132 700 129 696 129 692 C129 688 134 681 135 678 L205 567 Z M440 171 L392 171 C385 171 381 168 379 159 C359 86 318 57 257 57 C183 57 127 110 127 207 L127 293 C127 389 182 443 257 443 C326 443 363 404 379 341 C380 335 384 328 393 328 L441 328 C447 328 452 333 452 340 C452 341 451 343 451 346 C436 424 376 510 257 510 C141 510 53 428 53 288 L53 212 C53 72 142 -10 257 -10 C382 -10 439 85 450 147 C451 152 451 157 451 159 C451 166 447 171 440 171 L440 171 Z " />
<glyph glyph-name="Dcaron" unicode="&#x10e;" horiz-adv-x="640" d="M274 767 C279 759 285 756 291 756 L349 756 C354 756 362 760 367 767 L437 879 C438 881 443 888 443 892 C443 896 440 900 434 900 L389 900 C383 900 379 898 374 891 L320 810 L266 891 C262 898 257 900 252 900 L206 900 C201 900 198 896 198 892 C198 888 202 881 204 878 L274 767 Z M321 700 L102 700 C92 700 85 692 85 683 L85 17 C85 7 92 0 102 0 L321 0 C466 0 579 106 579 273 L579 428 C579 595 466 700 321 700 L321 700 Z M501 273 C501 146 420 71 321 71 L161 71 L161 629 L321 629 C420 629 501 555 501 427 L501 273 Z " />
<glyph glyph-name="dcaron" unicode="&#x10f;" horiz-adv-x="617" d="M386 17 L386 64 C359 20 311 -10 243 -10 C133 -10 53 68 53 214 L53 288 C53 432 131 510 243 510 C313 510 361 478 386 436 L386 683 C386 692 393 700 403 700 L445 700 C455 700 462 692 462 683 L462 17 C462 7 455 0 445 0 L403 0 C393 0 386 7 386 17 L386 17 Z M557 470 L579 470 C589 470 595 477 597 487 L619 683 C621 692 612 700 602 700 L557 700 C547 700 540 692 540 683 L540 487 C540 477 547 470 557 470 L557 470 Z M386 207 L386 298 C386 387 334 443 257 443 C177 443 129 385 129 292 L129 207 C129 114 178 57 257 57 C335 57 386 115 386 207 L386 207 Z " />
<glyph glyph-name="Dcroat" unicode="&#x110;" horiz-adv-x="640" d="M321 700 L102 700 C92 700 85 692 85 683 L85 380 L9 380 C-1 380 -8 373 -8 363 L-8 337 C-8 328 -1 321 9 321 L85 321 L85 17 C85 7 92 0 102 0 L321 0 C466 0 579 106 579 273 L579 428 C579 595 466 700 321 700 L321 700 Z M501 273 C501 146 420 71 321 71 L161 71 L161 321 L286 321 C294 321 301 327 301 335 L301 365 C301 374 294 380 286 380 L161 380 L161 629 L321 629 C420 629 501 555 501 427 L501 273 Z " />
<glyph glyph-name="dcroat" unicode="&#x111;" horiz-adv-x="540" d="M522 630 L462 630 L462 683 C462 692 455 700 445 700 L403 700 C393 700 386 692 386 683 L386 630 L278 630 C269 630 262 622 262 613 L262 583 C262 573 269 566 278 566 L386 566 L386 436 C361 478 313 510 243 510 C131 510 53 432 53 288 L53 214 C53 68 133 -10 243 -10 C311 -10 359 20 386 64 L386 17 C386 7 393 0 403 0 L445 0 C455 0 462 7 462 17 L462 566 L522 566 C531 566 539 573 539 583 L539 613 C539 622 531 630 522 630 L522 630 Z M386 207 C386 115 335 57 257 57 C178 57 129 114 129 207 L129 292 C129 385 177 443 257 443 C334 443 386 387 386 298 L386 207 Z " />
<glyph glyph-name="Emacron" unicode="&#x112;" horiz-adv-x="563" d="M408 861 C417 861 425 854 425 844 L425 813 C425 803 417 796 408 796 L155 796 C145 796 138 803 138 813 L138 844 C138 854 145 861 155 861 L408 861 Z M517 645 L517 683 C517 692 510 700 500 700 L102 700 C92 700 85 692 85 683 L85 17 C85 7 92 0 102 0 L500 0 C510 0 517 7 517 17 L517 54 C517 64 510 71 500 71 L161 71 L161 319 L433 319 C442 319 450 325 450 335 L450 373 C450 382 442 390 433 390 L161 390 L161 629 L500 629 C510 629 517 636 517 645 L517 645 Z " />
<glyph glyph-name="emacron" unicode="&#x113;" horiz-adv-x="515" d="M383 661 C393 661 401 654 401 644 L401 613 C401 603 393 596 383 596 L130 596 C121 596 114 603 114 613 L114 644 C114 654 121 661 130 661 L383 661 Z M129 201 L129 223 L444 223 C454 223 462 229 462 239 L462 289 C462 426 373 510 258 510 C142 510 53 428 53 288 L53 212 C53 72 143 -10 259 -10 C328 -10 418 23 451 127 C453 134 455 138 455 142 C455 149 450 154 443 154 L397 154 C387 154 383 147 381 142 C351 65 297 57 259 57 C185 57 129 112 129 201 L129 201 Z M387 283 L129 283 L129 297 C129 390 184 443 258 443 C333 443 387 390 387 297 L387 283 Z " />
<glyph glyph-name="Ebreve" unicode="&#x114;" horiz-adv-x="563" d="M392 900 L358 900 C349 900 343 894 343 885 C343 857 324 827 281 827 C238 827 220 857 220 885 C220 894 214 900 205 900 L170 900 C161 900 156 894 156 885 C156 823 205 765 281 765 C357 765 407 823 407 885 C407 894 401 900 392 900 L392 900 Z M517 645 L517 683 C517 692 510 700 500 700 L102 700 C92 700 85 692 85 683 L85 17 C85 7 92 0 102 0 L500 0 C510 0 517 7 517 17 L517 54 C517 64 510 71 500 71 L161 71 L161 319 L433 319 C442 319 450 325 450 335 L450 373 C450 382 442 390 433 390 L161 390 L161 629 L500 629 C510 629 517 636 517 645 L517 645 Z " />
<glyph glyph-name="ebreve" unicode="&#x115;" horiz-adv-x="515" d="M368 700 L333 700 C325 700 319 694 319 685 C319 657 300 627 257 627 C214 627 195 657 195 685 C195 694 189 700 181 700 L146 700 C137 700 131 694 131 685 C131 623 181 565 257 565 C333 565 383 623 383 685 C383 694 377 700 368 700 L368 700 Z M129 201 L129 223 L444 223 C454 223 462 229 462 239 L462 289 C462 426 373 510 258 510 C142 510 53 428 53 288 L53 212 C53 72 143 -10 259 -10 C328 -10 418 23 451 127 C453 134 455 138 455 142 C455 149 450 154 443 154 L397 154 C387 154 383 147 381 142 C351 65 297 57 259 57 C185 57 129 112 129 201 L129 201 Z M387 283 L129 283 L129 297 C129 390 184 443 258 443 C333 443 387 390 387 297 L387 283 Z " />
<glyph glyph-name="Edotaccent" unicode="&#x116;" horiz-adv-x="563" d="M281 881 C251 881 231 860 231 830 C231 800 251 779 281 779 C311 779 332 800 332 830 C332 860 311 881 281 881 L281 881 Z M517 645 L517 683 C517 692 510 700 500 700 L102 700 C92 700 85 692 85 683 L85 17 C85 7 92 0 102 0 L500 0 C510 0 517 7 517 17 L517 54 C517 64 510 71 500 71 L161 71 L161 319 L433 319 C442 319 450 325 450 335 L450 373 C450 382 442 390 433 390 L161 390 L161 629 L500 629 C510 629 517 636 517 645 L517 645 Z " />
<glyph glyph-name="edotaccent" unicode="&#x117;" horiz-adv-x="515" d="M257 681 C227 681 207 660 207 630 C207 600 227 579 257 579 C287 579 308 600 308 630 C308 660 287 681 257 681 L257 681 Z M129 201 L129 223 L444 223 C454 223 462 229 462 239 L462 289 C462 426 373 510 258 510 C142 510 53 428 53 288 L53 212 C53 72 143 -10 259 -10 C328 -10 418 23 451 127 C453 134 455 138 455 142 C455 149 450 154 443 154 L397 154 C387 154 383 147 381 142 C351 65 297 57 259 57 C185 57 129 112 129 201 L129 201 Z M387 283 L129 283 L129 297 C129 390 184 443 258 443 C333 443 387 390 387 297 L387 283 Z " />
<glyph glyph-name="Eogonek" unicode="&#x118;" horiz-adv-x="563" d="M515 -162 L508 -151 C499 -137 494 -136 490 -138 C472 -151 462 -154 447 -154 C420 -154 401 -138 401 -111 C401 -77 414 -48 475 -1 L476 0 L500 0 C510 0 517 7 517 17 L517 54 C517 64 510 71 500 71 L161 71 L161 319 L433 319 C442 319 450 325 450 335 L450 373 C450 382 442 390 433 390 L161 390 L161 629 L500 629 C510 629 517 636 517 645 L517 683 C517 692 510 700 500 700 L102 700 C92 700 85 692 85 683 L85 17 C85 7 92 0 102 0 L409 0 C355 -46 338 -78 338 -114 C338 -170 380 -206 438 -206 C470 -206 496 -194 514 -179 C519 -174 519 -168 515 -162 L515 -162 Z " />
<glyph glyph-name="eogonek" unicode="&#x119;" horiz-adv-x="515" d="M258 510 C142 510 53 428 53 288 L53 212 C53 72 143 -10 259 -10 L265 -10 C221 -49 208 -81 208 -114 C208 -170 250 -206 308 -206 C340 -206 366 -194 381 -181 C389 -174 389 -168 384 -161 L373 -143 C369 -137 364 -136 356 -141 C342 -151 332 -154 314 -154 C290 -154 271 -138 271 -111 C271 -77 286 -49 347 0 L380 28 C411 49 436 81 451 127 C453 134 455 138 455 142 C455 149 450 154 443 154 L397 154 C387 154 383 147 381 142 C351 65 297 57 259 57 C185 57 129 112 129 201 L129 223 L444 223 C454 223 462 229 462 239 L462 289 C462 426 373 510 258 510 L258 510 Z M387 283 L129 283 L129 297 C129 389 184 443 258 443 C333 443 387 390 387 297 L387 283 Z " />
<glyph glyph-name="Ecaron" unicode="&#x11a;" horiz-adv-x="563" d="M235 767 C240 759 246 756 252 756 L310 756 C316 756 323 760 328 767 L398 879 C400 881 404 888 404 892 C404 896 401 900 395 900 L350 900 C345 900 340 898 335 891 L281 810 L227 891 C223 898 218 900 213 900 L167 900 C162 900 159 896 159 892 C159 888 163 881 165 878 L235 767 Z M500 629 C510 629 517 636 517 645 L517 683 C517 692 510 700 500 700 L102 700 C92 700 85 692 85 683 L85 17 C85 7 92 0 102 0 L500 0 C510 0 517 7 517 17 L517 54 C517 64 510 71 500 71 L161 71 L161 319 L433 319 C442 319 450 325 450 335 L450 373 C450 382 442 390 433 390 L161 390 L161 629 L500 629 Z " />
<glyph glyph-name="ecaron" unicode="&#x11b;" horiz-adv-x="515" d="M211 567 C216 559 222 556 228 556 L286 556 C291 556 299 560 304 567 L374 679 C375 681 380 688 380 692 C380 696 377 700 371 700 L326 700 C320 700 316 698 311 691 L257 610 L203 691 C199 698 194 700 189 700 L143 700 C138 700 135 696 135 692 C135 688 139 681 141 678 L211 567 Z M258 510 C142 510 53 428 53 288 L53 212 C53 72 143 -10 259 -10 C328 -10 418 23 451 127 C453 134 455 138 455 142 C455 149 450 154 443 154 L397 154 C387 154 383 147 381 142 C351 65 297 57 259 57 C185 57 129 112 129 201 L129 223 L444 223 C454 223 462 229 462 239 L462 289 C462 426 373 510 258 510 L258 510 Z M387 283 L129 283 L129 297 C129 390 184 443 258 443 C333 443 387 390 387 297 L387 283 Z " />
<glyph glyph-name="Gcircumflex" unicode="&#x11c;" horiz-adv-x="649" d="M210 756 L256 756 C261 756 266 758 270 765 L324 844 L378 765 C383 758 388 756 393 756 L438 756 C444 756 447 760 447 764 C447 768 442 775 441 777 L371 889 C366 896 359 900 353 900 L297 900 C291 900 283 897 278 889 L208 778 C206 775 202 768 202 764 C202 760 205 756 210 756 L210 756 Z M553 356 L325 356 C315 356 308 348 308 339 L308 303 C308 293 315 286 325 286 L497 286 L497 234 C497 166 445 61 320 61 C220 61 138 135 138 263 L138 435 C138 564 219 639 319 639 C426 639 484 560 494 487 C495 476 499 472 507 472 L560 472 C567 472 571 476 571 482 C571 486 571 490 569 498 C549 613 465 710 319 710 C173 710 62 603 62 437 L62 263 C62 114 156 -10 317 -10 C397 -10 468 27 501 87 L501 17 C501 7 508 0 518 0 L553 0 C563 0 571 7 571 17 L571 339 C571 348 563 356 553 356 L553 356 Z " />
<glyph glyph-name="gcircumflex" unicode="&#x11d;" horiz-adv-x="516" d="M145 570 L191 570 C196 570 201 572 205 579 L259 658 L313 579 C318 572 323 570 328 570 L373 570 C379 570 382 574 382 578 C382 582 377 589 376 591 L306 703 C301 710 294 714 288 714 L232 714 C226 714 218 711 213 703 L143 592 C141 589 137 582 137 578 C137 574 140 570 145 570 L145 570 Z M324 83 L195 83 C145 83 124 95 124 128 C124 160 145 174 179 174 L283 174 C393 174 465 244 465 342 L465 543 C465 553 457 560 447 560 L411 560 C402 560 395 553 395 543 L395 468 C360 498 319 510 278 510 L251 510 C143 510 69 439 69 342 C69 291 85 253 132 217 C78 207 55 171 55 129 C55 94 70 65 107 49 C66 24 45 -14 45 -65 C45 -145 103 -210 213 -210 L324 -210 C434 -210 492 -146 492 -65 C492 18 434 83 324 83 L324 83 Z M256 448 L278 448 C350 448 391 401 391 341 C391 282 349 236 278 236 L256 236 C184 236 142 283 142 342 C142 401 184 448 256 448 L256 448 Z M314 -147 L223 -147 C147 -147 119 -115 119 -65 C119 -15 147 21 223 21 L314 21 C390 21 418 -15 418 -65 C418 -115 390 -147 314 -147 L314 -147 Z " />
<glyph glyph-name="Gbreve" unicode="&#x11e;" horiz-adv-x="649" d="M435 900 L401 900 C392 900 386 894 386 885 C386 857 367 827 324 827 C281 827 263 857 263 885 C263 894 257 900 248 900 L213 900 C204 900 199 894 199 885 C199 823 248 765 324 765 C400 765 450 823 450 885 C450 894 444 900 435 900 L435 900 Z M325 286 L497 286 L497 234 C497 166 445 61 320 61 C220 61 138 135 138 263 L138 435 C138 564 219 639 319 639 C426 639 484 560 494 487 C495 476 499 472 507 472 L560 472 C567 472 571 476 571 482 C571 486 571 490 569 498 C549 613 465 710 319 710 C173 710 62 603 62 437 L62 263 C62 114 156 -10 317 -10 C397 -10 468 27 501 87 L501 17 C501 7 508 0 518 0 L553 0 C563 0 571 7 571 17 L571 339 C571 348 563 356 553 356 L325 356 C315 356 308 348 308 339 L308 303 C308 293 315 286 325 286 L325 286 Z " />
<glyph glyph-name="gbreve" unicode="&#x11f;" horiz-adv-x="516" d="M259 565 C335 565 385 623 385 685 C385 694 379 700 370 700 L336 700 C327 700 321 694 321 685 C321 657 302 627 259 627 C216 627 198 657 198 685 C198 694 192 700 183 700 L148 700 C139 700 134 694 134 685 C134 623 183 565 259 565 L259 565 Z M324 83 L195 83 C145 83 124 95 124 128 C124 160 145 174 179 174 L283 174 C393 174 465 244 465 342 L465 543 C465 553 457 560 447 560 L411 560 C402 560 395 553 395 543 L395 468 C360 498 319 510 278 510 L251 510 C143 510 69 439 69 342 C69 291 85 253 132 217 C78 207 55 171 55 129 C55 94 70 65 107 49 C66 24 45 -14 45 -65 C45 -145 103 -210 213 -210 L324 -210 C434 -210 492 -146 492 -65 C492 18 434 83 324 83 L324 83 Z M256 448 L278 448 C350 448 391 401 391 341 C391 282 349 236 278 236 L256 236 C184 236 142 283 142 342 C142 401 184 448 256 448 L256 448 Z M314 -147 L223 -147 C147 -147 119 -115 119 -65 C119 -15 147 21 223 21 L314 21 C390 21 418 -15 418 -65 C418 -115 390 -147 314 -147 L314 -147 Z " />
<glyph glyph-name="Gdotaccent" unicode="&#x120;" horiz-adv-x="649" d="M324 881 C294 881 274 860 274 830 C274 800 294 779 324 779 C354 779 375 800 375 830 C375 860 354 881 324 881 L324 881 Z M325 286 L497 286 L497 234 C497 166 445 61 320 61 C220 61 138 135 138 263 L138 435 C138 564 219 639 319 639 C426 639 484 560 494 487 C495 476 499 472 507 472 L560 472 C567 472 571 476 571 482 C571 486 571 490 569 498 C549 613 465 710 319 710 C173 710 62 603 62 437 L62 263 C62 114 156 -10 317 -10 C397 -10 468 27 501 87 L501 17 C501 7 508 0 518 0 L553 0 C563 0 571 7 571 17 L571 339 C571 348 563 356 553 356 L325 356 C315 356 308 348 308 339 L308 303 C308 293 315 286 325 286 L325 286 Z " />
<glyph glyph-name="gdotaccent" unicode="&#x121;" horiz-adv-x="516" d="M264 579 C294 579 315 600 315 630 C315 660 294 681 264 681 C234 681 214 660 214 630 C214 600 234 579 264 579 L264 579 Z M324 83 L195 83 C145 83 124 95 124 128 C124 160 145 174 179 174 L283 174 C393 174 465 244 465 342 L465 543 C465 553 457 560 447 560 L411 560 C402 560 395 553 395 543 L395 468 C360 498 319 510 278 510 L251 510 C143 510 69 439 69 342 C69 291 85 253 132 217 C78 207 55 171 55 129 C55 94 70 65 107 49 C66 24 45 -14 45 -65 C45 -145 103 -210 213 -210 L324 -210 C434 -210 492 -146 492 -65 C492 18 434 83 324 83 L324 83 Z M256 448 L278 448 C350 448 391 401 391 341 C391 282 349 236 278 236 L256 236 C184 236 142 283 142 342 C142 401 184 448 256 448 L256 448 Z M314 -147 L223 -147 C147 -147 119 -115 119 -65 C119 -15 147 21 223 21 L314 21 C390 21 418 -15 418 -65 C418 -115 390 -147 314 -147 L314 -147 Z " />
<glyph glyph-name="Gcommaaccent" unicode="&#x122;" horiz-adv-x="649" d="M325 286 L497 286 L497 234 C497 166 445 61 320 61 C220 61 138 135 138 263 L138 435 C138 564 219 639 319 639 C426 639 484 560 494 487 C495 476 499 472 507 472 L560 472 C567 472 571 476 571 482 C571 486 571 490 569 498 C549 613 465 710 319 710 C173 710 62 603 62 437 L62 263 C62 114 156 -10 317 -10 C397 -10 468 27 501 87 L501 17 C501 7 508 0 518 0 L553 0 C563 0 571 7 571 17 L571 339 C571 348 563 356 553 356 L325 356 C315 356 308 348 308 339 L308 303 C308 293 315 286 325 286 L325 286 Z M324 -51 C297 -51 279 -70 279 -96 C279 -126 297 -140 322 -142 C319 -171 306 -188 286 -204 C281 -208 279 -208 279 -217 L279 -246 C279 -253 282 -254 284 -254 C298 -254 371 -221 371 -114 C371 -70 353 -51 324 -51 L324 -51 Z " />
<glyph glyph-name="gcommaaccent" unicode="&#x123;" horiz-adv-x="516" d="M268 562 C295 562 313 581 313 607 C313 637 295 651 270 653 C272 682 286 699 306 715 C311 719 313 719 313 728 L313 757 C313 764 310 765 307 765 C294 765 220 732 220 625 C220 581 239 562 268 562 L268 562 Z M324 83 L195 83 C145 83 124 95 124 128 C124 160 145 174 179 174 L283 174 C393 174 465 244 465 342 L465 543 C465 553 457 560 447 560 L411 560 C402 560 395 553 395 543 L395 468 C360 498 319 510 278 510 L251 510 C143 510 69 439 69 342 C69 291 85 253 132 217 C78 207 55 171 55 129 C55 94 70 65 107 49 C66 24 45 -14 45 -65 C45 -145 103 -210 213 -210 L324 -210 C434 -210 492 -146 492 -65 C492 18 434 83 324 83 L324 83 Z M256 448 L278 448 C350 448 391 401 391 341 C391 282 349 236 278 236 L256 236 C184 236 142 283 142 342 C142 401 184 448 256 448 L256 448 Z M314 -147 L223 -147 C147 -147 119 -115 119 -65 C119 -15 147 21 223 21 L314 21 C390 21 418 -15 418 -65 C418 -115 390 -147 314 -147 L314 -147 Z " />
<glyph glyph-name="Hcircumflex" unicode="&#x124;" horiz-adv-x="661" d="M217 756 L262 756 C268 756 272 758 277 765 L331 844 L385 765 C390 758 394 756 399 756 L445 756 C450 756 453 760 453 764 C453 768 449 775 447 777 L377 889 C372 896 365 900 359 900 L303 900 C298 900 289 897 284 889 L214 778 C213 775 208 768 208 764 C208 760 211 756 217 756 L217 756 Z M559 700 L517 700 C507 700 500 692 500 683 L500 395 L161 395 L161 683 C161 692 154 700 144 700 L102 700 C92 700 85 692 85 683 L85 17 C85 7 92 0 102 0 L144 0 C154 0 161 7 161 17 L161 323 L500 323 L500 17 C500 7 507 0 517 0 L559 0 C569 0 576 7 576 17 L576 683 C576 692 569 700 559 700 L559 700 Z " />
<glyph glyph-name="hcircumflex" unicode="&#x125;" horiz-adv-x="553" d="M89 752 L135 752 C140 752 145 754 149 761 L203 840 L257 761 C262 754 266 752 272 752 L317 752 C323 752 326 756 326 761 C326 764 321 771 320 773 L250 885 C245 893 237 896 232 896 L176 896 C170 896 162 893 157 885 L87 774 C85 771 81 764 81 761 C81 756 84 752 89 752 L89 752 Z M294 510 C220 510 178 475 154 435 L154 683 C154 692 146 700 137 700 L95 700 C85 700 78 692 78 683 L78 17 C78 7 85 0 95 0 L137 0 C146 0 154 7 154 17 L154 293 C154 389 205 443 279 443 C354 443 406 389 406 293 L406 17 C406 7 412 0 422 0 L464 0 C474 0 481 7 481 17 L481 288 C481 420 417 510 294 510 L294 510 Z " />
<glyph glyph-name="Hbar" unicode="&#x126;" horiz-adv-x="661" d="M638 578 L576 578 L576 683 C576 692 569 700 559 700 L517 700 C507 700 500 692 500 683 L500 578 L161 578 L161 683 C161 692 154 700 144 700 L102 700 C92 700 85 692 85 683 L85 578 L23 578 C13 578 7 570 7 561 L7 531 C7 521 13 514 23 514 L85 514 L85 17 C85 7 92 0 102 0 L144 0 C154 0 161 7 161 17 L161 323 L500 323 L500 17 C500 7 507 0 517 0 L559 0 C569 0 576 7 576 17 L576 514 L638 514 C647 514 655 521 655 531 L655 561 C655 570 647 578 638 578 L638 578 Z M500 395 L161 395 L161 514 L500 514 L500 395 Z " />
<glyph glyph-name="hbar" unicode="&#x127;" horiz-adv-x="553" d="M294 510 C220 510 178 475 154 435 L154 566 L261 566 C271 566 278 573 278 583 L278 613 C278 622 271 630 261 630 L154 630 L154 683 C154 692 146 700 137 700 L95 700 C85 700 78 692 78 683 L78 630 L18 630 C8 630 1 622 1 613 L1 583 C1 573 8 566 18 566 L78 566 L78 17 C78 7 85 0 95 0 L137 0 C146 0 154 7 154 17 L154 293 C154 389 205 443 279 443 C354 443 406 389 406 293 L406 17 C406 7 412 0 422 0 L464 0 C474 0 481 7 481 17 L481 288 C481 420 417 510 294 510 L294 510 Z " />
<glyph glyph-name="Itilde" unicode="&#x128;" horiz-adv-x="246" d="M-6 766 L25 766 C34 766 39 772 39 778 C40 800 48 814 67 814 C100 814 124 767 183 767 C241 767 266 809 266 865 C266 873 260 879 252 879 L221 879 C214 879 208 873 208 865 C208 840 198 829 181 829 C150 829 120 878 64 878 C17 878 -20 840 -20 779 C-20 771 -15 766 -6 766 L-6 766 Z M102 0 L144 0 C154 0 161 7 161 17 L161 683 C161 692 154 700 144 700 L102 700 C92 700 85 692 85 683 L85 17 C85 7 92 0 102 0 L102 0 Z " />
<glyph glyph-name="itilde" unicode="&#x129;" horiz-adv-x="239" d="M-10 566 L22 566 C30 566 35 572 36 578 C37 600 44 614 63 614 C97 614 120 567 179 567 C238 567 263 609 263 665 C263 673 256 679 248 679 L218 679 C210 679 204 673 204 665 C204 640 194 629 177 629 C147 629 117 678 61 678 C14 678 -24 640 -24 579 C-24 571 -18 566 -10 566 L-10 566 Z M98 0 L140 0 C150 0 157 7 157 17 L157 483 C157 492 150 500 140 500 L98 500 C88 500 82 492 82 483 L82 17 C82 7 88 0 98 0 L98 0 Z " />
<glyph glyph-name="Imacron" unicode="&#x12a;" horiz-adv-x="246" d="M249 861 C259 861 267 854 267 844 L267 813 C267 803 259 796 249 796 L-4 796 C-14 796 -20 803 -20 813 L-20 844 C-20 854 -14 861 -4 861 L249 861 Z M102 0 L144 0 C154 0 161 7 161 17 L161 683 C161 692 154 700 144 700 L102 700 C92 700 85 692 85 683 L85 17 C85 7 92 0 102 0 L102 0 Z " />
<glyph glyph-name="imacron" unicode="&#x12b;" horiz-adv-x="239" d="M246 661 C255 661 263 654 263 644 L263 613 C263 603 255 596 246 596 L-7 596 C-17 596 -24 603 -24 613 L-24 644 C-24 654 -17 661 -7 661 L246 661 Z M98 0 L140 0 C150 0 157 7 157 17 L157 483 C157 492 150 500 140 500 L98 500 C88 500 82 492 82 483 L82 17 C82 7 88 0 98 0 L98 0 Z " />
<glyph glyph-name="Ibreve" unicode="&#x12c;" horiz-adv-x="246" d="M234 900 L199 900 C191 900 185 894 185 885 C185 857 166 827 123 827 C80 827 61 857 61 885 C61 894 55 900 47 900 L12 900 C3 900 -3 894 -3 885 C-3 823 46 765 123 765 C199 765 249 823 249 885 C249 894 243 900 234 900 L234 900 Z M102 0 L144 0 C154 0 161 7 161 17 L161 683 C161 692 154 700 144 700 L102 700 C92 700 85 692 85 683 L85 17 C85 7 92 0 102 0 L102 0 Z " />
<glyph glyph-name="ibreve" unicode="&#x12d;" horiz-adv-x="239" d="M231 700 L196 700 C187 700 181 694 181 685 C181 657 162 627 119 627 C77 627 58 657 58 685 C58 694 52 700 43 700 L8 700 C-1 700 -6 694 -6 685 C-6 623 43 565 119 565 C195 565 245 623 245 685 C245 694 239 700 231 700 L231 700 Z M98 0 L140 0 C150 0 157 7 157 17 L157 483 C157 492 150 500 140 500 L98 500 C88 500 82 492 82 483 L82 17 C82 7 88 0 98 0 L98 0 Z " />
<glyph glyph-name="Iogonek" unicode="&#x12e;" horiz-adv-x="246" d="M185 -162 L178 -151 C169 -137 165 -136 160 -138 C142 -151 132 -154 117 -154 C90 -154 71 -138 71 -111 C71 -77 85 -48 145 -1 L147 0 C155 1 161 8 161 17 L161 683 C161 692 154 700 144 700 L102 700 C92 700 85 692 85 683 L85 17 C85 13 86 10 88 7 C27 -43 8 -76 8 -114 C8 -170 50 -206 109 -206 C141 -206 167 -194 184 -179 C189 -174 189 -168 185 -162 L185 -162 Z " />
<glyph glyph-name="iogonek" unicode="&#x12f;" horiz-adv-x="239" d="M119 601 C149 601 170 622 170 652 C170 682 149 703 119 703 C89 703 69 682 69 652 C69 622 89 601 119 601 L119 601 Z M180 -160 L171 -150 C161 -137 158 -136 154 -139 C137 -152 126 -156 110 -156 C83 -156 64 -139 64 -111 C64 -75 81 -48 141 -1 L143 0 C151 1 157 8 157 17 L157 483 C157 492 150 500 140 500 L98 500 C88 500 82 492 82 483 L82 17 C82 13 83 10 84 7 C23 -42 5 -76 5 -113 C5 -170 47 -206 105 -206 C139 -206 167 -190 180 -174 C183 -170 184 -165 180 -160 L180 -160 Z " />
<glyph glyph-name="Idotaccent" unicode="&#x130;" horiz-adv-x="246" d="M123 881 C93 881 72 860 72 830 C72 800 93 779 123 779 C153 779 174 800 174 830 C174 860 153 881 123 881 L123 881 Z M102 0 L144 0 C154 0 161 7 161 17 L161 683 C161 692 154 700 144 700 L102 700 C92 700 85 692 85 683 L85 17 C85 7 92 0 102 0 L102 0 Z " />
<glyph glyph-name="dotlessi" unicode="&#x131;" horiz-adv-x="239" d="M98 0 L140 0 C150 0 157 7 157 17 L157 483 C157 492 150 500 140 500 L98 500 C88 500 82 492 82 483 L82 17 C82 7 88 0 98 0 L98 0 Z " />
<glyph glyph-name="IJ" unicode="&#x132;" horiz-adv-x="734" d="M102 0 L144 0 C154 0 161 7 161 17 L161 683 C161 692 154 700 144 700 L102 700 C92 700 85 692 85 683 L85 17 C85 7 92 0 102 0 L102 0 Z M646 700 L604 700 C594 700 587 692 587 683 L587 203 C587 107 528 61 462 61 C397 61 337 107 337 203 L337 227 C337 237 330 245 320 245 L279 245 C269 245 262 237 262 227 L262 205 C262 68 359 -10 462 -10 C570 -10 663 68 663 205 L663 683 C663 692 656 700 646 700 L646 700 Z " />
<glyph glyph-name="ij" unicode="&#x133;" horiz-adv-x="478" d="M358 703 C328 703 308 682 308 652 C308 622 328 601 358 601 C388 601 409 622 409 652 C409 682 388 703 358 703 L358 703 Z M119 703 C89 703 69 682 69 652 C69 622 89 601 119 601 C149 601 170 622 170 652 C170 682 149 703 119 703 L119 703 Z M98 0 L140 0 C150 0 157 7 157 17 L157 483 C157 492 150 500 140 500 L98 500 C88 500 82 492 82 483 L82 17 C82 7 88 0 98 0 L98 0 Z M379 500 L337 500 C327 500 321 492 321 483 L321 3 C321 -94 289 -128 218 -128 C208 -128 201 -136 201 -146 L201 -183 C201 -193 208 -200 218 -200 C334 -200 397 -143 397 3 L397 483 C397 492 389 500 379 500 L379 500 Z " />
<glyph glyph-name="Jcircumflex" unicode="&#x134;" horiz-adv-x="487" d="M492 777 L422 889 C417 896 409 900 404 900 L348 900 C342 900 334 897 329 889 L259 778 C257 775 253 768 253 764 C253 760 256 756 261 756 L307 756 C312 756 317 758 321 765 L375 844 L429 765 C434 758 438 756 444 756 L489 756 C495 756 498 760 498 764 C498 768 493 775 492 777 L492 777 Z M400 700 L358 700 C348 700 341 692 341 683 L341 203 C341 107 281 61 216 61 C150 61 91 107 91 203 L91 227 C91 237 83 245 74 245 L32 245 C23 245 16 237 16 227 L16 205 C16 68 113 -10 216 -10 C324 -10 417 68 417 205 L417 683 C417 692 410 700 400 700 L400 700 Z " />
<glyph glyph-name="jcircumflex" unicode="&#x135;" horiz-adv-x="239" d="M236 577 L166 689 C161 696 154 700 148 700 L92 700 C86 700 78 697 73 689 L3 578 C1 575 -3 568 -3 564 C-3 560 0 556 6 556 L51 556 C56 556 61 558 66 565 L120 644 L174 565 C178 558 183 556 188 556 L234 556 C239 556 242 560 242 564 C242 568 238 575 236 577 L236 577 Z M140 500 L98 500 C88 500 82 492 82 483 L82 3 C82 -94 50 -128 -21 -128 C-31 -128 -38 -136 -38 -146 L-38 -183 C-38 -193 -31 -200 -21 -200 C95 -200 157 -143 157 3 L157 483 C157 492 150 500 140 500 L140 500 Z " />
<glyph glyph-name="Kcommaaccent" unicode="&#x136;" horiz-adv-x="612" d="M333 410 L570 668 C577 675 583 681 583 689 C583 695 578 700 572 700 L517 700 C507 700 500 693 490 682 L161 322 L161 683 C161 692 154 700 144 700 L102 700 C92 700 85 692 85 683 L85 17 C85 7 92 0 102 0 L144 0 C154 0 161 7 161 17 L161 225 L279 354 L493 14 C497 7 503 0 513 0 L571 0 C578 0 582 5 582 11 C582 16 579 21 574 29 L333 410 Z M305 -51 C278 -51 260 -70 260 -96 C260 -126 278 -140 303 -142 C301 -171 287 -188 267 -204 C262 -208 261 -208 261 -217 L261 -246 C261 -253 263 -254 266 -254 C279 -254 353 -221 353 -114 C353 -70 334 -51 305 -51 L305 -51 Z " />
<glyph glyph-name="kcommaaccent" unicode="&#x137;" horiz-adv-x="511" d="M481 31 L297 277 L462 470 C469 478 473 483 473 489 C473 495 469 500 462 500 L410 500 C396 500 389 494 380 482 L154 214 L154 683 C154 692 146 700 137 700 L95 700 C85 700 78 692 78 683 L78 17 C78 7 85 0 95 0 L137 0 C146 0 154 7 154 17 L154 118 L244 224 L400 14 C405 7 412 0 421 0 L479 0 C486 0 490 5 490 11 C490 17 485 24 481 31 L481 31 Z M255 -51 C228 -51 210 -70 210 -96 C210 -126 228 -140 253 -142 C251 -171 237 -188 217 -204 C212 -208 210 -208 210 -217 L210 -246 C210 -253 213 -254 215 -254 C229 -254 302 -221 302 -114 C302 -70 284 -51 255 -51 L255 -51 Z " />
<glyph glyph-name="Lacute" unicode="&#x139;" horiz-adv-x="552" d="M236 900 L178 900 C172 900 165 897 160 889 L97 778 C96 775 91 768 91 764 C91 760 94 756 100 756 L147 756 C152 756 157 758 161 765 L241 881 C243 885 245 888 245 891 C245 896 241 900 236 900 L236 900 Z M524 17 L524 54 C524 64 517 71 507 71 L161 71 L161 683 C161 692 154 700 144 700 L102 700 C92 700 85 692 85 683 L85 17 C85 7 92 0 102 0 L507 0 C517 0 524 7 524 17 L524 17 Z " />
<glyph glyph-name="lacute" unicode="&#x13a;" horiz-adv-x="232" d="M231 896 L174 896 C168 896 160 893 156 885 L93 774 C92 771 87 764 87 760 C87 755 90 752 96 752 L143 752 C148 752 153 754 157 761 L237 877 C239 880 241 884 241 887 C241 892 236 896 231 896 L231 896 Z M95 0 L137 0 C146 0 154 7 154 17 L154 683 C154 692 146 700 137 700 L95 700 C85 700 78 692 78 683 L78 17 C78 7 85 0 95 0 L95 0 Z " />
<glyph glyph-name="Lcommaaccent" unicode="&#x13b;" horiz-adv-x="552" d="M524 17 L524 54 C524 64 517 71 507 71 L161 71 L161 683 C161 692 154 700 144 700 L102 700 C92 700 85 692 85 683 L85 17 C85 7 92 0 102 0 L507 0 C517 0 524 7 524 17 L524 17 Z M290 -51 C263 -51 245 -70 245 -96 C245 -126 263 -140 288 -142 C286 -171 272 -188 252 -204 C247 -208 245 -208 245 -217 L245 -246 C245 -253 248 -254 250 -254 C264 -254 337 -221 337 -114 C337 -70 319 -51 290 -51 L290 -51 Z " />
<glyph glyph-name="lcommaaccent" unicode="&#x13c;" horiz-adv-x="232" d="M95 0 L137 0 C146 0 154 7 154 17 L154 683 C154 692 146 700 137 700 L95 700 C85 700 78 692 78 683 L78 17 C78 7 85 0 95 0 L95 0 Z M115 -51 C89 -51 70 -70 70 -96 C70 -126 88 -140 113 -142 C111 -171 98 -188 78 -204 C72 -208 71 -208 71 -217 L71 -246 C71 -253 73 -254 76 -254 C89 -254 163 -221 163 -114 C163 -70 145 -51 115 -51 L115 -51 Z " />
<glyph glyph-name="Lcaron" unicode="&#x13d;" horiz-adv-x="552" d="M524 17 L524 54 C524 64 517 71 507 71 L161 71 L161 683 C161 692 154 700 144 700 L102 700 C92 700 85 692 85 683 L85 17 C85 7 92 0 102 0 L507 0 C517 0 524 7 524 17 L524 17 Z M360 470 L383 470 C392 470 398 477 400 487 L422 683 C424 692 415 700 405 700 L360 700 C350 700 343 692 343 683 L343 487 C343 477 350 470 360 470 L360 470 Z " />
<glyph glyph-name="lcaron" unicode="&#x13e;" horiz-adv-x="308" d="M95 0 L137 0 C146 0 154 7 154 17 L154 683 C154 692 146 700 137 700 L95 700 C85 700 78 692 78 683 L78 17 C78 7 85 0 95 0 L95 0 Z M248 470 L271 470 C281 470 287 477 288 487 L311 683 C312 692 303 700 294 700 L248 700 C239 700 232 692 232 683 L232 487 C232 477 239 470 248 470 L248 470 Z " />
<glyph glyph-name="Ldot" unicode="&#x13f;" horiz-adv-x="552" d="M524 17 L524 54 C524 64 517 71 507 71 L161 71 L161 683 C161 692 154 700 144 700 L102 700 C92 700 85 692 85 683 L85 17 C85 7 92 0 102 0 L507 0 C517 0 524 7 524 17 L524 17 Z M367 465 C333 465 309 441 309 407 C309 372 333 350 367 350 C402 350 425 372 425 407 C425 441 402 465 367 465 L367 465 Z " />
<glyph glyph-name="ldot" unicode="&#x140;" horiz-adv-x="280" d="M95 0 L137 0 C146 0 154 7 154 17 L154 683 C154 692 146 700 137 700 L95 700 C85 700 78 692 78 683 L78 17 C78 7 85 0 95 0 L95 0 Z M267 465 C233 465 209 441 209 407 C209 372 233 350 267 350 C302 350 325 372 325 407 C325 441 302 465 267 465 L267 465 Z " />
<glyph glyph-name="Lslash" unicode="&#x141;" horiz-adv-x="552" d="M507 71 L161 71 L161 358 L299 415 C311 419 313 427 313 436 L313 464 C313 476 304 478 292 473 L161 420 L161 683 C161 692 154 700 144 700 L102 700 C92 700 85 692 85 683 L85 390 L5 357 C-6 353 -8 345 -8 335 L-8 307 C-8 296 1 294 13 298 L85 328 L85 17 C85 7 92 0 102 0 L507 0 C517 0 524 7 524 17 L524 54 C524 64 517 71 507 71 L507 71 Z " />
<glyph glyph-name="lslash" unicode="&#x142;" horiz-adv-x="232" d="M215 444 L154 416 L154 683 C154 692 146 700 137 700 L95 700 C85 700 78 692 78 683 L78 381 L9 350 C-3 345 -5 338 -5 328 L-5 297 C-5 285 5 282 17 288 L78 316 L78 17 C78 7 85 0 95 0 L137 0 C146 0 154 7 154 17 L154 350 L223 382 C235 387 236 394 236 403 L236 435 C236 446 228 450 215 444 L215 444 Z " />
<glyph glyph-name="Nacute" unicode="&#x143;" horiz-adv-x="674" d="M317 756 L364 756 C369 756 374 758 378 765 L458 881 C460 885 462 888 462 891 C462 896 458 900 453 900 L395 900 C389 900 382 897 377 889 L314 778 C313 775 308 768 308 764 C308 760 311 756 317 756 L317 756 Z M572 700 L531 700 C521 700 514 692 514 683 L514 144 L171 686 C168 692 162 700 152 700 L102 700 C92 700 85 692 85 683 L85 17 C85 7 92 0 102 0 L143 0 C152 0 160 7 160 17 L160 573 L510 19 C522 1 530 0 538 0 L572 0 C581 0 589 7 589 17 L589 683 C589 692 581 700 572 700 L572 700 Z " />
<glyph glyph-name="nacute" unicode="&#x144;" horiz-adv-x="552" d="M391 700 L334 700 C328 700 320 697 316 689 L253 578 C252 575 247 568 247 564 C247 560 250 556 256 556 L303 556 C308 556 313 558 317 565 L397 681 C399 685 401 688 401 691 C401 696 396 700 391 700 L391 700 Z M93 0 L135 0 C145 0 152 7 152 17 L152 293 C152 390 204 443 278 443 C353 443 404 390 404 293 L404 17 C404 7 411 0 421 0 L463 0 C473 0 480 7 480 17 L480 288 C480 420 416 510 293 510 C218 510 177 475 152 434 L152 483 C152 492 145 500 135 500 L93 500 C83 500 77 492 77 483 L77 17 C77 7 83 0 93 0 L93 0 Z " />
<glyph glyph-name="Ncommaaccent" unicode="&#x145;" horiz-adv-x="674" d="M572 700 L531 700 C521 700 514 692 514 683 L514 144 L171 686 C168 692 162 700 152 700 L102 700 C92 700 85 692 85 683 L85 17 C85 7 92 0 102 0 L143 0 C152 0 160 7 160 17 L160 573 L510 19 C522 1 530 0 538 0 L572 0 C581 0 589 7 589 17 L589 683 C589 692 581 700 572 700 L572 700 Z M336 -51 C310 -51 291 -70 291 -96 C291 -126 309 -140 334 -142 C332 -171 319 -188 299 -204 C293 -208 292 -208 292 -217 L292 -246 C292 -253 294 -254 297 -254 C310 -254 384 -221 384 -114 C384 -70 366 -51 336 -51 L336 -51 Z " />
<glyph glyph-name="ncommaaccent" unicode="&#x146;" horiz-adv-x="552" d="M93 0 L135 0 C145 0 152 7 152 17 L152 293 C152 390 204 443 278 443 C353 443 404 390 404 293 L404 17 C404 7 411 0 421 0 L463 0 C473 0 480 7 480 17 L480 288 C480 420 416 510 293 510 C218 510 177 475 152 434 L152 483 C152 492 145 500 135 500 L93 500 C83 500 77 492 77 483 L77 17 C77 7 83 0 93 0 L93 0 Z M275 -51 C248 -51 230 -70 230 -96 C230 -126 248 -140 273 -142 C271 -171 257 -188 237 -204 C232 -208 231 -208 231 -217 L231 -246 C231 -253 233 -254 236 -254 C249 -254 323 -221 323 -114 C323 -70 304 -51 275 -51 L275 -51 Z " />
<glyph glyph-name="Ncaron" unicode="&#x147;" horiz-adv-x="674" d="M291 767 C296 759 302 756 308 756 L366 756 C371 756 379 760 383 767 L454 879 C455 881 460 888 460 892 C460 896 457 900 451 900 L406 900 C400 900 396 898 391 891 L337 810 L283 891 C278 898 274 900 269 900 L223 900 C217 900 214 896 214 892 C214 888 219 881 221 878 L291 767 Z M572 700 L531 700 C521 700 514 692 514 683 L514 144 L171 686 C168 692 162 700 152 700 L102 700 C92 700 85 692 85 683 L85 17 C85 7 92 0 102 0 L143 0 C152 0 160 7 160 17 L160 573 L510 19 C522 1 530 0 538 0 L572 0 C581 0 589 7 589 17 L589 683 C589 692 581 700 572 700 L572 700 Z " />
<glyph glyph-name="ncaron" unicode="&#x148;" horiz-adv-x="552" d="M229 567 C234 559 241 556 247 556 L305 556 C310 556 318 560 322 567 L393 679 C394 681 398 688 398 692 C398 696 395 700 390 700 L344 700 C339 700 335 698 330 691 L276 610 L222 691 C217 698 213 700 207 700 L162 700 C156 700 153 696 153 692 C153 688 158 681 159 678 L229 567 Z M293 510 C218 510 177 475 152 434 L152 483 C152 492 145 500 135 500 L93 500 C83 500 77 492 77 483 L77 17 C77 7 83 0 93 0 L135 0 C145 0 152 7 152 17 L152 293 C152 390 204 443 278 443 C353 443 404 390 404 293 L404 17 C404 7 411 0 421 0 L463 0 C473 0 480 7 480 17 L480 288 C480 420 416 510 293 510 L293 510 Z " />
<glyph glyph-name="Omacron" unicode="&#x14c;" horiz-adv-x="637" d="M445 861 C455 861 462 854 462 844 L462 813 C462 803 455 796 445 796 L192 796 C182 796 175 803 175 813 L175 844 C175 854 182 861 192 861 L445 861 Z M62 437 L62 263 C62 97 174 -10 319 -10 C464 -10 576 97 576 263 L576 437 C576 603 463 710 318 710 C173 710 62 603 62 437 L62 437 Z M138 263 L138 435 C138 564 218 639 318 639 C418 639 499 564 499 435 L499 263 C499 135 418 61 319 61 C219 61 138 135 138 263 L138 263 Z " />
<glyph glyph-name="omacron" unicode="&#x14d;" horiz-adv-x="514" d="M383 661 C393 661 401 654 401 644 L401 613 C401 603 393 596 383 596 L130 596 C121 596 114 603 114 613 L114 644 C114 654 121 661 130 661 L383 661 Z M53 288 L53 212 C53 72 141 -10 257 -10 C372 -10 461 72 461 212 L461 288 C461 428 372 510 257 510 C141 510 53 428 53 288 L53 288 Z M129 207 L129 293 C129 390 183 443 257 443 C332 443 386 390 386 293 L386 207 C386 110 332 57 257 57 C183 57 129 110 129 207 L129 207 Z " />
<glyph glyph-name="Obreve" unicode="&#x14e;" horiz-adv-x="637" d="M430 900 L395 900 C386 900 381 894 381 885 C381 857 361 827 318 827 C276 827 257 857 257 885 C257 894 251 900 242 900 L207 900 C199 900 193 894 193 885 C193 823 242 765 318 765 C394 765 445 823 445 885 C445 894 438 900 430 900 L430 900 Z M62 437 L62 263 C62 97 174 -10 319 -10 C464 -10 576 97 576 263 L576 437 C576 603 463 710 318 710 C173 710 62 603 62 437 L62 437 Z M138 263 L138 435 C138 564 218 639 318 639 C418 639 499 564 499 435 L499 263 C499 135 418 61 319 61 C219 61 138 135 138 263 L138 263 Z " />
<glyph glyph-name="obreve" unicode="&#x14f;" horiz-adv-x="514" d="M368 700 L333 700 C325 700 319 694 319 685 C319 657 300 627 257 627 C214 627 195 657 195 685 C195 694 189 700 181 700 L146 700 C137 700 131 694 131 685 C131 623 181 565 257 565 C333 565 383 623 383 685 C383 694 377 700 368 700 L368 700 Z M53 288 L53 212 C53 72 141 -10 257 -10 C372 -10 461 72 461 212 L461 288 C461 428 372 510 257 510 C141 510 53 428 53 288 L53 288 Z M129 207 L129 293 C129 390 183 443 257 443 C332 443 386 390 386 293 L386 207 C386 110 332 57 257 57 C183 57 129 110 129 207 L129 207 Z " />
<glyph glyph-name="Ohungarumlaut" unicode="&#x150;" horiz-adv-x="637" d="M358 900 L301 900 C295 900 287 897 283 889 L220 778 C219 775 214 768 214 764 C214 760 217 756 223 756 L270 756 C275 756 280 758 284 765 L364 881 C366 885 368 888 368 891 C368 896 363 900 358 900 L358 900 Z M512 900 L455 900 C449 900 441 897 437 889 L374 778 C373 775 368 768 368 764 C368 760 371 756 377 756 L424 756 C429 756 434 758 438 765 L518 881 C520 885 522 888 522 891 C522 896 517 900 512 900 L512 900 Z M62 437 L62 263 C62 97 174 -10 319 -10 C464 -10 576 97 576 263 L576 437 C576 603 463 710 318 710 C173 710 62 603 62 437 L62 437 Z M138 263 L138 435 C138 564 218 639 318 639 C418 639 499 564 499 435 L499 263 C499 135 418 61 319 61 C219 61 138 135 138 263 L138 263 Z " />
<glyph glyph-name="ohungarumlaut" unicode="&#x151;" horiz-adv-x="514" d="M296 700 L239 700 C233 700 225 697 221 689 L158 578 C157 575 152 568 152 564 C152 560 155 556 161 556 L208 556 C213 556 218 558 222 565 L302 681 C304 685 306 688 306 691 C306 696 301 700 296 700 L296 700 Z M451 700 L394 700 C388 700 380 697 376 689 L313 578 C312 575 307 568 307 564 C307 560 310 556 316 556 L363 556 C368 556 373 558 377 565 L457 681 C459 685 461 688 461 691 C461 696 456 700 451 700 L451 700 Z M53 288 L53 212 C53 72 141 -10 257 -10 C372 -10 461 72 461 212 L461 288 C461 428 372 510 257 510 C141 510 53 428 53 288 L53 288 Z M129 207 L129 293 C129 390 183 443 257 443 C332 443 386 390 386 293 L386 207 C386 110 332 57 257 57 C183 57 129 110 129 207 L129 207 Z " />
<glyph glyph-name="OE" unicode="&#x152;" horiz-adv-x="857" d="M794 629 C804 629 811 636 811 645 L811 683 C811 692 804 700 794 700 L456 700 L308 700 C169 700 62 597 62 437 L62 263 C62 103 170 0 309 0 L437 0 L794 0 C804 0 811 7 811 17 L811 54 C811 64 804 71 794 71 L497 71 L497 319 L727 319 C736 319 744 325 744 335 L744 373 C744 382 736 390 727 390 L497 390 L497 629 L794 629 Z M138 263 L138 435 C138 557 215 629 308 629 L421 629 L421 71 L309 71 C215 71 138 142 138 263 L138 263 Z " />
<glyph glyph-name="oe" unicode="&#x153;" horiz-adv-x="825" d="M575 510 C508 510 450 478 416 421 C380 478 321 510 252 510 C139 510 53 428 53 288 L53 212 C53 72 139 -10 252 -10 C321 -10 379 21 415 77 C449 21 507 -10 576 -10 C642 -10 729 24 761 127 C763 134 765 138 765 142 C765 149 760 154 754 154 L708 154 C698 154 694 147 691 142 C662 66 611 57 576 57 C505 57 451 112 451 201 L451 223 L755 223 C765 223 772 230 772 239 L772 289 C772 426 686 510 575 510 L575 510 Z M375 207 C375 110 324 57 252 57 C180 57 129 110 129 207 L129 293 C129 389 180 443 252 443 C324 443 375 389 375 293 L375 207 Z M698 283 L451 283 L451 297 C451 389 503 443 575 443 C646 443 698 390 698 297 L698 283 Z " />
<glyph glyph-name="Racute" unicode="&#x154;" horiz-adv-x="610" d="M420 900 L363 900 C357 900 349 897 345 889 L282 778 C281 775 276 768 276 764 C276 760 279 756 285 756 L332 756 C337 756 342 758 346 765 L426 881 C428 885 430 888 430 891 C430 896 425 900 420 900 L420 900 Z M161 17 L161 284 L329 284 L470 14 C474 6 478 0 488 0 L544 0 C550 0 555 5 555 11 C555 15 554 19 550 26 L407 295 C509 323 557 396 557 484 L557 499 C557 632 469 700 341 700 L102 700 C92 700 85 692 85 683 L85 17 C85 7 92 0 102 0 L144 0 C154 0 161 7 161 17 L161 17 Z M161 355 L161 629 L337 629 C412 629 481 598 481 499 L481 482 C481 396 412 355 337 355 L161 355 Z " />
<glyph glyph-name="racute" unicode="&#x155;" horiz-adv-x="341" d="M286 700 L229 700 C223 700 215 697 211 689 L148 578 C147 575 142 568 142 564 C142 560 145 556 151 556 L197 556 C203 556 207 558 212 565 L292 681 C294 685 296 688 296 691 C296 696 291 700 286 700 L286 700 Z M93 0 L135 0 C144 0 152 7 152 17 L152 260 C152 342 189 426 289 426 L304 426 C314 426 321 432 321 442 L321 483 C321 492 314 500 304 500 L289 500 C215 500 171 461 149 416 L149 483 C149 492 141 500 131 500 L93 500 C83 500 77 492 77 483 L77 17 C77 7 83 0 93 0 L93 0 Z " />
<glyph glyph-name="Rcommaaccent" unicode="&#x156;" horiz-adv-x="610" d="M161 17 L161 284 L329 284 L470 14 C474 6 478 0 488 0 L544 0 C550 0 555 5 555 11 C555 15 554 19 550 26 L407 295 C509 323 557 396 557 484 L557 499 C557 632 469 700 341 700 L102 700 C92 700 85 692 85 683 L85 17 C85 7 92 0 102 0 L144 0 C154 0 161 7 161 17 L161 17 Z M161 355 L161 629 L337 629 C412 629 481 598 481 499 L481 482 C481 396 412 355 337 355 L161 355 Z M304 -51 C277 -51 259 -70 259 -96 C259 -126 277 -140 302 -142 C300 -171 286 -188 266 -204 C261 -208 259 -208 259 -217 L259 -246 C259 -253 262 -254 265 -254 C278 -254 352 -221 352 -114 C352 -70 333 -51 304 -51 L304 -51 Z " />
<glyph glyph-name="rcommaaccent" unicode="&#x157;" horiz-adv-x="341" d="M93 0 L135 0 C144 0 152 7 152 17 L152 260 C152 342 189 426 289 426 L304 426 C314 426 321 432 321 442 L321 483 C321 492 314 500 304 500 L289 500 C215 500 171 461 149 416 L149 483 C149 492 141 500 131 500 L93 500 C83 500 77 492 77 483 L77 17 C77 7 83 0 93 0 L93 0 Z M117 -51 C91 -51 73 -70 73 -96 C73 -126 90 -140 115 -142 C113 -171 100 -188 80 -204 C74 -208 73 -208 73 -217 L73 -246 C73 -253 75 -254 78 -254 C91 -254 165 -221 165 -114 C165 -70 147 -51 117 -51 L117 -51 Z " />
<glyph glyph-name="Rcaron" unicode="&#x158;" horiz-adv-x="610" d="M258 767 C263 759 270 756 276 756 L333 756 C339 756 347 760 351 767 L422 879 C423 881 427 888 427 892 C427 896 424 900 419 900 L373 900 C368 900 364 898 359 891 L305 810 L251 891 C246 898 242 900 236 900 L191 900 C185 900 182 896 182 892 C182 888 187 881 188 878 L258 767 Z M557 484 L557 499 C557 632 469 700 341 700 L102 700 C92 700 85 692 85 683 L85 17 C85 7 92 0 102 0 L144 0 C154 0 161 7 161 17 L161 284 L329 284 L470 14 C474 6 478 0 488 0 L544 0 C550 0 555 5 555 11 C555 15 554 19 550 26 L407 295 C509 323 557 396 557 484 L557 484 Z M481 482 C481 396 412 355 337 355 L161 355 L161 629 L337 629 C412 629 481 598 481 499 L481 482 Z " />
<glyph glyph-name="rcaron" unicode="&#x159;" horiz-adv-x="341" d="M141 556 L199 556 C205 556 212 560 217 567 L287 679 C289 681 293 688 293 692 C293 696 290 700 285 700 L239 700 C234 700 229 698 225 691 L171 610 L117 691 C112 698 108 700 102 700 L57 700 C51 700 48 696 48 692 C48 688 53 681 54 678 L124 567 C129 559 136 556 141 556 L141 556 Z M304 500 L289 500 C215 500 171 461 149 416 L149 483 C149 492 141 500 131 500 L93 500 C83 500 77 492 77 483 L77 17 C77 7 83 0 93 0 L135 0 C144 0 152 7 152 17 L152 260 C152 342 189 426 289 426 L304 426 C314 426 321 432 321 442 L321 483 C321 492 314 500 304 500 L304 500 Z " />
<glyph glyph-name="Sacute" unicode="&#x15a;" horiz-adv-x="594" d="M413 900 L355 900 C349 900 342 897 338 889 L275 778 C273 775 268 768 268 764 C268 760 271 756 277 756 L324 756 C329 756 334 758 339 765 L418 881 C421 885 422 888 422 891 C422 896 418 900 413 900 L413 900 Z M467 511 L509 511 C519 511 526 518 526 528 C526 601 480 710 302 710 C167 710 71 654 71 526 C71 250 468 371 468 185 C468 92 397 58 303 58 C156 58 127 161 125 205 C124 214 118 222 108 222 L65 222 C56 222 49 214 49 204 C49 122 114 -10 303 -10 C421 -10 544 41 544 185 C544 449 147 324 147 526 C147 618 210 642 301 642 C417 642 446 587 451 527 C452 517 458 511 467 511 L467 511 Z " />
<glyph glyph-name="sacute" unicode="&#x15b;" horiz-adv-x="475" d="M353 700 L296 700 C289 700 282 697 278 689 L215 578 C214 575 209 568 209 564 C209 560 212 556 217 556 L264 556 C270 556 274 558 279 565 L358 681 C361 685 362 688 362 691 C362 696 358 700 353 700 L353 700 Z M237 -10 C339 -10 425 29 425 136 C425 340 130 238 130 374 C130 429 185 445 230 445 C319 445 335 401 342 370 C345 361 348 357 357 357 L400 357 C406 357 413 362 414 370 C414 373 413 376 413 377 C406 404 386 510 232 510 C148 510 57 472 57 372 C57 161 352 265 352 135 C352 76 302 55 238 55 C163 55 129 97 120 134 C117 142 114 146 105 146 L62 146 C55 146 51 142 49 136 C48 133 49 129 49 126 C59 56 123 -10 237 -10 L237 -10 Z " />
<glyph glyph-name="Scircumflex" unicode="&#x15c;" horiz-adv-x="594" d="M183 756 L229 756 C234 756 239 758 243 765 L297 844 L351 765 C356 758 360 756 366 756 L411 756 C417 756 420 760 420 764 C420 768 415 775 414 777 L344 889 C339 896 331 900 326 900 L270 900 C264 900 256 897 251 889 L181 778 C179 775 175 768 175 764 C175 760 178 756 183 756 L183 756 Z M147 526 C147 618 210 642 301 642 C417 642 446 587 451 527 C452 517 458 511 467 511 L509 511 C519 511 526 518 526 528 C526 601 480 710 302 710 C167 710 71 654 71 526 C71 250 468 371 468 185 C468 92 397 58 303 58 C156 58 127 161 125 205 C124 214 118 222 108 222 L65 222 C56 222 49 214 49 204 C49 122 114 -10 303 -10 C421 -10 544 41 544 185 C544 449 147 324 147 526 L147 526 Z " />
<glyph glyph-name="scircumflex" unicode="&#x15d;" horiz-adv-x="475" d="M123 556 L169 556 C174 556 179 558 183 565 L237 644 L291 565 C296 558 301 556 306 556 L351 556 C357 556 360 560 360 564 C360 568 355 575 354 577 L284 689 C279 696 272 700 266 700 L210 700 C204 700 196 697 191 689 L121 578 C119 575 115 568 115 564 C115 560 118 556 123 556 L123 556 Z M130 374 C130 429 185 445 230 445 C319 445 335 401 342 370 C345 361 348 357 357 357 L400 357 C406 357 413 362 414 370 C414 373 413 376 413 377 C406 404 386 510 232 510 C148 510 57 472 57 372 C57 161 352 265 352 135 C352 76 302 55 238 55 C163 55 129 97 120 134 C117 142 114 146 105 146 L62 146 C55 146 51 142 49 136 C48 133 49 129 49 126 C59 56 123 -10 237 -10 C339 -10 425 29 425 136 C425 340 130 238 130 374 L130 374 Z " />
<glyph glyph-name="Scedilla" unicode="&#x15e;" horiz-adv-x="594" d="M544 185 C544 449 147 324 147 526 C147 618 210 642 301 642 C417 642 446 587 451 527 C452 517 458 511 467 511 L509 511 C519 511 526 518 526 528 C526 601 480 710 302 710 C167 710 71 654 71 526 C71 250 468 371 468 185 C468 92 397 58 303 58 C156 58 127 161 125 205 C124 214 118 222 108 222 L65 222 C56 222 49 214 49 204 C49 126 107 4 274 -9 L249 -76 C244 -90 245 -94 254 -98 L269 -104 C275 -106 279 -107 286 -103 C297 -97 304 -91 322 -91 C338 -91 356 -99 356 -121 L356 -124 C356 -153 332 -159 320 -159 C301 -159 289 -154 278 -144 C270 -137 265 -136 260 -142 L245 -160 C241 -165 239 -171 245 -178 C261 -195 289 -206 321 -206 C391 -206 412 -161 412 -124 L412 -120 C412 -64 364 -45 332 -45 C324 -45 318 -46 311 -48 L325 -9 C436 -3 544 50 544 185 L544 185 Z " />
<glyph glyph-name="scedilla" unicode="&#x15f;" horiz-adv-x="475" d="M425 136 C425 340 130 238 130 374 C130 429 185 445 230 445 C319 445 335 401 342 370 C345 361 348 357 357 357 L400 357 C406 357 413 362 414 370 C414 373 413 376 413 377 C406 404 386 510 232 510 C148 510 57 472 57 372 C57 161 352 265 352 135 C352 76 302 55 238 55 C163 55 129 97 120 134 C117 142 114 146 105 146 L62 146 C55 146 51 142 49 136 C48 133 49 129 49 126 C58 64 111 4 204 -8 L179 -76 C173 -90 175 -94 183 -98 L199 -104 C204 -106 209 -107 215 -103 C226 -97 234 -91 251 -91 C267 -91 285 -99 285 -121 L285 -124 C285 -153 262 -159 249 -159 C230 -159 218 -154 207 -144 C199 -137 194 -136 189 -142 L174 -160 C170 -165 168 -171 175 -178 C190 -195 218 -206 250 -206 C320 -206 341 -161 341 -124 L341 -120 C341 -64 293 -45 261 -45 C253 -45 247 -46 240 -48 L254 -10 C349 -5 425 35 425 136 L425 136 Z " />
<glyph glyph-name="Scaron" unicode="&#x160;" horiz-adv-x="594" d="M251 767 C256 759 262 756 268 756 L326 756 C331 756 339 760 344 767 L414 879 C415 881 420 888 420 892 C420 896 417 900 411 900 L366 900 C360 900 356 898 351 891 L297 810 L243 891 C239 898 234 900 229 900 L183 900 C178 900 175 896 175 892 C175 888 179 881 181 878 L251 767 Z M147 526 C147 618 210 642 301 642 C417 642 446 587 451 527 C452 517 458 511 467 511 L509 511 C519 511 526 518 526 528 C526 601 480 710 302 710 C167 710 71 654 71 526 C71 250 468 371 468 185 C468 92 397 58 303 58 C156 58 127 161 125 205 C124 214 118 222 108 222 L65 222 C56 222 49 214 49 204 C49 122 114 -10 303 -10 C421 -10 544 41 544 185 C544 449 147 324 147 526 L147 526 Z " />
<glyph glyph-name="scaron" unicode="&#x161;" horiz-adv-x="475" d="M191 567 C196 559 202 556 208 556 L266 556 C272 556 279 560 284 567 L354 679 C355 681 360 688 360 692 C360 696 357 700 351 700 L306 700 C301 700 296 698 291 691 L237 610 L183 691 C179 698 174 700 169 700 L123 700 C118 700 115 696 115 692 C115 688 119 681 121 678 L191 567 Z M130 374 C130 429 185 445 230 445 C319 445 335 401 342 370 C345 361 348 357 357 357 L400 357 C406 357 413 362 414 370 C414 373 413 376 413 377 C406 404 386 510 232 510 C148 510 57 472 57 372 C57 161 352 265 352 135 C352 76 302 55 238 55 C163 55 129 97 120 134 C117 142 114 146 105 146 L62 146 C55 146 51 142 49 136 C48 133 49 129 49 126 C59 56 123 -10 237 -10 C339 -10 425 29 425 136 C425 340 130 238 130 374 L130 374 Z " />
<glyph glyph-name="uni0162" unicode="&#x162;" horiz-adv-x="572" d="M21 645 L21 683 C21 692 28 700 37 700 L534 700 C544 700 551 692 551 683 L551 645 C551 636 544 629 534 629 L324 629 L324 17 C324 7 316 0 307 0 L265 0 C255 0 248 7 248 17 L248 629 L37 629 C28 629 21 636 21 645 L21 645 Z M285 -51 C259 -51 240 -70 240 -96 C240 -126 258 -140 283 -142 C281 -171 268 -188 248 -204 C242 -208 241 -208 241 -217 L241 -246 C241 -253 243 -254 246 -254 C259 -254 333 -221 333 -114 C333 -70 315 -51 285 -51 L285 -51 Z " />
<glyph glyph-name="uni0163" unicode="&#x163;" horiz-adv-x="337" d="M253 0 L282 0 C291 0 299 7 299 17 L299 53 C299 63 291 70 282 70 L262 70 C179 70 169 94 169 184 L169 432 L282 432 C291 432 299 438 299 448 L299 483 C299 492 291 500 282 500 L169 500 L169 613 C169 622 161 630 151 630 L112 630 C102 630 95 622 95 613 L95 575 C95 512 70 500 17 500 C7 500 0 492 0 483 L0 448 C0 438 7 432 17 432 L94 432 L94 176 C94 59 116 0 253 0 L253 0 Z M165 -51 C139 -51 120 -70 120 -96 C120 -126 138 -140 163 -142 C161 -171 148 -188 128 -204 C122 -208 121 -208 121 -217 L121 -246 C121 -253 123 -254 126 -254 C139 -254 213 -221 213 -114 C213 -70 195 -51 165 -51 L165 -51 Z " />
<glyph glyph-name="Tcaron" unicode="&#x164;" horiz-adv-x="572" d="M240 767 C244 759 251 756 257 756 L315 756 C320 756 328 760 332 767 L403 879 C404 881 409 888 409 892 C409 896 406 900 400 900 L354 900 C349 900 345 898 340 891 L286 810 L232 891 C227 898 223 900 217 900 L172 900 C166 900 163 896 163 892 C163 888 168 881 169 878 L240 767 Z M534 700 L37 700 C28 700 21 692 21 683 L21 645 C21 636 28 629 37 629 L248 629 L248 17 C248 7 255 0 265 0 L307 0 C316 0 324 7 324 17 L324 629 L534 629 C544 629 551 636 551 645 L551 683 C551 692 544 700 534 700 L534 700 Z " />
<glyph glyph-name="tcaron" unicode="&#x165;" horiz-adv-x="337" d="M241 559 L264 559 C273 559 279 566 281 576 L303 772 C305 782 296 789 286 789 L241 789 C231 789 224 782 224 772 L224 576 C224 566 231 559 241 559 L241 559 Z M253 0 L282 0 C291 0 299 7 299 17 L299 53 C299 63 291 70 282 70 L262 70 C179 70 169 94 169 184 L169 432 L282 432 C291 432 299 438 299 448 L299 483 C299 492 291 500 282 500 L169 500 L169 613 C169 622 161 630 151 630 L112 630 C102 630 95 622 95 613 L95 575 C95 512 70 500 17 500 C7 500 0 492 0 483 L0 448 C0 438 7 432 17 432 L94 432 L94 176 C94 59 116 0 253 0 L253 0 Z " />
<glyph glyph-name="Tbar" unicode="&#x166;" horiz-adv-x="572" d="M534 700 L37 700 C28 700 21 692 21 683 L21 645 C21 636 28 629 37 629 L248 629 L248 396 L128 396 C118 396 111 388 111 378 L111 348 C111 339 118 332 128 332 L248 332 L248 17 C248 7 255 0 265 0 L307 0 C316 0 324 7 324 17 L324 332 L444 332 C453 332 461 339 461 348 L461 378 C461 388 453 396 444 396 L324 396 L324 629 L534 629 C544 629 551 636 551 645 L551 683 C551 692 544 700 534 700 L534 700 Z " />
<glyph glyph-name="tbar" unicode="&#x167;" horiz-adv-x="337" d="M282 432 C291 432 299 438 299 448 L299 483 C299 492 291 500 282 500 L169 500 L169 613 C169 622 161 630 151 630 L112 630 C102 630 95 622 95 613 L95 575 C95 512 70 500 17 500 C7 500 0 492 0 483 L0 448 C0 438 7 432 17 432 L94 432 L94 330 L36 330 C26 330 19 322 19 313 L19 283 C19 273 26 266 36 266 L94 266 L94 176 C94 59 116 0 253 0 L282 0 C291 0 299 7 299 17 L299 53 C299 63 291 70 282 70 L262 70 C179 70 169 94 169 184 L169 266 L252 266 C261 266 269 273 269 283 L269 313 C269 322 261 330 252 330 L169 330 L169 432 L282 432 Z " />
<glyph glyph-name="Utilde" unicode="&#x168;" horiz-adv-x="643" d="M192 766 L224 766 C232 766 237 772 238 778 C239 800 246 814 265 814 C298 814 322 767 381 767 C440 767 464 809 464 865 C464 873 458 879 450 879 L420 879 C412 879 406 873 406 865 C406 840 396 829 379 829 C349 829 319 878 263 878 C216 878 178 840 178 779 C178 771 184 766 192 766 L192 766 Z M508 700 L550 700 C560 700 568 692 568 683 L568 260 C568 94 466 -10 322 -10 C178 -10 75 94 75 260 L75 683 C75 692 82 700 92 700 L134 700 C144 700 151 692 151 683 L151 260 C151 133 222 61 322 61 C420 61 492 133 492 260 L492 683 C492 692 499 700 508 700 L508 700 Z " />
<glyph glyph-name="utilde" unicode="&#x169;" horiz-adv-x="538" d="M140 566 L172 566 C181 566 186 572 186 578 C187 600 194 614 213 614 C247 614 270 567 329 567 C388 567 413 609 413 665 C413 673 407 679 398 679 L368 679 C360 679 354 673 354 665 C354 640 345 629 328 629 C297 629 267 678 211 678 C164 678 127 640 127 579 C127 571 132 566 140 566 L140 566 Z M444 500 L402 500 C392 500 386 492 386 483 L386 207 C386 110 336 57 262 57 C188 57 147 110 147 207 L147 483 C147 492 140 500 130 500 L88 500 C78 500 72 492 72 483 L72 212 C72 72 133 -10 247 -10 C324 -10 364 25 386 61 L386 17 C386 7 392 0 402 0 L444 0 C454 0 461 7 461 17 L461 483 C461 492 454 500 444 500 L444 500 Z " />
<glyph glyph-name="Umacron" unicode="&#x16a;" horiz-adv-x="643" d="M448 861 C457 861 465 854 465 844 L465 813 C465 803 457 796 448 796 L195 796 C185 796 178 803 178 813 L178 844 C178 854 185 861 195 861 L448 861 Z M508 700 L550 700 C560 700 568 692 568 683 L568 260 C568 94 466 -10 322 -10 C178 -10 75 94 75 260 L75 683 C75 692 82 700 92 700 L134 700 C144 700 151 692 151 683 L151 260 C151 133 222 61 322 61 C420 61 492 133 492 260 L492 683 C492 692 499 700 508 700 L508 700 Z " />
<glyph glyph-name="umacron" unicode="&#x16b;" horiz-adv-x="538" d="M396 661 C406 661 413 654 413 644 L413 613 C413 603 406 596 396 596 L143 596 C133 596 126 603 126 613 L126 644 C126 654 133 661 143 661 L396 661 Z M444 500 L402 500 C392 500 386 492 386 483 L386 207 C386 110 336 57 262 57 C188 57 147 110 147 207 L147 483 C147 492 140 500 130 500 L88 500 C78 500 72 492 72 483 L72 212 C72 72 133 -10 247 -10 C324 -10 364 25 386 61 L386 17 C386 7 392 0 402 0 L444 0 C454 0 461 7 461 17 L461 483 C461 492 454 500 444 500 L444 500 Z " />
<glyph glyph-name="Ubreve" unicode="&#x16c;" horiz-adv-x="643" d="M433 900 L398 900 C389 900 383 894 383 885 C383 857 364 827 321 827 C278 827 260 857 260 885 C260 894 254 900 245 900 L210 900 C201 900 196 894 196 885 C196 823 245 765 321 765 C397 765 447 823 447 885 C447 894 441 900 433 900 L433 900 Z M508 700 L550 700 C560 700 568 692 568 683 L568 260 C568 94 466 -10 322 -10 C178 -10 75 94 75 260 L75 683 C75 692 82 700 92 700 L134 700 C144 700 151 692 151 683 L151 260 C151 133 222 61 322 61 C420 61 492 133 492 260 L492 683 C492 692 499 700 508 700 L508 700 Z " />
<glyph glyph-name="ubreve" unicode="&#x16d;" horiz-adv-x="538" d="M381 700 L346 700 C337 700 332 694 332 685 C332 657 312 627 269 627 C227 627 208 657 208 685 C208 694 202 700 193 700 L158 700 C150 700 144 694 144 685 C144 623 193 565 269 565 C345 565 396 623 396 685 C396 694 389 700 381 700 L381 700 Z M444 500 L402 500 C392 500 386 492 386 483 L386 207 C386 110 336 57 262 57 C188 57 147 110 147 207 L147 483 C147 492 140 500 130 500 L88 500 C78 500 72 492 72 483 L72 212 C72 72 133 -10 247 -10 C324 -10 364 25 386 61 L386 17 C386 7 392 0 402 0 L444 0 C454 0 461 7 461 17 L461 483 C461 492 454 500 444 500 L444 500 Z " />
<glyph glyph-name="Uring" unicode="&#x16e;" horiz-adv-x="643" d="M321 950 C260 950 213 902 213 843 C213 783 260 737 321 737 C382 737 430 783 430 843 C430 903 382 950 321 950 L321 950 Z M321 789 C292 789 269 811 269 843 C269 873 292 897 321 897 C349 897 374 873 374 843 C374 811 350 789 321 789 L321 789 Z M508 700 L550 700 C560 700 568 692 568 683 L568 260 C568 94 466 -10 322 -10 C178 -10 75 94 75 260 L75 683 C75 692 82 700 92 700 L134 700 C144 700 151 692 151 683 L151 260 C151 133 222 61 322 61 C420 61 492 133 492 260 L492 683 C492 692 499 700 508 700 L508 700 Z " />
<glyph glyph-name="uring" unicode="&#x16f;" horiz-adv-x="538" d="M269 750 C208 750 161 702 161 643 C161 583 208 537 269 537 C330 537 378 583 378 643 C378 703 330 750 269 750 L269 750 Z M269 589 C240 589 217 611 217 643 C217 673 241 697 269 697 C297 697 322 673 322 643 C322 611 298 589 269 589 L269 589 Z M444 500 L402 500 C392 500 386 492 386 483 L386 207 C386 110 336 57 262 57 C188 57 147 110 147 207 L147 483 C147 492 140 500 130 500 L88 500 C78 500 72 492 72 483 L72 212 C72 72 133 -10 247 -10 C324 -10 364 25 386 61 L386 17 C386 7 392 0 402 0 L444 0 C454 0 461 7 461 17 L461 483 C461 492 454 500 444 500 L444 500 Z " />
<glyph glyph-name="Uhungarumlaut" unicode="&#x170;" horiz-adv-x="643" d="M361 900 L304 900 C298 900 290 897 286 889 L223 778 C222 775 217 768 217 764 C217 760 220 756 226 756 L273 756 C278 756 283 758 287 765 L367 881 C369 885 371 888 371 891 C371 896 366 900 361 900 L361 900 Z M515 900 L458 900 C452 900 444 897 440 889 L377 778 C376 775 371 768 371 764 C371 760 374 756 380 756 L427 756 C432 756 437 758 441 765 L521 881 C523 885 525 888 525 891 C525 896 520 900 515 900 L515 900 Z M508 700 L550 700 C560 700 568 692 568 683 L568 260 C568 94 466 -10 322 -10 C178 -10 75 94 75 260 L75 683 C75 692 82 700 92 700 L134 700 C144 700 151 692 151 683 L151 260 C151 133 222 61 322 61 C420 61 492 133 492 260 L492 683 C492 692 499 700 508 700 L508 700 Z " />
<glyph glyph-name="uhungarumlaut" unicode="&#x171;" horiz-adv-x="538" d="M309 700 L252 700 C246 700 238 697 234 689 L171 578 C170 575 165 568 165 564 C165 560 168 556 174 556 L221 556 C226 556 231 558 235 565 L315 681 C317 685 319 688 319 691 C319 696 314 700 309 700 L309 700 Z M463 700 L406 700 C400 700 392 697 388 689 L325 578 C324 575 319 568 319 564 C319 560 322 556 328 556 L375 556 C380 556 385 558 389 565 L469 681 C471 685 473 688 473 691 C473 696 468 700 463 700 L463 700 Z M444 500 L402 500 C392 500 386 492 386 483 L386 207 C386 110 336 57 262 57 C188 57 147 110 147 207 L147 483 C147 492 140 500 130 500 L88 500 C78 500 72 492 72 483 L72 212 C72 72 133 -10 247 -10 C324 -10 364 25 386 61 L386 17 C386 7 392 0 402 0 L444 0 C454 0 461 7 461 17 L461 483 C461 492 454 500 444 500 L444 500 Z " />
<glyph glyph-name="Uogonek" unicode="&#x172;" horiz-adv-x="643" d="M550 700 L508 700 C499 700 492 692 492 683 L492 260 C492 133 420 61 322 61 C222 61 151 133 151 260 L151 683 C151 692 144 700 134 700 L92 700 C82 700 75 692 75 683 L75 260 C75 94 178 -10 322 -10 C329 -10 335 -10 342 -9 C298 -49 284 -80 284 -114 C284 -170 326 -206 385 -206 C416 -206 443 -194 457 -181 C465 -174 465 -168 460 -161 L449 -143 C445 -137 440 -136 432 -141 C418 -151 408 -154 390 -154 C366 -154 347 -138 347 -111 C347 -77 362 -49 424 0 L456 27 C525 71 568 153 568 260 L568 683 C568 692 560 700 550 700 L550 700 Z " />
<glyph glyph-name="uogonek" unicode="&#x173;" horiz-adv-x="539" d="M487 -162 L480 -151 C471 -137 466 -136 462 -138 C444 -151 434 -154 419 -154 C392 -154 373 -138 373 -111 C373 -77 387 -48 447 -1 L448 0 C457 1 463 8 463 17 L463 483 C463 492 455 500 446 500 L404 500 C394 500 387 492 387 483 L387 207 C387 110 338 57 263 57 C189 57 149 110 149 207 L149 483 C149 492 141 500 132 500 L90 500 C80 500 73 492 73 483 L73 212 C73 72 134 -10 249 -10 C326 -10 365 25 387 61 L387 17 C387 13 388 10 389 7 C329 -43 310 -76 310 -114 C310 -170 352 -206 410 -206 C442 -206 469 -194 486 -179 C491 -174 491 -168 487 -162 L487 -162 Z " />
<glyph glyph-name="Wcircumflex" unicode="&#x174;" horiz-adv-x="914" d="M345 756 L390 756 C396 756 400 758 405 765 L459 844 L513 765 C517 758 522 756 527 756 L573 756 C578 756 581 760 581 764 C581 768 577 775 575 777 L505 889 C500 896 493 900 487 900 L431 900 C426 900 417 897 412 889 L342 778 C341 775 336 768 336 764 C336 760 339 756 345 756 L345 756 Z M877 700 L827 700 C816 700 812 691 810 683 L657 107 L502 683 C499 695 492 700 484 700 L433 700 C424 700 419 694 416 683 L261 107 L107 683 C104 697 95 700 89 700 L37 700 C30 700 26 695 26 689 C26 685 28 679 29 673 L214 12 C217 4 223 0 231 0 L289 0 C298 0 305 6 306 12 L458 582 L610 12 C612 5 618 0 626 0 L684 0 C693 0 699 6 701 12 L885 673 C888 682 889 686 889 689 C889 695 884 700 877 700 L877 700 Z " />
<glyph glyph-name="wcircumflex" unicode="&#x175;" horiz-adv-x="725" d="M248 556 L294 556 C299 556 304 558 308 565 L362 644 L416 565 C421 558 426 556 431 556 L476 556 C482 556 485 560 485 564 C485 568 481 575 479 577 L409 689 C404 696 397 700 391 700 L335 700 C329 700 321 697 316 689 L246 578 C244 575 240 568 240 564 C240 560 243 556 248 556 L248 556 Z M697 500 L647 500 C637 500 633 494 630 483 L521 99 L403 483 C400 494 394 500 385 500 L342 500 C331 500 326 493 323 483 L211 97 L95 483 C92 495 85 500 77 500 L29 500 C22 500 17 495 17 489 C17 484 19 477 22 470 L170 12 C172 4 178 0 186 0 L232 0 C242 0 247 6 249 12 L363 398 L480 14 C482 7 486 0 497 0 L542 0 C550 0 556 4 559 12 L703 470 C705 477 708 484 708 489 C708 495 703 500 697 500 L697 500 Z " />
<glyph glyph-name="Ycircumflex" unicode="&#x176;" horiz-adv-x="601" d="M186 756 L232 756 C237 756 242 758 246 765 L300 844 L354 765 C359 758 364 756 369 756 L414 756 C420 756 423 760 423 764 C423 768 418 775 417 777 L347 889 C342 896 335 900 329 900 L273 900 C267 900 259 897 254 889 L184 778 C182 775 178 768 178 764 C178 760 181 756 186 756 L186 756 Z M570 700 L515 700 C508 700 504 696 500 689 L303 366 L103 689 C99 696 94 700 88 700 L31 700 C25 700 20 695 20 689 C20 683 26 674 29 670 L263 295 L263 17 C263 7 270 0 279 0 L321 0 C331 0 339 7 339 17 L339 295 L573 671 C577 677 581 684 581 689 C581 695 576 700 570 700 L570 700 Z " />
<glyph glyph-name="ycircumflex" unicode="&#x177;" horiz-adv-x="493" d="M132 556 L178 556 C183 556 188 558 192 565 L246 644 L300 565 C305 558 309 556 315 556 L360 556 C366 556 369 560 369 564 C369 568 364 575 363 577 L293 689 C288 696 280 700 275 700 L219 700 C213 700 205 697 200 689 L130 578 C128 575 124 568 124 564 C124 560 127 556 132 556 L132 556 Z M464 500 L413 500 C406 500 400 497 396 487 L252 97 L101 485 C97 496 89 500 83 500 L32 500 C26 500 21 495 21 489 C21 484 23 478 27 469 L212 6 L191 -52 C175 -96 153 -128 89 -128 L50 -128 C41 -128 34 -136 34 -146 L34 -183 C34 -193 41 -200 50 -200 L92 -200 C194 -200 224 -156 259 -66 L470 471 C473 478 475 485 475 489 C475 495 471 500 464 500 L464 500 Z " />
<glyph glyph-name="Ydieresis" unicode="&#x178;" horiz-adv-x="601" d="M214 783 C243 783 263 803 263 832 C263 860 243 880 214 880 C186 880 167 860 167 832 C167 803 186 783 214 783 L214 783 Z M388 783 C417 783 437 803 437 832 C437 860 417 880 388 880 C360 880 341 860 341 832 C341 803 360 783 388 783 L388 783 Z M570 700 L515 700 C508 700 504 696 500 689 L303 366 L103 689 C99 696 94 700 88 700 L31 700 C25 700 20 695 20 689 C20 683 26 674 29 670 L263 295 L263 17 C263 7 270 0 279 0 L321 0 C331 0 339 7 339 17 L339 295 L573 671 C577 677 581 684 581 689 C581 695 576 700 570 700 L570 700 Z " />
<glyph glyph-name="Zacute" unicode="&#x179;" horiz-adv-x="562" d="M261 756 L308 756 C313 756 318 758 322 765 L402 881 C404 885 406 888 406 891 C406 896 401 900 396 900 L339 900 C333 900 325 897 321 889 L258 778 C257 775 252 768 252 764 C252 760 255 756 261 756 L261 756 Z M518 656 L518 683 C518 692 510 700 501 700 L60 700 C50 700 44 692 44 683 L44 646 C44 636 50 629 60 629 L423 629 L56 78 C49 69 44 61 44 45 L44 17 C44 7 50 0 60 0 L501 0 C510 0 518 7 518 17 L518 54 C518 63 510 71 501 71 L140 71 L503 618 C512 632 518 640 518 656 L518 656 Z " />
<glyph glyph-name="zacute" unicode="&#x17a;" horiz-adv-x="439" d="M199 556 L246 556 C251 556 256 558 261 565 L340 681 C343 685 344 688 344 691 C344 696 340 700 335 700 L277 700 C271 700 264 697 260 689 L197 578 C195 575 191 568 191 564 C191 560 194 556 199 556 L199 556 Z M403 453 L403 483 C403 492 395 500 385 500 L54 500 C44 500 37 492 37 483 L37 448 C37 439 44 432 54 432 L311 432 L51 76 C42 64 37 58 37 44 L37 17 C37 7 44 0 54 0 L385 0 C395 0 403 7 403 17 L403 51 C403 61 395 68 385 68 L130 68 L390 422 C398 431 403 439 403 453 L403 453 Z " />
<glyph glyph-name="Zdotaccent" unicode="&#x17b;" horiz-adv-x="562" d="M280 779 C310 779 331 800 331 830 C331 860 310 881 280 881 C250 881 230 860 230 830 C230 800 250 779 280 779 L280 779 Z M518 656 L518 683 C518 692 510 700 501 700 L60 700 C50 700 44 692 44 683 L44 646 C44 636 50 629 60 629 L423 629 L56 78 C49 69 44 61 44 45 L44 17 C44 7 50 0 60 0 L501 0 C510 0 518 7 518 17 L518 54 C518 63 510 71 501 71 L140 71 L503 618 C512 632 518 640 518 656 L518 656 Z " />
<glyph glyph-name="zdotaccent" unicode="&#x17c;" horiz-adv-x="439" d="M219 579 C249 579 270 600 270 630 C270 660 249 681 219 681 C189 681 169 660 169 630 C169 600 189 579 219 579 L219 579 Z M403 453 L403 483 C403 492 395 500 385 500 L54 500 C44 500 37 492 37 483 L37 448 C37 439 44 432 54 432 L311 432 L51 76 C42 64 37 58 37 44 L37 17 C37 7 44 0 54 0 L385 0 C395 0 403 7 403 17 L403 51 C403 61 395 68 385 68 L130 68 L390 422 C398 431 403 439 403 453 L403 453 Z " />
<glyph glyph-name="Zcaron" unicode="&#x17d;" horiz-adv-x="562" d="M234 767 C239 759 246 756 252 756 L310 756 C315 756 323 760 327 767 L398 879 C399 881 403 888 403 892 C403 896 400 900 395 900 L349 900 C344 900 340 898 335 891 L281 810 L227 891 C222 898 218 900 212 900 L167 900 C161 900 158 896 158 892 C158 888 163 881 164 878 L234 767 Z M518 656 L518 683 C518 692 510 700 501 700 L60 700 C50 700 44 692 44 683 L44 646 C44 636 50 629 60 629 L423 629 L56 78 C49 69 44 61 44 45 L44 17 C44 7 50 0 60 0 L501 0 C510 0 518 7 518 17 L518 54 C518 63 510 71 501 71 L140 71 L503 618 C512 632 518 640 518 656 L518 656 Z " />
<glyph glyph-name="zcaron" unicode="&#x17e;" horiz-adv-x="439" d="M173 567 C178 559 184 556 190 556 L248 556 C253 556 261 560 266 567 L336 679 C337 681 342 688 342 692 C342 696 339 700 333 700 L288 700 C282 700 278 698 273 691 L219 610 L165 691 C161 698 156 700 151 700 L105 700 C100 700 97 696 97 692 C97 688 101 681 103 678 L173 567 Z M403 453 L403 483 C403 492 395 500 385 500 L54 500 C44 500 37 492 37 483 L37 448 C37 439 44 432 54 432 L311 432 L51 76 C42 64 37 58 37 44 L37 17 C37 7 44 0 54 0 L385 0 C395 0 403 7 403 17 L403 51 C403 61 395 68 385 68 L130 68 L390 422 C398 431 403 439 403 453 L403 453 Z " />
<glyph glyph-name="florin" unicode="&#x192;" horiz-adv-x="334" d="M355 690 L341 690 C220 690 182 638 165 524 L162 500 L84 500 C75 500 69 492 68 483 L63 448 C61 438 70 432 79 432 L152 432 L88 -17 C75 -107 53 -130 -13 -130 L-23 -130 C-33 -130 -39 -137 -41 -147 L-46 -183 C-48 -192 -39 -200 -29 -200 L-17 -200 C107 -200 146 -143 164 -16 L228 432 L325 432 C335 432 341 438 342 448 L347 483 C349 492 340 500 330 500 L238 500 L241 524 C252 597 269 620 334 620 L350 620 C360 620 365 627 367 637 L373 673 C374 682 365 690 355 690 L355 690 Z " />
<glyph glyph-name="uni0218" unicode="&#x218;" horiz-adv-x="594" d="M467 511 L509 511 C519 511 526 518 526 528 C526 601 480 710 302 710 C167 710 71 654 71 526 C71 250 468 371 468 185 C468 92 397 58 303 58 C156 58 127 161 125 205 C124 214 118 222 108 222 L65 222 C56 222 49 214 49 204 C49 122 114 -10 303 -10 C421 -10 544 41 544 185 C544 449 147 324 147 526 C147 618 210 642 301 642 C417 642 446 587 451 527 C452 517 458 511 467 511 L467 511 Z M297 -51 C270 -51 252 -70 252 -96 C252 -126 270 -140 294 -142 C292 -171 279 -188 259 -204 C253 -208 252 -208 252 -217 L252 -246 C252 -253 254 -254 257 -254 C270 -254 344 -221 344 -114 C344 -70 326 -51 297 -51 L297 -51 Z " />
<glyph glyph-name="uni0219" unicode="&#x219;" horiz-adv-x="475" d="M237 -10 C339 -10 425 29 425 136 C425 340 130 238 130 374 C130 429 185 445 230 445 C319 445 335 401 342 370 C345 361 348 357 357 357 L400 357 C406 357 413 362 414 370 C414 373 413 376 413 377 C406 404 386 510 232 510 C148 510 57 472 57 372 C57 161 352 265 352 135 C352 76 302 55 238 55 C163 55 129 97 120 134 C117 142 114 146 105 146 L62 146 C55 146 51 142 49 136 C48 133 49 129 49 126 C59 56 123 -10 237 -10 L237 -10 Z M237 -51 C210 -51 192 -70 192 -96 C192 -126 210 -140 235 -142 C232 -171 219 -188 199 -204 C194 -208 192 -208 192 -217 L192 -246 C192 -253 195 -254 197 -254 C211 -254 284 -221 284 -114 C284 -70 266 -51 237 -51 L237 -51 Z " />
<glyph glyph-name="uni021A" unicode="&#x21a;" horiz-adv-x="572" d="M21 645 L21 683 C21 692 28 700 37 700 L534 700 C544 700 551 692 551 683 L551 645 C551 636 544 629 534 629 L324 629 L324 17 C324 7 316 0 307 0 L265 0 C255 0 248 7 248 17 L248 629 L37 629 C28 629 21 636 21 645 L21 645 Z M285 -51 C259 -51 240 -70 240 -96 C240 -126 258 -140 283 -142 C281 -171 268 -188 248 -204 C242 -208 241 -208 241 -217 L241 -246 C241 -253 243 -254 246 -254 C259 -254 333 -221 333 -114 C333 -70 315 -51 285 -51 L285 -51 Z " />
<glyph glyph-name="uni021B" unicode="&#x21b;" horiz-adv-x="337" d="M253 0 L282 0 C291 0 299 7 299 17 L299 53 C299 63 291 70 282 70 L262 70 C179 70 169 94 169 184 L169 432 L282 432 C291 432 299 438 299 448 L299 483 C299 492 291 500 282 500 L169 500 L169 613 C169 622 161 630 151 630 L112 630 C102 630 95 622 95 613 L95 575 C95 512 70 500 17 500 C7 500 0 492 0 483 L0 448 C0 438 7 432 17 432 L94 432 L94 176 C94 59 116 0 253 0 L253 0 Z M165 -51 C139 -51 120 -70 120 -96 C120 -126 138 -140 163 -142 C161 -171 148 -188 128 -204 C122 -208 121 -208 121 -217 L121 -246 C121 -253 123 -254 126 -254 C139 -254 213 -221 213 -114 C213 -70 195 -51 165 -51 L165 -51 Z " />
<glyph glyph-name="uni0237" unicode="&#x237;" horiz-adv-x="239" d="M140 500 L98 500 C88 500 82 492 82 483 L82 3 C82 -94 50 -128 -21 -128 C-31 -128 -38 -136 -38 -146 L-38 -183 C-38 -193 -31 -200 -21 -200 C95 -200 157 -143 157 3 L157 483 C157 492 150 500 140 500 L140 500 Z " />
<glyph glyph-name="circumflex" unicode="&#x2c6;" horiz-adv-x="305" d="M269 577 L199 689 C194 696 187 700 181 700 L125 700 C120 700 111 697 106 689 L36 578 C35 575 30 568 30 564 C30 560 33 556 39 556 L84 556 C90 556 94 558 99 565 L153 644 L207 565 C211 558 216 556 221 556 L267 556 C272 556 275 560 275 564 C275 568 271 575 269 577 L269 577 Z " />
<glyph glyph-name="caron" unicode="&#x2c7;" horiz-adv-x="334" d="M281 700 L236 700 C230 700 226 698 221 691 L167 610 L113 691 C109 698 104 700 99 700 L53 700 C47 700 44 696 44 692 C44 688 49 681 51 678 L121 567 C126 559 132 556 138 556 L196 556 C201 556 209 560 214 567 L284 679 C285 681 290 688 290 692 C290 696 287 700 281 700 L281 700 Z " />
<glyph glyph-name="breve" unicode="&#x2d8;" horiz-adv-x="337" d="M280 700 L245 700 C236 700 230 694 230 685 C230 657 211 627 168 627 C126 627 107 657 107 685 C107 694 101 700 92 700 L57 700 C49 700 43 694 43 685 C43 623 92 565 168 565 C244 565 295 623 295 685 C295 694 288 700 280 700 L280 700 Z " />
<glyph glyph-name="dotaccent" unicode="&#x2d9;" horiz-adv-x="201" d="M100 681 C70 681 50 660 50 630 C50 600 70 579 100 579 C130 579 151 600 151 630 C151 660 130 681 100 681 L100 681 Z " />
<glyph glyph-name="ring" unicode="&#x2da;" horiz-adv-x="377" d="M188 750 C127 750 80 702 80 643 C80 583 127 537 188 537 C249 537 297 583 297 643 C297 703 249 750 188 750 L188 750 Z M188 589 C159 589 136 611 136 643 C136 673 160 697 188 697 C216 697 241 673 241 643 C241 611 217 589 188 589 L188 589 Z " />
<glyph glyph-name="ogonek" unicode="&#x2db;" horiz-adv-x="287" d="M112 -111 C112 -139 131 -156 158 -156 C174 -156 185 -152 202 -139 C206 -136 209 -137 219 -150 L228 -160 C231 -165 231 -170 228 -174 C214 -190 187 -206 153 -206 C95 -206 53 -170 53 -113 C53 -70 78 -31 167 34 L181 46 L203 10 L189 -1 C129 -48 112 -75 112 -111 L112 -111 Z " />
<glyph glyph-name="tilde" unicode="&#x2dc;" horiz-adv-x="482" d="M111 566 L143 566 C152 566 157 572 157 578 C158 600 165 614 184 614 C218 614 241 567 300 567 C359 567 384 609 384 665 C384 673 378 679 369 679 L339 679 C331 679 325 673 325 665 C325 640 316 629 299 629 C268 629 238 678 182 678 C135 678 98 640 98 579 C98 571 103 566 111 566 L111 566 Z " />
<glyph glyph-name="hungarumlaut" unicode="&#x2dd;" horiz-adv-x="398" d="M239 700 L181 700 C175 700 168 697 164 689 L101 578 C99 575 94 568 94 564 C94 560 97 556 103 556 L150 556 C155 556 160 558 164 565 L244 681 C246 685 248 688 248 691 C248 696 244 700 239 700 L239 700 Z M393 700 L336 700 C330 700 322 697 318 689 L255 578 C254 575 249 568 249 564 C249 560 252 556 258 556 L304 556 C310 556 314 558 319 565 L399 681 C401 685 403 688 403 691 C403 696 398 700 393 700 L393 700 Z " />
<glyph glyph-name="uni0394" unicode="&#x394;" horiz-adv-x="638" d="M606 26 L364 685 C361 693 356 700 346 700 L289 700 C279 700 273 693 270 684 L34 32 C30 23 27 16 27 11 C27 5 32 0 39 0 L69 0 L548 0 L599 0 C606 0 611 5 611 11 C611 15 608 22 606 26 L606 26 Z M316 612 L511 70 L124 70 L316 612 Z " />
<glyph glyph-name="uni03A9" unicode="&#x3a9;" horiz-adv-x="651" d="M617 70 L493 70 C552 107 583 177 583 293 L583 437 C583 603 470 710 325 710 C180 710 68 603 68 437 L68 293 C68 177 98 107 158 70 L34 70 C24 70 17 62 17 52 L17 17 C17 7 24 0 34 0 L253 0 C263 0 270 7 270 17 L270 44 C270 56 266 62 253 70 C170 123 145 170 145 293 L145 435 C145 564 226 639 325 639 C424 639 506 564 506 435 L506 293 C506 170 481 122 398 70 C385 62 381 56 381 44 L381 17 C381 7 388 0 398 0 L617 0 C627 0 634 7 634 17 L634 52 C634 62 627 70 617 70 L617 70 Z " />
<glyph glyph-name="pi" unicode="&#x3c0;" horiz-adv-x="566" d="M534 69 L523 69 C489 69 474 79 474 128 L474 429 L532 429 C542 429 549 436 549 445 L549 483 C549 492 542 500 532 500 L24 500 C14 500 7 492 7 483 L7 445 C7 436 14 429 24 429 L85 429 L85 17 C85 7 92 0 102 0 L144 0 C153 0 161 7 161 17 L161 429 L398 429 L398 128 C398 38 439 0 523 0 L534 0 C544 0 551 8 551 17 L551 52 C551 62 544 69 534 69 L534 69 Z " />
<glyph glyph-name="Wgrave" unicode="&#x1e80;" horiz-adv-x="914" d="M417 765 C422 758 426 756 432 756 L479 756 C484 756 487 760 487 764 C487 768 483 775 481 778 L418 889 C414 897 407 900 400 900 L343 900 C338 900 334 896 334 891 C334 888 335 885 338 881 L417 765 Z M877 700 L827 700 C816 700 812 691 810 683 L657 107 L502 683 C499 695 492 700 484 700 L433 700 C424 700 419 694 416 683 L261 107 L107 683 C104 697 95 700 89 700 L37 700 C30 700 26 695 26 689 C26 685 28 679 29 673 L214 12 C217 4 223 0 231 0 L289 0 C298 0 305 6 306 12 L458 582 L610 12 C612 5 618 0 626 0 L684 0 C693 0 699 6 701 12 L885 673 C888 682 889 686 889 689 C889 695 884 700 877 700 L877 700 Z " />
<glyph glyph-name="wgrave" unicode="&#x1e81;" horiz-adv-x="725" d="M321 565 C326 558 330 556 336 556 L383 556 C388 556 391 560 391 564 C391 568 386 575 385 578 L322 689 C318 697 310 700 304 700 L247 700 C242 700 237 696 237 691 C237 688 239 685 241 681 L321 565 Z M697 500 L647 500 C637 500 633 494 630 483 L521 99 L403 483 C400 494 394 500 385 500 L342 500 C331 500 326 493 323 483 L211 97 L95 483 C92 495 85 500 77 500 L29 500 C22 500 17 495 17 489 C17 484 19 477 22 470 L170 12 C172 4 178 0 186 0 L232 0 C242 0 247 6 249 12 L363 398 L480 14 C482 7 486 0 497 0 L542 0 C550 0 556 4 559 12 L703 470 C705 477 708 484 708 489 C708 495 703 500 697 500 L697 500 Z " />
<glyph glyph-name="Wacute" unicode="&#x1e82;" horiz-adv-x="914" d="M439 756 L485 756 C491 756 495 758 500 765 L580 881 C582 885 584 888 584 891 C584 896 579 900 574 900 L517 900 C511 900 503 897 499 889 L436 778 C435 775 430 768 430 764 C430 760 433 756 439 756 L439 756 Z M877 700 L827 700 C816 700 812 691 810 683 L657 107 L502 683 C499 695 492 700 484 700 L433 700 C424 700 419 694 416 683 L261 107 L107 683 C104 697 95 700 89 700 L37 700 C30 700 26 695 26 689 C26 685 28 679 29 673 L214 12 C217 4 223 0 231 0 L289 0 C298 0 305 6 306 12 L458 582 L610 12 C612 5 618 0 626 0 L684 0 C693 0 699 6 701 12 L885 673 C888 682 889 686 889 689 C889 695 884 700 877 700 L877 700 Z " />
<glyph glyph-name="wacute" unicode="&#x1e83;" horiz-adv-x="725" d="M342 556 L389 556 C395 556 399 558 404 565 L483 681 C486 685 487 688 487 691 C487 696 483 700 478 700 L421 700 C415 700 407 697 403 689 L340 578 C339 575 334 568 334 564 C334 560 337 556 342 556 L342 556 Z M697 500 L647 500 C637 500 633 494 630 483 L521 99 L403 483 C400 494 394 500 385 500 L342 500 C331 500 326 493 323 483 L211 97 L95 483 C92 495 85 500 77 500 L29 500 C22 500 17 495 17 489 C17 484 19 477 22 470 L170 12 C172 4 178 0 186 0 L232 0 C242 0 247 6 249 12 L363 398 L480 14 C482 7 486 0 497 0 L542 0 C550 0 556 4 559 12 L703 470 C705 477 708 484 708 489 C708 495 703 500 697 500 L697 500 Z " />
<glyph glyph-name="Wdieresis" unicode="&#x1e84;" horiz-adv-x="914" d="M373 783 C401 783 421 803 421 832 C421 860 401 880 373 880 C344 880 325 860 325 832 C325 803 344 783 373 783 L373 783 Z M547 783 C575 783 595 803 595 832 C595 860 575 880 547 880 C518 880 499 860 499 832 C499 803 518 783 547 783 L547 783 Z M877 700 L827 700 C816 700 812 691 810 683 L657 107 L502 683 C499 695 492 700 484 700 L433 700 C424 700 419 694 416 683 L261 107 L107 683 C104 697 95 700 89 700 L37 700 C30 700 26 695 26 689 C26 685 28 679 29 673 L214 12 C217 4 223 0 231 0 L289 0 C298 0 305 6 306 12 L458 582 L610 12 C612 5 618 0 626 0 L684 0 C693 0 699 6 701 12 L885 673 C888 682 889 686 889 689 C889 695 884 700 877 700 L877 700 Z " />
<glyph glyph-name="wdieresis" unicode="&#x1e85;" horiz-adv-x="725" d="M277 583 C305 583 325 603 325 632 C325 660 305 680 277 680 C248 680 229 660 229 632 C229 603 248 583 277 583 L277 583 Z M450 583 C479 583 499 603 499 632 C499 660 479 680 450 680 C422 680 403 660 403 632 C403 603 422 583 450 583 L450 583 Z M697 500 L647 500 C637 500 633 494 630 483 L521 99 L403 483 C400 494 394 500 385 500 L342 500 C331 500 326 493 323 483 L211 97 L95 483 C92 495 85 500 77 500 L29 500 C22 500 17 495 17 489 C17 484 19 477 22 470 L170 12 C172 4 178 0 186 0 L232 0 C242 0 247 6 249 12 L363 398 L480 14 C482 7 486 0 497 0 L542 0 C550 0 556 4 559 12 L703 470 C705 477 708 484 708 489 C708 495 703 500 697 500 L697 500 Z " />
<glyph glyph-name="Ygrave" unicode="&#x1ef2;" horiz-adv-x="601" d="M259 765 C264 758 268 756 274 756 L321 756 C326 756 329 760 329 764 C329 768 324 775 323 778 L260 889 C256 897 248 900 242 900 L185 900 C180 900 175 896 175 891 C175 888 177 885 179 881 L259 765 Z M570 700 L515 700 C508 700 504 696 500 689 L303 366 L103 689 C99 696 94 700 88 700 L31 700 C25 700 20 695 20 689 C20 683 26 674 29 670 L263 295 L263 17 C263 7 270 0 279 0 L321 0 C331 0 339 7 339 17 L339 295 L573 671 C577 677 581 684 581 689 C581 695 576 700 570 700 L570 700 Z " />
<glyph glyph-name="ygrave" unicode="&#x1ef3;" horiz-adv-x="493" d="M205 565 C210 558 214 556 220 556 L266 556 C272 556 275 560 275 564 C275 568 270 575 269 578 L206 689 C202 697 194 700 188 700 L131 700 C126 700 121 696 121 691 C121 688 123 685 125 681 L205 565 Z M464 500 L413 500 C406 500 400 497 396 487 L252 97 L101 485 C97 496 89 500 83 500 L32 500 C26 500 21 495 21 489 C21 484 23 478 27 469 L212 6 L191 -52 C175 -96 153 -128 89 -128 L50 -128 C41 -128 34 -136 34 -146 L34 -183 C34 -193 41 -200 50 -200 L92 -200 C194 -200 224 -156 259 -66 L470 471 C473 478 475 485 475 489 C475 495 471 500 464 500 L464 500 Z " />
<glyph glyph-name="endash" unicode="&#x2013;" horiz-adv-x="500" d="M440 281 L440 319 C440 329 432 337 422 337 L77 337 C67 337 60 329 60 319 L60 281 C60 271 67 264 77 264 L422 264 C432 264 440 271 440 281 L440 281 Z " />
<glyph glyph-name="emdash" unicode="&#x2014;" horiz-adv-x="1000" d="M940 281 L940 319 C940 329 932 337 922 337 L77 337 C67 337 60 329 60 319 L60 281 C60 271 67 264 77 264 L922 264 C932 264 940 271 940 281 L940 281 Z " />
<glyph glyph-name="quoteleft" unicode="&#x2018;" horiz-adv-x="220" d="M107 446 C141 446 165 469 165 503 C165 539 142 558 111 561 C115 597 126 622 153 641 C162 647 164 648 164 659 L164 693 C164 702 160 703 156 703 C140 703 46 660 46 524 C46 469 71 446 107 446 L107 446 Z " />
<glyph glyph-name="quoteright" unicode="&#x2019;" horiz-adv-x="220" d="M113 704 C78 704 55 680 55 646 C55 610 78 591 109 589 C104 552 94 528 67 508 C58 502 56 501 56 490 L56 457 C56 448 59 446 64 446 C80 446 173 489 173 625 C173 680 149 704 113 704 L113 704 Z " />
<glyph glyph-name="quotesinglbase" unicode="&#x201a;" horiz-adv-x="216" d="M109 109 C75 109 51 85 51 52 C51 16 74 -4 106 -6 C101 -43 91 -67 63 -87 C54 -92 52 -94 52 -105 L52 -138 C52 -147 56 -149 60 -149 C76 -149 170 -106 170 31 C170 85 145 109 109 109 L109 109 Z " />
<glyph glyph-name="quotedblleft" unicode="&#x201c;" horiz-adv-x="407" d="M107 446 C141 446 165 469 165 503 C165 539 142 558 111 561 C115 597 126 622 153 641 C162 647 164 648 164 659 L164 693 C164 702 160 703 156 703 C140 703 46 660 46 524 C46 469 71 446 107 446 L107 446 Z M294 446 C328 446 352 469 352 503 C352 539 329 558 297 561 C302 597 312 622 340 641 C349 647 351 648 351 659 L351 693 C351 702 347 703 343 703 C327 703 233 660 233 524 C233 469 258 446 294 446 L294 446 Z " />
<glyph glyph-name="quotedblright" unicode="&#x201d;" horiz-adv-x="407" d="M112 704 C77 704 54 680 54 646 C54 610 77 591 108 589 C103 552 93 528 65 508 C56 502 54 501 54 490 L54 457 C54 448 58 446 63 446 C79 446 172 489 172 625 C172 680 147 704 112 704 L112 704 Z M298 704 C264 704 240 680 240 646 C240 610 263 591 295 589 C290 552 280 528 252 508 C243 502 241 501 241 490 L241 457 C241 448 245 446 249 446 C265 446 359 489 359 625 C359 680 334 704 298 704 L298 704 Z " />
<glyph glyph-name="quotedblbase" unicode="&#x201e;" horiz-adv-x="403" d="M108 109 C73 109 50 85 50 52 C50 16 73 -4 104 -6 C99 -43 89 -67 62 -87 C53 -92 51 -94 51 -105 L51 -138 C51 -147 54 -149 59 -149 C75 -149 168 -106 168 31 C168 85 144 109 108 109 L108 109 Z M295 109 C260 109 237 85 237 52 C237 16 260 -4 291 -6 C286 -43 276 -67 248 -87 C239 -92 238 -94 238 -105 L238 -138 C238 -147 241 -149 246 -149 C262 -149 355 -106 355 31 C355 85 331 109 295 109 L295 109 Z " />
<glyph glyph-name="dagger" unicode="&#x2020;" horiz-adv-x="426" d="M386 528 L251 528 L251 683 C251 692 243 700 233 700 L192 700 C182 700 175 692 175 683 L175 528 L39 528 C30 528 23 520 23 510 L23 475 C23 465 30 458 39 458 L175 458 L175 17 C175 7 182 0 192 0 L233 0 C243 0 251 7 251 17 L251 458 L386 458 C396 458 403 465 403 475 L403 510 C403 520 396 528 386 528 L386 528 Z " />
<glyph glyph-name="daggerdbl" unicode="&#x2021;" horiz-adv-x="431" d="M389 462 C398 462 406 468 406 478 L406 513 C406 523 398 531 389 531 L253 531 L253 683 C253 692 246 700 236 700 L195 700 C185 700 178 692 178 683 L178 531 L42 531 C32 531 26 523 26 513 L26 478 C26 468 32 462 42 462 L178 462 L178 248 L42 248 C32 248 26 240 26 230 L26 195 C26 186 32 179 42 179 L178 179 L178 17 C178 7 185 0 195 0 L236 0 C246 0 253 7 253 17 L253 179 L389 179 C398 179 406 186 406 195 L406 230 C406 240 398 248 389 248 L253 248 L253 462 L389 462 Z " />
<glyph glyph-name="bullet" unicode="&#x2022;" horiz-adv-x="243" d="M122 384 C76 384 46 354 46 308 C46 263 76 233 122 233 C167 233 197 263 197 308 C197 354 167 384 122 384 L122 384 Z " />
<glyph glyph-name="ellipsis" unicode="&#x2026;" horiz-adv-x="647" d="M323 109 C289 109 265 85 265 51 C265 16 289 -6 323 -6 C358 -6 381 16 381 51 C381 85 358 109 323 109 L323 109 Z M537 109 C503 109 479 85 479 51 C479 16 503 -6 537 -6 C572 -6 595 16 595 51 C595 85 572 109 537 109 L537 109 Z M109 109 C75 109 51 85 51 51 C51 16 75 -6 109 -6 C144 -6 167 16 167 51 C167 85 144 109 109 109 L109 109 Z " />
<glyph glyph-name="perthousand" unicode="&#x2030;" horiz-adv-x="1224" d="M37 540 L37 501 C37 395 97 336 195 336 C293 336 353 395 353 501 L353 540 C353 646 294 707 195 707 C97 707 37 646 37 540 L37 540 Z M221 0 L265 0 C275 0 279 8 283 14 L644 674 C647 679 649 684 649 689 C649 695 644 700 638 700 L595 700 C584 700 581 694 577 688 L215 25 C212 19 210 15 210 11 C210 5 215 0 221 0 L221 0 Z M104 501 L104 540 C104 609 135 646 195 646 C257 646 287 609 287 540 L287 501 C287 433 256 396 195 396 C134 396 104 432 104 501 L104 501 Z M507 198 L507 159 C507 53 567 -7 665 -7 C763 -7 823 53 823 159 L823 198 C823 304 764 364 665 364 C567 364 507 304 507 198 L507 198 Z M891 198 L891 159 C891 53 951 -7 1048 -7 C1147 -7 1207 53 1207 159 L1207 198 C1207 304 1147 364 1049 364 C951 364 891 304 891 198 L891 198 Z M574 158 L574 198 C574 266 605 303 665 303 C727 303 757 266 757 198 L757 158 C757 90 726 53 665 53 C604 53 574 89 574 158 L574 158 Z M957 158 L957 198 C957 266 988 303 1049 303 C1110 303 1140 266 1140 198 L1140 158 C1140 90 1109 53 1048 53 C987 53 957 89 957 158 L957 158 Z " />
<glyph glyph-name="guilsinglleft" unicode="&#x2039;" horiz-adv-x="327" d="M267 381 L267 435 C267 441 263 444 258 444 C255 444 249 440 246 438 L54 307 C46 301 43 294 43 289 L43 239 C43 234 46 226 54 221 L245 90 C250 86 254 84 258 84 C263 84 267 87 267 93 L267 153 C267 158 264 163 258 167 L112 266 L258 366 C264 370 267 375 267 381 L267 381 Z " />
<glyph glyph-name="guilsinglright" unicode="&#x203a;" horiz-adv-x="327" d="M273 306 L82 437 C76 441 72 443 69 443 C64 443 60 440 60 435 L60 375 C60 369 62 364 69 360 L215 261 L69 161 C63 157 60 152 60 146 L60 92 C60 87 64 84 69 84 C72 84 78 88 81 90 L273 221 C281 226 284 233 284 238 L284 288 C284 294 281 301 273 306 L273 306 Z " />
<glyph glyph-name="fraction" unicode="&#x2044;" horiz-adv-x="135" d="M-141 0 L-97 0 C-87 0 -83 8 -79 14 L282 674 C284 679 287 684 287 689 C287 695 282 700 276 700 L233 700 C222 700 219 694 215 688 L-147 25 C-151 19 -152 15 -152 11 C-152 5 -147 0 -141 0 L-141 0 Z " />
<glyph glyph-name="uni2070" unicode="&#x2070;" horiz-adv-x="400" d="M39 536 L39 449 C39 347 91 280 199 280 C309 280 361 347 361 449 L361 536 C361 639 309 706 200 706 C91 706 39 639 39 536 L39 536 Z M107 447 L107 536 C107 603 134 643 200 643 C267 643 294 603 294 536 L294 447 C294 381 266 342 199 342 C133 342 107 381 107 447 L107 447 Z " />
<glyph glyph-name="uni2074" unicode="&#x2074;" horiz-adv-x="400" d="M376 381 L376 408 C376 416 370 423 361 423 L307 423 L307 685 C307 693 300 700 291 700 L244 700 C234 700 230 696 222 686 L32 433 C25 424 24 420 24 410 L24 381 C24 372 31 366 39 366 L241 366 L241 300 C241 292 247 286 256 286 L291 286 C300 286 307 292 307 300 L307 366 L361 366 C370 366 376 372 376 381 L376 381 Z M242 621 L242 423 L95 423 L242 621 Z " />
<glyph glyph-name="Euro" unicode="&#x20ac;" horiz-adv-x="667" d="M599 236 L546 236 C539 236 535 230 534 223 C522 128 458 61 360 61 C266 61 189 127 180 240 L371 240 C379 240 387 246 387 255 L387 284 C387 293 379 300 371 300 L179 300 L179 393 L371 393 C379 393 387 399 387 407 L387 437 C387 446 379 453 371 453 L180 453 C190 565 267 629 359 629 C458 629 519 559 532 477 C534 465 539 462 545 462 L596 462 C605 462 611 466 610 477 C595 599 504 700 359 700 C221 700 114 605 103 453 L17 453 C7 453 0 445 0 435 L0 409 C0 400 7 393 17 393 L102 393 L102 300 L17 300 C7 300 0 292 0 282 L0 257 C0 247 7 240 17 240 L103 240 C113 87 222 -10 360 -10 C505 -10 604 99 611 223 C611 231 605 236 599 236 L599 236 Z " />
<glyph glyph-name="uni20B9" unicode="&#x20b9;" horiz-adv-x="569" d="M559 655 L559 685 C559 693 552 700 544 700 L250 700 L75 700 C65 700 58 692 58 683 L58 657 C58 647 65 640 75 640 L247 640 C316 640 379 613 389 528 L76 528 C66 528 59 521 59 511 L59 485 C59 475 66 468 76 468 L389 468 C380 391 317 355 247 355 L77 355 C67 355 60 347 60 338 L60 306 C60 296 67 289 77 289 L236 289 L380 14 C383 6 388 0 398 0 L454 0 C460 0 465 5 465 11 C465 15 464 19 460 26 L316 295 C413 321 460 387 466 468 L544 468 C552 468 559 474 559 483 L559 513 C559 522 552 528 544 528 L465 528 C459 575 439 615 408 640 L544 640 C552 640 559 646 559 655 L559 655 Z " />
<glyph glyph-name="uni2113" unicode="&#x2113;" horiz-adv-x="437" d="M350 93 C311 76 284 70 254 70 C192 70 165 101 165 182 L165 222 C292 254 390 314 390 492 C390 644 325 705 235 705 C140 705 92 637 92 542 L92 272 L23 257 C11 254 6 250 6 240 L6 207 C6 196 12 189 21 191 L92 206 L92 183 C92 60 140 0 251 0 C292 0 330 13 355 28 C364 33 371 40 371 56 L371 77 C371 92 361 97 350 93 L350 93 Z M237 640 C289 640 318 600 318 492 C318 349 244 311 165 289 L165 544 C165 601 184 640 237 640 L237 640 Z " />
<glyph glyph-name="trademark" unicode="&#x2122;" horiz-adv-x="598" d="M227 700 L22 700 C16 700 12 697 12 690 L12 661 C12 655 16 652 22 652 L97 652 L97 419 C97 412 101 408 107 408 L142 408 C149 408 152 412 152 419 L152 652 L227 652 C234 652 238 655 238 661 L238 690 C238 697 234 700 227 700 L227 700 Z M549 700 L495 700 C487 700 484 697 481 688 L419 495 L358 688 C355 697 352 700 343 700 L287 700 C280 700 277 695 277 688 L277 419 C277 412 280 408 286 408 L317 408 C324 408 327 412 327 419 L327 635 L397 415 C398 411 402 408 406 408 L433 408 C437 408 440 411 441 416 L510 634 L510 419 C510 412 513 408 519 408 L549 408 C556 408 560 412 560 419 L560 688 C560 695 555 700 549 700 L549 700 Z " />
<glyph glyph-name="uni2126" unicode="&#x2126;" horiz-adv-x="651" d="M617 70 L493 70 C552 107 583 177 583 293 L583 437 C583 603 470 710 325 710 C180 710 68 603 68 437 L68 293 C68 177 98 107 158 70 L34 70 C24 70 17 62 17 52 L17 17 C17 7 24 0 34 0 L253 0 C263 0 270 7 270 17 L270 44 C270 56 266 62 253 70 C170 123 145 170 145 293 L145 435 C145 564 226 639 325 639 C424 639 506 564 506 435 L506 293 C506 170 481 122 398 70 C385 62 381 56 381 44 L381 17 C381 7 388 0 398 0 L617 0 C627 0 634 7 634 17 L634 52 C634 62 627 70 617 70 L617 70 Z " />
<glyph glyph-name="estimated" unicode="&#x212e;" horiz-adv-x="780" d="M167 305 L750 305 L750 314 C750 493 589 638 390 638 C191 638 30 493 30 314 C30 135 191 -10 390 -10 C506 -10 610 40 675 116 L623 116 C566 51 484 9 391 9 C304 9 226 46 170 105 C165 110 162 117 162 125 L162 301 C162 304 164 305 167 305 L167 305 Z M618 506 L618 328 C618 326 617 323 614 323 L167 323 C164 323 162 326 162 328 L162 502 C162 511 165 518 171 524 C227 582 305 619 391 619 C476 619 553 583 609 527 C615 521 618 514 618 506 L618 506 Z " />
<glyph glyph-name="partialdiff" unicode="&#x2202;" horiz-adv-x="514" d="M409 415 L236 686 C229 698 224 700 215 700 L166 700 C155 700 150 690 157 679 L303 454 C290 457 276 458 260 458 C138 458 53 374 53 239 L53 212 C53 72 141 -10 257 -10 C372 -10 461 72 461 212 L461 247 C461 311 442 362 409 415 L409 415 Z M386 207 C386 110 332 57 257 57 C183 57 129 110 129 207 L129 241 C129 338 183 391 257 391 C332 391 386 338 386 241 L386 207 Z " />
<glyph glyph-name="uni2206" unicode="&#x2206;" horiz-adv-x="638" d="M606 26 L364 685 C361 693 356 700 346 700 L289 700 C279 700 273 693 270 684 L34 32 C30 23 27 16 27 11 C27 5 32 0 39 0 L69 0 L548 0 L599 0 C606 0 611 5 611 11 C611 15 608 22 606 26 L606 26 Z M316 612 L511 70 L124 70 L316 612 Z " />
<glyph glyph-name="product" unicode="&#x220f;" horiz-adv-x="663" d="M643 700 L19 700 C10 700 3 692 3 683 L3 645 C3 636 10 629 19 629 L104 629 L104 -124 C104 -134 110 -141 120 -141 L162 -141 C172 -141 179 -134 179 -124 L179 629 L485 629 L485 -124 C485 -134 491 -141 501 -141 L543 -141 C553 -141 560 -134 560 -124 L560 629 L643 629 C653 629 660 636 660 645 L660 683 C660 692 653 700 643 700 L643 700 Z " />
<glyph glyph-name="summation" unicode="&#x2211;" horiz-adv-x="517" d="M505 648 L505 683 C505 692 497 700 487 700 L32 700 C22 700 16 692 16 683 L16 630 C16 621 18 614 26 606 L335 294 L27 -48 C20 -55 16 -61 16 -73 L16 -124 C16 -134 22 -141 32 -141 L487 -141 C497 -141 505 -134 505 -124 L505 -87 C505 -77 497 -69 487 -69 L99 -69 L398 262 C405 269 408 275 408 287 L408 308 C408 319 407 323 398 332 L103 631 L487 631 C497 631 505 638 505 648 L505 648 Z " />
<glyph glyph-name="minus" unicode="&#x2212;" horiz-adv-x="622" d="M82 386 L538 386 C548 386 556 379 556 369 L556 332 C556 322 548 315 538 315 L82 315 C73 315 66 322 66 332 L66 369 C66 379 73 386 82 386 L82 386 Z " />
<glyph glyph-name="uni2215" unicode="&#x2215;" horiz-adv-x="89" d="M-141 0 L-97 0 C-87 0 -83 8 -79 14 L282 674 C284 679 287 684 287 689 C287 695 282 700 276 700 L233 700 C222 700 219 694 215 688 L-147 25 C-151 19 -152 15 -152 11 C-152 5 -147 0 -141 0 L-141 0 Z " />
<glyph glyph-name="radical" unicode="&#x221a;" horiz-adv-x="591" d="M265 0 L315 0 C323 0 329 4 332 11 L586 672 C589 678 591 684 591 689 C591 695 587 700 580 700 L529 700 C522 700 517 697 514 689 L292 88 L141 489 C138 497 133 500 124 500 L5 500 C-4 500 -11 492 -11 483 L-11 451 C-11 441 -4 434 5 434 L83 434 L249 11 C252 3 257 0 265 0 L265 0 Z " />
<glyph glyph-name="infinity" unicode="&#x221e;" horiz-adv-x="850" d="M620 568 C520 568 468 507 426 422 C383 507 330 568 229 568 C120 568 44 495 44 366 L44 333 C44 204 121 132 230 132 C329 132 384 195 424 278 C464 195 520 132 620 132 C730 132 805 205 805 334 L805 367 C805 496 729 568 620 568 L620 568 Z M368 309 C333 233 292 200 230 200 C168 200 120 246 120 332 L120 368 C120 453 167 500 229 500 C292 500 332 466 369 389 L385 349 L368 309 Z M729 332 C729 247 683 200 620 200 C558 200 518 233 482 309 L465 351 L480 389 C516 466 557 500 620 500 C682 500 729 454 729 368 L729 332 Z " />
<glyph glyph-name="integral" unicode="&#x222b;" horiz-adv-x="305" d="M172 -3 L172 503 C172 609 191 630 280 630 C290 630 297 637 297 646 L297 683 C297 692 290 700 280 700 C143 700 96 648 96 503 L96 -3 C96 -109 78 -130 -11 -130 C-21 -130 -29 -137 -29 -146 L-29 -183 C-29 -192 -21 -200 -11 -200 C125 -200 172 -148 172 -3 L172 -3 Z " />
<glyph glyph-name="approxequal" unicode="&#x2248;" horiz-adv-x="622" d="M87 418 C121 432 147 447 189 447 C261 447 329 387 420 387 C463 387 501 398 534 414 C548 421 553 425 553 437 L553 473 C553 481 546 489 537 487 C500 473 472 458 420 458 C342 458 276 515 190 515 C150 515 117 504 82 487 C74 483 69 479 69 469 L69 431 C69 422 78 416 87 418 L87 418 Z M87 206 C121 220 147 234 189 234 C261 234 329 175 420 175 C463 175 501 186 534 201 C548 208 553 212 553 224 L553 260 C553 268 546 277 537 275 C500 260 472 245 420 245 C342 245 276 303 190 303 C150 303 117 292 82 275 C74 271 69 267 69 257 L69 219 C69 210 78 203 87 206 L87 206 Z " />
<glyph glyph-name="notequal" unicode="&#x2260;" horiz-adv-x="622" d="M538 423 C548 423 556 430 556 439 L556 477 C556 486 548 494 538 494 L435 494 L487 586 C494 598 490 607 479 607 L439 607 C429 607 423 605 417 593 L360 494 L82 494 C73 494 66 486 66 477 L66 439 C66 430 73 423 82 423 L319 423 L232 270 L82 270 C73 270 66 263 66 253 L66 216 C66 206 73 199 82 199 L191 199 L135 100 C128 88 131 79 143 79 L183 79 C193 79 199 81 205 92 L266 199 L538 199 C548 199 556 206 556 216 L556 253 C556 263 548 270 538 270 L307 270 L394 423 L538 423 Z " />
<glyph glyph-name="lessequal" unicode="&#x2264;" horiz-adv-x="539" d="M487 576 L487 626 C487 633 483 638 476 638 C473 638 470 636 466 634 L57 441 C50 438 47 434 47 426 L47 378 C47 370 52 365 58 363 L464 178 C468 177 473 174 476 174 C483 174 487 179 487 185 L487 240 C487 247 484 252 477 255 L145 404 L477 561 C484 565 487 570 487 576 L487 576 Z M470 70 L64 70 C54 70 47 62 47 52 L47 17 C47 7 54 0 64 0 L470 0 C480 0 487 7 487 17 L487 52 C487 62 480 70 470 70 L470 70 Z " />
<glyph glyph-name="greaterequal" unicode="&#x2265;" horiz-adv-x="539" d="M63 174 C66 174 71 177 75 178 L481 363 C486 365 491 370 491 378 L491 426 C491 434 488 438 481 441 L73 634 C69 636 66 638 63 638 C56 638 51 633 51 626 L51 576 C51 570 55 565 62 561 L394 404 L62 255 C55 252 51 247 51 240 L51 185 C51 179 56 174 63 174 L63 174 Z M475 70 L69 70 C59 70 52 62 52 52 L52 17 C52 7 59 0 69 0 L475 0 C485 0 492 7 492 17 L492 52 C492 62 485 70 475 70 L475 70 Z " />
<glyph glyph-name="lozenge" unicode="&#x25ca;" horiz-adv-x="604" d="M257 14 C262 7 265 0 274 0 L328 0 C337 0 339 6 344 13 L555 332 C560 340 561 343 561 348 C561 351 560 355 555 363 L341 687 C336 694 334 700 325 700 L277 700 C268 700 265 693 260 686 L48 363 C43 356 42 352 42 348 C42 343 43 340 48 332 L257 14 Z M300 72 L120 348 L300 628 L484 348 L300 72 Z " />
<glyph glyph-name="i.dot" unicode="&#xe166;" horiz-adv-x="239" d="M119 703 C89 703 69 682 69 652 C69 622 89 601 119 601 C149 601 170 622 170 652 C170 682 149 703 119 703 L119 703 Z M98 0 L140 0 C150 0 157 7 157 17 L157 483 C157 492 150 500 140 500 L98 500 C88 500 82 492 82 483 L82 17 C82 7 88 0 98 0 L98 0 Z " />
<glyph glyph-name="caron.alt" unicode="&#xe189;" horiz-adv-x="213" d="M84 470 L107 470 C116 470 122 477 124 487 L146 683 C148 692 139 700 129 700 L84 700 C74 700 67 692 67 683 L67 487 C67 477 74 470 84 470 L84 470 Z " />
<glyph glyph-name="uniE18A" unicode="&#xe18a;" horiz-adv-x="280" d="M147 562 C174 562 192 581 192 607 C192 637 174 651 149 653 C151 682 165 699 185 715 C190 719 192 719 192 728 L192 757 C192 764 189 765 186 765 C173 765 99 732 99 625 C99 581 118 562 147 562 L147 562 Z " />
<glyph glyph-name="uniF6C3" unicode="&#xf6c3;" d="M-141 -51 C-168 -51 -186 -70 -186 -96 C-186 -126 -168 -140 -143 -142 C-145 -171 -159 -188 -179 -204 C-184 -208 -185 -208 -185 -217 L-185 -246 C-185 -253 -183 -254 -180 -254 C-167 -254 -93 -221 -93 -114 C-93 -70 -112 -51 -141 -51 L-141 -51 Z " />
<glyph glyph-name="fi" unicode="&#xfb01;" horiz-adv-x="580" d="M460 601 C490 601 511 622 511 652 C511 682 490 703 460 703 C430 703 410 682 410 652 C410 622 430 601 460 601 L460 601 Z M481 500 L452 500 L171 500 L171 515 C171 613 185 630 264 630 L280 630 C290 630 297 637 297 647 L297 683 C297 692 290 700 280 700 L264 700 C127 700 95 643 95 515 L95 500 L18 500 C8 500 1 492 1 483 L1 448 C1 438 8 432 18 432 L95 432 L95 17 C95 7 102 0 112 0 L154 0 C163 0 171 7 171 17 L171 432 L423 432 L423 17 C423 7 429 0 439 0 L481 0 C491 0 498 7 498 17 L498 483 C498 492 491 500 481 500 L481 500 Z " />
<glyph glyph-name="fl" unicode="&#xfb02;" horiz-adv-x="576" d="M481 700 L457 700 L264 700 C127 700 95 643 95 515 L95 500 L18 500 C8 500 1 492 1 483 L1 448 C1 438 8 432 18 432 L95 432 L95 17 C95 7 102 0 112 0 L154 0 C163 0 171 7 171 17 L171 432 L280 432 C290 432 297 438 297 448 L297 483 C297 492 290 500 280 500 L171 500 L171 515 C171 613 185 630 264 630 L423 630 L423 17 C423 7 429 0 439 0 L481 0 C491 0 498 7 498 17 L498 683 C498 692 491 700 481 700 L481 700 Z " />
</font>
</svg>
